<svg xmlns="http://www.w3.org/2000/svg" xmlns:xlink="http://www.w3.org/1999/xlink" width="1920" zoomAndPan="magnify" viewBox="0 0 1440 809.999993" height="1080" preserveAspectRatio="xMidYMid meet" version="1.0"><path fill="#fe00fe" d="M 1518.867188 1003.777344 L 1444.09375 1003.777344 C 1444.09375 1003.777344 1263.519531 954.433594 1249.367188 1003.777344 L 1122.769531 1003.777344 C 1107.21875 955.648438 1028.824219 957.644531 1018.464844 1003.777344 L 814.097656 1003.777344 C 769.777344 946.027344 693.195312 942.394531 687.75 1003.777344 L 574.816406 1003.777344 C 559.917969 991.347656 358.953125 976.484375 344.476562 1003.777344 L 292.476562 1003.777344 C 267.8125 942.410156 222.230469 960.046875 196.269531 1003.777344 L 41.292969 1003.777344 C 14.210938 941.207031 -78.628906 863.308594 -78.628906 863.308594 L -78.628906 703.359375 C -42.761719 679.683594 -44.273438 597.058594 -78.628906 543.515625 L -78.628906 344.21875 C -28.722656 296.605469 -49.484375 233.722656 -78.628906 192.972656 L -78.628906 3.296875 C -78.628906 3.296875 -60.3125 7.070312 -78.628906 -5.792969 L -78.628906 -193.972656 L -4.289062 -193.972656 C -4.289062 -193.972656 8.984375 -153.84375 15.800781 -161.875 C 22.636719 -169.890625 26.191406 -193.972656 26.191406 -193.972656 L 164.882812 -193.972656 C 164.882812 -193.972656 201.589844 -170.40625 269.8125 -179.578125 C 338.03125 -188.746094 346.597656 -193.972656 346.597656 -193.972656 L 413.507812 -193.972656 C 413.507812 -193.972656 422.679688 -151.644531 470.433594 -165.183594 C 518.171875 -178.71875 545.394531 -193.972656 545.394531 -193.972656 L 727.90625 -193.972656 C 727.90625 -193.972656 743.910156 -124.179688 770.277344 -193.972656 L 895.316406 -193.972656 C 929.058594 -160.269531 1061.992188 -193.972656 1061.992188 -193.972656 L 1223.300781 -193.972656 C 1258.871094 -153.453125 1276.671875 -182.351562 1325.359375 -193.972656 L 1369.757812 -193.972656 C 1369.757812 -193.972656 1390.882812 -138.605469 1422.582031 -148.636719 C 1454.28125 -158.664062 1518.867188 -180.980469 1518.867188 -180.980469 L 1518.867188 -77.660156 C 1518.867188 -77.660156 1478.726562 87.09375 1518.867188 110.628906 L 1518.867188 279.359375 C 1494.8125 299.007812 1492.285156 442.566406 1518.867188 464.726562 L 1518.867188 608.722656 C 1487.183594 627.9375 1482.738281 639.460938 1518.867188 668.003906 L 1518.867188 762.527344 C 1481.566406 816.066406 1483.9375 893.25 1518.867188 937.496094 Z M 1518.867188 1003.777344 " fill-opacity="1" fill-rule="nonzero"/><path fill="#defe47" d="M 21.792969 545.777344 C 27.332031 598.148438 33.882812 649.863281 39.1875 702.09375 C 2.605469 708.660156 -35.960938 710.171875 -78.628906 703.34375 L -78.628906 543.503906 C -44.507812 552.546875 -11.578125 552.171875 21.792969 545.777344 Z M 25.085938 173.976562 C -11.808594 184.925781 -46.351562 192.550781 -78.628906 192.972656 L -78.628906 344.21875 C -48.847656 349.742188 -19.34375 349.757812 10.265625 346.121094 C 10.59375 309.035156 12.621094 271.015625 17.035156 231.710938 C 19.25 211.890625 21.964844 192.644531 25.085938 173.976562 Z M 26.191406 -193.972656 L -4.289062 -193.972656 C -21.839844 -160.972656 -51.683594 -97.636719 -78.628906 -5.792969 L -78.628906 3.296875 C -51.109375 8.273438 -1.839844 14.105469 66.269531 10.238281 C 91.652344 -64.011719 121.683594 -123.199219 147.660156 -166.523438 C 103.257812 -169.691406 63.132812 -178.5 26.191406 -193.972656 Z M 39.1875 702.09375 C 44.976562 759.082031 49.25 816.675781 49.0625 876.4375 C 99.65625 872.070312 149.28125 857.941406 199.890625 841.457031 C 197.535156 785.796875 192.386719 723.289062 184.867188 654.949219 C 136.300781 674.460938 89.609375 693.050781 39.1875 702.09375 Z M 156.503906 308.007812 C 106.363281 324.867188 58.171875 340.242188 10.265625 346.121094 C 9.65625 415.164062 14.945312 480.980469 21.792969 545.777344 C 67.472656 537.03125 113.976562 517.082031 165.503906 494.734375 C 157.660156 427.578125 152.824219 368.660156 156.503906 308.007812 Z M 254.304688 -20.453125 C 181.480469 -1.378906 118.359375 7.273438 66.269531 10.238281 C 49.765625 58.523438 35.242188 113.183594 25.085938 173.976562 C 77.269531 158.492188 134.164062 136.359375 196.035156 118.644531 C 210.542969 76.644531 229.625 30.902344 254.304688 -20.453125 Z M 209.234375 475.957031 C 194.226562 482.273438 179.6875 488.605469 165.519531 494.75 C 169.890625 532.101562 175.179688 572.011719 180.433594 616.195312 C 181.996094 629.324219 183.476562 642.253906 184.882812 654.980469 C 221.011719 640.476562 258.171875 625.503906 298.703125 613.605469 C 316.050781 608.519531 333.273438 604.402344 350.417969 601.160156 C 344.910156 545.140625 339.25 490.632812 337.160156 436.625 C 293.648438 444.078125 252.898438 457.554688 209.234375 475.957031 Z M 393.398438 89.777344 C 322.632812 88.078125 256.925781 101.207031 196.035156 118.644531 C 171.589844 189.371094 160.09375 249.492188 156.519531 307.992188 C 217.300781 287.546875 280.917969 264.929688 350.324219 254.40625 C 362.476562 193.082031 377.1875 138.402344 393.398438 89.777344 Z M 350.386719 601.144531 C 356.378906 662.136719 362.179688 724.941406 362.945312 790.867188 C 425.394531 775.660156 491.730469 767.472656 564.785156 777.3125 C 555.113281 722.460938 543.351562 662.761719 534.566406 597.695312 C 474.257812 589.273438 413.007812 589.289062 350.386719 601.144531 Z M 529.167969 290.492188 C 530.980469 280.496094 532.898438 270.65625 534.878906 260.921875 C 534.597656 260.859375 534.332031 260.796875 534.054688 260.738281 C 467.859375 245.28125 407.15625 245.796875 350.308594 254.421875 C 347.144531 270.375 344.148438 286.765625 341.339844 303.640625 C 336.113281 348.011719 335.410156 392.144531 337.128906 436.625 C 390.917969 427.390625 448.921875 427.390625 521.882812 438.761719 C 521.089844 391.738281 523.054688 342.363281 529.167969 290.492188 Z M 521.898438 438.746094 C 522.867188 495.046875 527.859375 547.945312 534.582031 597.710938 C 602.148438 607.164062 668.53125 627.1875 734.347656 652.96875 C 724.394531 598.929688 715.785156 542.097656 709.777344 482.648438 C 636.390625 461.40625 575.144531 447.042969 521.898438 438.746094 Z M 703.878906 311.84375 C 708.0625 252.703125 719.496094 195.1875 735.160156 140.992188 C 680.167969 132.679688 626.082031 123.648438 573.632812 114.824219 C 558.921875 159.519531 545.644531 208.257812 534.878906 260.921875 C 609.589844 278.40625 662.351562 296.136719 703.878906 311.84375 Z M 774.097656 669.234375 C 760.871094 663.605469 747.609375 658.175781 734.332031 652.96875 C 746.453125 718.78125 760.558594 780.449219 774.332031 837.730469 C 841.757812 855.261719 905.035156 862.292969 964.472656 862.386719 C 948.761719 819.671875 933.410156 771.964844 920.710938 713.605469 C 873.691406 705.804688 825.441406 691.070312 774.097656 669.234375 Z M 703.878906 311.84375 C 701.992188 338.589844 701.585938 365.679688 702.960938 392.941406 C 704.488281 423.460938 706.828125 453.375 709.777344 482.648438 C 718.761719 485.253906 727.921875 487.949219 737.28125 490.757812 C 797.921875 508.957031 849.199219 518.363281 894.160156 521.683594 C 893.582031 513.605469 893.035156 505.371094 892.554688 496.980469 C 889.964844 452.75 891.085938 408.007812 895.003906 363.605469 C 822.101562 364.804688 783.863281 342.097656 703.878906 311.84375 Z M 969.683594 29.484375 C 904.941406 22.792969 845.796875 9.769531 789.214844 -4.390625 C 769.105469 40.027344 750.199219 88.980469 735.160156 141.007812 C 799.011719 150.660156 864.097656 159.378906 929.246094 165.773438 C 941.257812 117.769531 955.191406 71.902344 969.683594 29.484375 Z M 894.160156 521.667969 C 899.621094 597.542969 909.058594 660.0625 920.710938 713.605469 C 991.882812 725.410156 1060.210938 721.292969 1132.117188 701.671875 C 1118.699219 664.058594 1104.316406 619.453125 1088.777344 564.648438 C 1082.847656 543.734375 1078.011719 522.773438 1074.160156 501.832031 C 1022.179688 516.628906 966.328125 527 894.160156 521.667969 Z M 1047.421875 340.039062 C 1052.414062 338.871094 1057.390625 337.714844 1062.351562 336.578125 C 1064.160156 281.183594 1071.273438 227.175781 1081.789062 175.847656 C 1031.273438 174.351562 980.242188 170.78125 929.261719 165.773438 C 913.441406 228.984375 900.976562 295.90625 895.019531 363.589844 C 932.863281 362.964844 980.105469 355.886719 1047.421875 340.039062 Z M 1121.195312 31.980469 C 1143.191406 -32.402344 1168.136719 -88.5 1190.164062 -132.429688 C 1139.574219 -121.0625 1086.75 -122.511719 1032.460938 -130.636719 C 1013.253906 -87.328125 990.882812 -32.601562 969.683594 29.484375 C 1016.828125 34.347656 1066.9375 35.847656 1121.195312 31.980469 Z M 1132.101562 701.671875 C 1151.992188 757.492188 1169.710938 797.960938 1185.734375 833.660156 C 1260.492188 815.539062 1327.542969 792.816406 1387.996094 777.765625 C 1373.566406 732.601562 1358.433594 690.585938 1343.660156 649.957031 C 1294.953125 652.1875 1246.140625 660.9375 1201.226562 678.5625 C 1177.714844 687.792969 1154.734375 695.496094 1132.101562 701.671875 Z M 1074.160156 501.832031 C 1139.511719 483.207031 1198.761719 457.570312 1276.65625 447.214844 C 1264.671875 401.113281 1255.390625 353.078125 1250.273438 300.597656 C 1190.773438 309.691406 1127.605469 321.621094 1062.351562 336.578125 C 1060.570312 390.726562 1063.894531 446.214844 1074.160156 501.832031 Z M 1250.351562 171.964844 C 1256.078125 113.078125 1268.886719 56.839844 1284.890625 5.449219 C 1226.078125 20.0625 1171.820312 28.359375 1121.195312 31.980469 C 1106 76.425781 1092.226562 124.804688 1081.773438 175.847656 C 1138.871094 177.535156 1195.328125 176.566406 1250.351562 171.964844 Z M 1325.359375 -193.972656 L 1223.300781 -193.972656 C 1213.847656 -177.707031 1202.457031 -156.980469 1190.164062 -132.445312 C 1205.640625 -135.925781 1220.929688 -140.589844 1235.96875 -146.640625 C 1271.179688 -160.800781 1300.648438 -176.894531 1325.359375 -193.972656 Z M 1276.65625 447.199219 C 1294.625 516.367188 1318.652344 581.148438 1343.675781 649.957031 C 1404.9375 647.152344 1466.015625 654.699219 1518.867188 668.003906 L 1518.867188 608.722656 C 1488.914062 557.210938 1467.308594 504.339844 1452.378906 451.441406 C 1382.253906 440.226562 1325.75 440.679688 1276.65625 447.199219 Z M 1249.460938 292.019531 C 1249.710938 294.890625 1249.976562 297.746094 1250.257812 300.582031 C 1313.363281 290.929688 1372.332031 284.457031 1425.234375 280.902344 C 1422.972656 232.789062 1424.953125 185.875 1429.820312 141.242188 C 1372.597656 156.992188 1312.394531 166.789062 1250.351562 171.964844 C 1246.5625 211.03125 1245.875 251.269531 1249.460938 292.019531 Z M 1518.867188 -193.972656 L 1369.757812 -193.972656 C 1343.816406 -145.625 1310.320312 -76.207031 1284.890625 5.449219 C 1342.378906 -8.835938 1404.234375 -29.15625 1471.332031 -57.027344 C 1487.417969 -108.914062 1504.859375 -151.457031 1518.867188 -180.980469 Z M 1518.867188 464.726562 L 1518.867188 277.578125 C 1490.476562 277.546875 1459.101562 278.625 1425.234375 280.917969 C 1427.855469 336.703125 1436.203125 394.09375 1452.378906 451.457031 C 1473.285156 454.777344 1495.390625 459.160156 1518.867188 464.726562 Z M 1518.867188 110.628906 L 1518.867188 -77.660156 C 1502.738281 -70.359375 1486.886719 -63.484375 1471.332031 -57.027344 C 1453.78125 -0.414062 1437.855469 67.289062 1429.820312 141.242188 C 1460.414062 132.820312 1490.148438 122.667969 1518.867188 110.628906 Z M 1518.867188 937.480469 L 1518.867188 762.511719 C 1478.945312 758.878906 1435.515625 765.945312 1388.011719 777.765625 C 1403.503906 826.238281 1418.214844 878.3125 1430.835938 936.140625 C 1458.371094 935.515625 1487.683594 935.921875 1518.867188 937.480469 Z M 964.472656 862.386719 C 983.238281 913.402344 1002.507812 957.304688 1018.464844 1003.777344 L 1122.769531 1003.777344 C 1155.203125 988.089844 1192.675781 973.304688 1237.339844 961.558594 C 1222.097656 913.324219 1205.1875 877 1185.75 833.660156 C 1118.496094 849.972656 1045 862.527344 964.472656 862.386719 Z M 564.785156 777.3125 C 577.703125 850.597656 586.859375 915.257812 580.214844 972.601562 C 616.207031 978.167969 652.367188 988.121094 687.734375 1003.761719 L 814.082031 1003.761719 C 802.992188 953.511719 788.855469 898.070312 774.332031 837.714844 C 744.566406 829.980469 714.003906 820.199219 682.601562 808.050781 C 641.304688 792.097656 602.164062 782.351562 564.785156 777.3125 Z M 362.945312 790.867188 C 306.113281 804.714844 252.480469 824.347656 199.890625 841.472656 C 202.574219 904.996094 201.574219 959.59375 196.253906 1003.777344 L 292.460938 1003.777344 C 309.6875 998.054688 328.109375 992.566406 347.5 987.652344 C 359.886719 918.5 363.679688 853.28125 362.945312 790.867188 Z M -78.628906 863.308594 L -78.628906 1002 C -76.863281 1002.59375 -75.085938 1003.183594 -73.308594 1003.777344 L 41.292969 1003.777344 C 46.660156 959.96875 48.9375 917.691406 49.0625 876.4375 C 7.503906 880.042969 -34.710938 877.015625 -78.628906 863.308594 Z M 347.5 987.652344 C 346.550781 993 345.519531 998.382812 344.460938 1003.777344 L 574.800781 1003.777344 C 577.1875 993.625 578.980469 983.253906 580.214844 972.617188 C 498.046875 959.921875 416.722656 970.089844 347.5 987.652344 Z M 1249.351562 1003.777344 L 1444.078125 1003.777344 C 1439.992188 980.351562 1435.5625 957.832031 1430.820312 936.140625 C 1353.800781 937.886719 1290.492188 947.570312 1237.324219 961.558594 C 1241.460938 974.628906 1245.46875 988.585938 1249.351562 1003.777344 Z M 254.304688 -20.453125 C 258.296875 -21.5 262.324219 -22.574219 266.363281 -23.683594 C 266.394531 -23.699219 266.441406 -23.699219 266.472656 -23.714844 C 270.542969 -24.820312 274.632812 -25.976562 278.765625 -27.160156 C 287.285156 -29.59375 295.925781 -32.167969 304.695312 -34.894531 C 358.921875 -51.769531 409.109375 -59.597656 456.953125 -61.269531 C 434.800781 -19.050781 412.992188 30.933594 393.382812 89.777344 C 415.582031 90.304688 438.296875 92.300781 461.496094 96.078125 C 497.796875 102.003906 535.269531 108.367188 573.617188 114.824219 C 593.226562 55.230469 615.363281 2.816406 637.46875 -42.210938 C 578.859375 -54.953125 519.949219 -63.46875 456.9375 -61.269531 C 487.34375 -119.144531 518.390625 -162.4375 545.394531 -193.972656 L 413.507812 -193.972656 C 387.421875 -188.464844 362.414062 -183.648438 338.40625 -179.625 C 304.972656 -120.71875 277.222656 -68.160156 254.304688 -20.453125 Z M 876.859375 -165.867188 C 841.570312 -175.398438 805.96875 -185.253906 770.277344 -193.972656 L 727.90625 -193.972656 C 703.644531 -160.503906 670.621094 -109.675781 637.484375 -42.210938 C 687.484375 -31.339844 737.28125 -17.398438 789.214844 -4.40625 C 818.746094 -69.644531 850.820312 -125.054688 876.859375 -165.867188 Z M 1061.992188 -193.972656 L 895.316406 -193.972656 C 889.636719 -185.582031 883.441406 -176.207031 876.859375 -165.867188 C 929.589844 -151.644531 981.664062 -138.234375 1032.460938 -130.636719 C 1043.675781 -155.902344 1053.800781 -177.269531 1061.992188 -193.972656 Z M 338.40625 -179.625 C 341.089844 -184.363281 343.835938 -189.152344 346.597656 -193.972656 L 164.882812 -193.972656 C 159.421875 -185.675781 153.648438 -176.535156 147.660156 -166.523438 C 203.726562 -162.546875 266.597656 -167.585938 338.40625 -179.625 Z M 338.40625 -179.625 " fill-opacity="1" fill-rule="nonzero"/></svg>