<svg xmlns="http://www.w3.org/2000/svg" xmlns:xlink="http://www.w3.org/1999/xlink" width="900" zoomAndPan="magnify" viewBox="0 0 675 225" height="300" preserveAspectRatio="xMidYMid meet" version="1.0"><defs><clipPath id="219f26fae7"><path d="M 31.066406 22.445312 L 644 22.445312 L 644 216.3125 L 31.066406 216.3125 Z M 31.066406 22.445312 " clip-rule="nonzero"/></clipPath><clipPath id="3fc2884fef"><path d="M 51.316406 22.445312 L 623.683594 22.445312 C 629.054688 22.445312 634.207031 24.578125 638.003906 28.375 C 641.800781 32.175781 643.933594 37.324219 643.933594 42.695312 L 643.933594 196.003906 C 643.933594 201.375 641.800781 206.523438 638.003906 210.320312 C 634.207031 214.121094 629.054688 216.253906 623.683594 216.253906 L 51.316406 216.253906 C 45.945312 216.253906 40.792969 214.121094 36.996094 210.320312 C 33.199219 206.523438 31.066406 201.375 31.066406 196.003906 L 31.066406 42.695312 C 31.066406 37.324219 33.199219 32.175781 36.996094 28.375 C 40.792969 24.578125 45.945312 22.445312 51.316406 22.445312 " clip-rule="nonzero"/></clipPath><clipPath id="e4c005168d"><path d="M 31.066406 8.746094 L 622 8.746094 L 622 202.613281 L 31.066406 202.613281 Z M 31.066406 8.746094 " clip-rule="nonzero"/></clipPath><clipPath id="21c82e4be1"><path d="M 51.316406 8.746094 L 601.769531 8.746094 C 607.136719 8.746094 612.289062 10.878906 616.085938 14.679688 C 619.882812 18.476562 622.019531 23.625 622.019531 28.996094 L 622.019531 182.304688 C 622.019531 187.675781 619.882812 192.824219 616.085938 196.625 C 612.289062 200.421875 607.136719 202.554688 601.769531 202.554688 L 51.316406 202.554688 C 45.945312 202.554688 40.792969 200.421875 36.996094 196.625 C 33.199219 192.824219 31.066406 187.675781 31.066406 182.304688 L 31.066406 28.996094 C 31.066406 23.625 33.199219 18.476562 36.996094 14.679688 C 40.792969 10.878906 45.945312 8.746094 51.316406 8.746094 " clip-rule="nonzero"/></clipPath><clipPath id="006ef7c721"><path d="M 31.070312 8.746094 L 622.066406 8.746094 L 622.066406 202.246094 L 31.070312 202.246094 Z M 31.070312 8.746094 " clip-rule="nonzero"/></clipPath><clipPath id="3966ee19a3"><path d="M 51.320312 8.746094 L 601.808594 8.746094 C 607.179688 8.746094 612.332031 10.878906 616.128906 14.667969 C 619.925781 18.460938 622.058594 23.601562 622.058594 28.964844 L 622.058594 182.03125 C 622.058594 187.390625 619.925781 192.535156 616.128906 196.324219 C 612.332031 200.117188 607.179688 202.246094 601.808594 202.246094 L 51.320312 202.246094 C 45.949219 202.246094 40.796875 200.117188 37 196.324219 C 33.203125 192.535156 31.070312 187.390625 31.070312 182.03125 L 31.070312 28.964844 C 31.070312 23.601562 33.203125 18.460938 37 14.667969 C 40.796875 10.878906 45.949219 8.746094 51.320312 8.746094 " clip-rule="nonzero"/></clipPath></defs><g clip-path="url(#219f26fae7)"><g clip-path="url(#3fc2884fef)"><path fill="#37319d" d="M 31.066406 22.445312 L 643.765625 22.445312 L 643.765625 216.3125 L 31.066406 216.3125 Z M 31.066406 22.445312 " fill-opacity="1" fill-rule="nonzero"/></g></g><g clip-path="url(#e4c005168d)"><g clip-path="url(#21c82e4be1)"><path fill="#defe47" d="M 31.066406 8.746094 L 621.929688 8.746094 L 621.929688 202.613281 L 31.066406 202.613281 Z M 31.066406 8.746094 " fill-opacity="1" fill-rule="nonzero"/></g></g><g clip-path="url(#006ef7c721)"><g clip-path="url(#3966ee19a3)"><path stroke-linecap="butt" transform="matrix(0.750059, 0, 0, 0.748821, 31.068804, 8.74731)" fill="none" stroke-linejoin="miter" d="M 26.999873 -0.00162363 L 760.926104 -0.00162363 C 768.086995 -0.00162363 774.956243 2.846604 780.018342 7.906643 C 785.080441 12.971899 787.923966 19.836859 787.923966 26.999161 L 787.923966 231.409083 C 787.923966 238.566169 785.080441 245.436346 780.018342 250.496384 C 774.956243 255.56164 768.086995 258.404651 760.926104 258.404651 L 26.999873 258.404651 C 19.838982 258.404651 12.969734 255.56164 7.907635 250.496384 C 2.845536 245.436346 0.00201162 238.566169 0.00201162 231.409083 L 0.00201162 26.999161 C 0.00201162 19.836859 2.845536 12.971899 7.907635 7.906643 C 12.969734 2.846604 19.838982 -0.00162363 26.999873 -0.00162363 " stroke="#37319d" stroke-width="6" stroke-opacity="1" stroke-miterlimit="4"/></g></g></svg>