<svg xmlns="http://www.w3.org/2000/svg" xmlns:xlink="http://www.w3.org/1999/xlink" width="1920" zoomAndPan="magnify" viewBox="0 0 1440 809.999993" height="1080" preserveAspectRatio="xMidYMid meet" version="1.0"><path fill="#fe00fe" d="M 809.910156 1076.871094 L 738.34375 1076.871094 C 738.34375 1076.871094 621.039062 1034.46875 439.726562 1033.050781 C 258.417969 1031.628906 58.074219 1052.980469 -0.00390625 948.109375 L -0.00390625 891.96875 C -0.00390625 891.96875 52.921875 785.34375 -0.00390625 687.085938 L -0.00390625 628.847656 C 1.78125 630.027344 2.898438 630.871094 2.898438 630.871094 C 2.898438 630.871094 61.761719 506.277344 -0.00390625 407.539062 L -0.00390625 348.121094 C -0.00390625 348.121094 53.511719 231.929688 -0.00390625 137.648438 L -0.00390625 32.488281 C -0.00390625 32.488281 173.65625 24.691406 223.226562 -83.6875 L 329.542969 -83.6875 C 329.542969 -83.6875 378.609375 -41.253906 408.058594 -30.074219 C 437.507812 -18.890625 637.167969 -5.925781 681.234375 -83.6875 L 786.976562 -83.6875 C 786.976562 -83.6875 913.972656 12.328125 991.71875 16.441406 C 1069.464844 20.566406 1089.675781 -83.6875 1089.675781 -83.6875 L 1174.765625 -83.6875 C 1174.765625 -83.6875 1319.191406 -8.871094 1362.773438 -11.230469 C 1406.355469 -13.585938 1417.164062 -83.6875 1417.164062 -83.6875 L 1487.109375 -83.6875 C 1487.109375 -83.6875 1527.667969 25.871094 1527.667969 98.875 C 1527.667969 171.875 1505.871094 320.832031 1507.636719 374.402344 C 1509.40625 427.972656 1547.953125 458.449219 1547.953125 458.449219 L 1547.953125 558.019531 C 1547.953125 558.019531 1514.699219 652.300781 1522.363281 689.972656 C 1530.011719 727.648438 1547.953125 735.1875 1547.953125 735.1875 L 1547.953125 811.5 C 1547.953125 811.5 1517.644531 886.015625 1517.054688 904.859375 C 1516.464844 923.703125 1547.953125 967.828125 1547.953125 967.828125 L 1547.953125 1015.640625 C 1547.953125 1015.640625 1540.019531 1047.34375 1504.101562 1060.882812 C 1468.167969 1074.425781 1383.589844 1076.871094 1383.589844 1076.871094 L 1327.566406 1076.871094 L 1326.828125 1069.710938 L 1313.707031 1076.871094 L 1300.824219 1076.871094 C 1300.824219 1076.871094 1297.953125 1069.710938 1297.953125 1067.351562 C 1297.953125 1064.996094 1288.835938 1076.871094 1288.835938 1076.871094 L 1278.378906 1076.871094 L 1272.042969 1067.941406 L 1268.550781 1076.871094 L 1258.875 1076.871094 L 1247.824219 1063.816406 L 1244.9375 1076.871094 L 1240.070312 1076.871094 L 1184.019531 1057.257812 L 1104.21875 1076.871094 L 1058.609375 1076.871094 L 964.539062 1060.113281 L 927.152344 1076.871094 L 879.476562 1076.871094 L 822.015625 1051.5625 Z M 809.910156 1076.871094 " fill-opacity="1" fill-rule="nonzero"/><path fill="#00b3fe" d="M 738.34375 1076.871094 L -0.00390625 1076.871094 L -0.00390625 948.109375 C 232.265625 1059.585938 368.210938 950.300781 530.308594 968.492188 C 634.402344 980.160156 678.257812 1032.21875 738.34375 1076.871094 Z M 376.402344 840.648438 C 237.222656 843.023438 95.082031 758.625 -0.00390625 687.085938 L -0.00390625 891.96875 C 91.390625 938.316406 216.515625 980.371094 338.671875 952.597656 C 594.960938 894.3125 676.304688 1004.429688 809.910156 1076.871094 L 879.460938 1076.871094 C 731 996.738281 610.335938 836.660156 376.402344 840.648438 Z M 1170.777344 412.585938 C 1225.074219 132.4375 1098.0625 38.15625 1089.660156 -83.6875 L 786.976562 -83.6875 C 796.664062 39.773438 906.59375 111.097656 987.605469 246.632812 C 1132.5 489.050781 1048.542969 753.609375 1215.175781 1044.082031 C 1162.523438 956.464844 1065.140625 779.480469 1049.386719 645.257812 C 1027.621094 459.75 990.222656 262.015625 847.382812 157.824219 C 738.4375 78.335938 697 -20.207031 681.234375 -83.6875 L 329.542969 -83.6875 C 378.398438 17.332031 480.4375 187.804688 642.65625 271.871094 C 879.550781 394.636719 913.109375 458.222656 948.648438 622.789062 C 979.882812 767.390625 1065.972656 946.429688 1146.679688 1037.28125 C 1066.304688 965.246094 969.949219 821.699219 932.867188 688.675781 C 886.6875 522.992188 833.023438 397.855469 656.488281 331.484375 C 489.554688 268.726562 307.472656 96.847656 223.226562 -83.6875 L -0.00390625 -83.6875 L -0.00390625 32.488281 C 73.949219 121.859375 260.820312 356.3125 468.933594 397.867188 C 729.53125 449.898438 792.707031 552.519531 847.972656 690.652344 C 894.230469 806.269531 1002.722656 959.546875 1113.273438 1046.242188 C 1000 987.519531 887.410156 865.371094 830.816406 731.953125 C 760.628906 566.46875 662.835938 471.460938 450.582031 442.3125 C 287.351562 419.886719 84.847656 226.007812 -0.00390625 137.648438 L -0.00390625 348.121094 C 82.777344 430.707031 247.820312 572.859375 410.175781 579.976562 C 634.765625 589.828125 716.289062 691.742188 808.652344 839.125 C 889.269531 967.78125 967.09375 1043.371094 1093.621094 1076.660156 C 959.308594 1060.386719 860.957031 1001.042969 763.394531 855.308594 C 665.421875 708.96875 586.816406 636.675781 372.230469 636.570312 C 253.246094 636.507812 85.390625 493.855469 -0.00390625 407.539062 L -0.00390625 628.605469 C 80.78125 692.058594 217.617188 783.179688 338.445312 784.253906 C 524.035156 785.917969 632.042969 837.960938 773.976562 963.265625 C 845.582031 1026.492188 888.257812 1058.707031 927.152344 1076.871094 L 1240.085938 1076.871094 C 1197.425781 966.089844 1122.917969 659.492188 1170.777344 412.585938 Z M 1417.148438 -83.6875 L 1174.75 -83.6875 C 1209.429688 9.925781 1267.234375 190.675781 1225.9375 375.882812 C 1173.359375 611.605469 1190.65625 931.167969 1244.9375 1076.871094 L 1258.875 1076.871094 C 1239.40625 449.714844 1572.746094 294.402344 1417.148438 -83.6875 Z M 1547.953125 458.449219 L 1547.953125 -83.6875 L 1487.09375 -83.6875 C 1519.671875 49.714844 1511.007812 236.765625 1373.808594 559.230469 C 1272.527344 797.28125 1264.242188 984.859375 1268.550781 1076.871094 L 1278.378906 1076.871094 C 1303.136719 821.59375 1443.074219 651.984375 1547.953125 458.449219 Z M 1547.953125 558.003906 C 1404.585938 715.527344 1320.824219 961.449219 1288.839844 1076.871094 L 1300.824219 1076.871094 C 1363.9375 946.535156 1476.875 812.695312 1547.953125 735.1875 Z M 1547.953125 967.828125 L 1547.953125 811.5 C 1459.1875 869.511719 1361.382812 1003.265625 1313.707031 1076.871094 L 1327.566406 1076.871094 C 1387.808594 1023.273438 1478.175781 988.03125 1547.953125 967.828125 Z M 1547.953125 1015.640625 C 1490.648438 1028.351562 1430 1053.992188 1383.589844 1076.871094 L 1547.953125 1076.871094 Z M 1547.953125 1015.640625 " fill-opacity="1" fill-rule="nonzero"/></svg>