<svg xmlns="http://www.w3.org/2000/svg" xmlns:xlink="http://www.w3.org/1999/xlink" width="1366" zoomAndPan="magnify" viewBox="0 0 1024.5 576" height="768" preserveAspectRatio="xMidYMid meet" version="1.0"><defs><clipPath id="77d7835727"><path d="M 205.816406 252.375 L 819 252.375 L 819 339.714844 L 205.816406 339.714844 Z M 205.816406 252.375 " clip-rule="nonzero"/></clipPath><clipPath id="3d27e1212f"><path d="M 226.066406 252.375 L 798.433594 252.375 C 803.804688 252.375 808.957031 254.507812 812.753906 258.304688 C 816.550781 262.105469 818.683594 267.253906 818.683594 272.625 L 818.683594 319.195312 C 818.683594 324.566406 816.550781 329.714844 812.753906 333.511719 C 808.957031 337.308594 803.804688 339.445312 798.433594 339.445312 L 226.066406 339.445312 C 220.695312 339.445312 215.542969 337.308594 211.746094 333.511719 C 207.949219 329.714844 205.816406 324.566406 205.816406 319.195312 L 205.816406 272.625 C 205.816406 267.253906 207.949219 262.105469 211.746094 258.304688 C 215.542969 254.507812 220.695312 252.375 226.066406 252.375 " clip-rule="nonzero"/></clipPath><clipPath id="2d9b763a34"><path d="M 205.816406 236.835938 L 797 236.835938 L 797 328 L 205.816406 328 Z M 205.816406 236.835938 " clip-rule="nonzero"/></clipPath><clipPath id="d3b8a057b6"><path d="M 226.066406 236.835938 L 776.515625 236.835938 C 781.886719 236.835938 787.039062 238.96875 790.835938 242.769531 C 794.632812 246.566406 796.769531 251.714844 796.769531 257.085938 L 796.769531 307.335938 C 796.769531 312.707031 794.632812 317.859375 790.835938 321.65625 C 787.039062 325.453125 781.886719 327.585938 776.515625 327.585938 L 226.066406 327.585938 C 220.695312 327.585938 215.542969 325.453125 211.746094 321.65625 C 207.949219 317.859375 205.816406 312.707031 205.816406 307.335938 L 205.816406 257.085938 C 205.816406 251.714844 207.949219 246.566406 211.746094 242.769531 C 215.542969 238.96875 220.695312 236.835938 226.066406 236.835938 " clip-rule="nonzero"/></clipPath><clipPath id="37188052ee"><path d="M 205.851562 236.835938 L 796.816406 236.835938 L 796.816406 327.585938 L 205.851562 327.585938 Z M 205.851562 236.835938 " clip-rule="nonzero"/></clipPath><clipPath id="2fc885c9c0"><path d="M 226.097656 236.835938 L 776.53125 236.835938 C 781.898438 236.835938 787.050781 238.96875 790.847656 242.769531 C 794.644531 246.566406 796.777344 251.714844 796.777344 257.085938 L 796.777344 307.335938 C 796.777344 312.707031 794.644531 317.859375 790.847656 321.65625 C 787.050781 325.453125 781.898438 327.585938 776.53125 327.585938 L 226.097656 327.585938 C 220.730469 327.585938 215.578125 325.453125 211.78125 321.65625 C 207.984375 317.859375 205.851562 312.707031 205.851562 307.335938 L 205.851562 257.085938 C 205.851562 251.714844 207.984375 246.566406 211.78125 242.769531 C 215.578125 238.96875 220.730469 236.835938 226.097656 236.835938 " clip-rule="nonzero"/></clipPath></defs><g clip-path="url(#77d7835727)"><g clip-path="url(#3d27e1212f)"><path fill="#37319d" d="M 205.816406 252.375 L 818.515625 252.375 L 818.515625 339.714844 L 205.816406 339.714844 Z M 205.816406 252.375 " fill-opacity="1" fill-rule="nonzero"/></g></g><g clip-path="url(#2d9b763a34)"><g clip-path="url(#d3b8a057b6)"><path fill="#00b3fe" d="M 205.816406 236.835938 L 796.679688 236.835938 L 796.679688 327.484375 L 205.816406 327.484375 Z M 205.816406 236.835938 " fill-opacity="1" fill-rule="nonzero"/></g></g><g clip-path="url(#37188052ee)"><g clip-path="url(#2fc885c9c0)"><path stroke-linecap="butt" transform="matrix(0.750059, 0, 0, 0.750097, 205.850056, 236.837069)" fill="none" stroke-linejoin="miter" d="M 26.994663 -0.00150906 L 760.847996 -0.00150906 C 768.003679 -0.00150906 774.872927 2.841874 779.935026 7.908928 C 784.997125 12.970775 787.84065 19.834472 787.84065 26.995007 L 787.84065 93.98636 C 787.84065 101.146894 784.997125 108.015799 779.935026 113.077646 C 774.872927 118.139493 768.003679 120.982876 760.847996 120.982876 L 26.994663 120.982876 C 19.838979 120.982876 12.969732 118.139493 7.907633 113.077646 C 2.845534 108.015799 0.00200884 101.146894 0.00200884 93.98636 L 0.00200884 26.995007 C 0.00200884 19.834472 2.845534 12.970775 7.907633 7.908928 C 12.969732 2.841874 19.838979 -0.00150906 26.994663 -0.00150906 " stroke="#37319d" stroke-width="6" stroke-opacity="1" stroke-miterlimit="4"/></g></g></svg>