<svg xmlns="http://www.w3.org/2000/svg" xmlns:xlink="http://www.w3.org/1999/xlink" width="1366" zoomAndPan="magnify" viewBox="0 0 1024.5 576" height="768" preserveAspectRatio="xMidYMid meet" version="1.0"><defs><clipPath id="d2a311b7b3"><path d="M 420.75 208.578125 L 604 208.578125 L 604 367.933594 L 420.75 367.933594 Z M 420.75 208.578125 " clip-rule="nonzero"/></clipPath><clipPath id="b4ed5becb2"><path d="M 441 208.578125 L 583.5 208.578125 C 588.871094 208.578125 594.019531 210.710938 597.816406 214.511719 C 601.617188 218.308594 603.75 223.457031 603.75 228.828125 L 603.75 347.453125 C 603.75 352.820312 601.617188 357.972656 597.816406 361.769531 C 594.019531 365.566406 588.871094 367.703125 583.5 367.703125 L 441 367.703125 C 435.628906 367.703125 430.480469 365.566406 426.683594 361.769531 C 422.882812 357.972656 420.75 352.820312 420.75 347.453125 L 420.75 228.828125 C 420.75 223.457031 422.882812 218.308594 426.683594 214.511719 C 430.480469 210.710938 435.628906 208.578125 441 208.578125 " clip-rule="nonzero"/></clipPath><clipPath id="c6e5b890d0"><path d="M 420.75 208.582031 L 603.75 208.582031 L 603.75 367.578125 L 420.75 367.578125 Z M 420.75 208.582031 " clip-rule="nonzero"/></clipPath><clipPath id="ee7ca54bda"><path d="M 441 208.582031 L 583.5 208.582031 C 588.871094 208.582031 594.023438 210.714844 597.820312 214.507812 C 601.617188 218.300781 603.75 223.449219 603.75 228.816406 L 603.75 347.34375 C 603.75 352.710938 601.617188 357.855469 597.820312 361.652344 C 594.023438 365.445312 588.871094 367.578125 583.5 367.578125 L 441 367.578125 C 435.628906 367.578125 430.480469 365.445312 426.683594 361.652344 C 422.882812 357.855469 420.75 352.710938 420.75 347.34375 L 420.75 228.816406 C 420.75 223.449219 422.882812 218.300781 426.683594 214.507812 C 430.480469 210.714844 435.628906 208.582031 441 208.582031 " clip-rule="nonzero"/></clipPath></defs><g clip-path="url(#d2a311b7b3)"><g clip-path="url(#b4ed5becb2)"><path fill="#00b3fe" d="M 420.75 208.578125 L 604.007812 208.578125 L 604.007812 367.933594 L 420.75 367.933594 Z M 420.75 208.578125 " fill-opacity="1" fill-rule="nonzero"/></g></g><g clip-path="url(#c6e5b890d0)"><g clip-path="url(#ee7ca54bda)"><path stroke-linecap="butt" transform="matrix(0.750048, 0, 0, 0.749448, 420.75087, 208.581105)" fill="none" stroke-linejoin="miter" d="M 26.997114 0.00123625 L 216.984964 0.00123625 C 224.145965 0.00123625 231.015317 2.847082 236.077493 7.908102 C 241.13967 12.969121 243.983238 19.838764 243.983238 27.000288 L 243.983238 185.15323 C 243.983238 192.314755 241.13967 199.179186 236.077493 204.245417 C 231.015317 209.306436 224.145965 212.152283 216.984964 212.152283 L 26.997114 212.152283 C 19.836113 212.152283 12.971969 209.306436 7.909793 204.245417 C 2.842408 199.179186 -0.00115988 192.314755 -0.00115988 185.15323 L -0.00115988 27.000288 C -0.00115988 19.838764 2.842408 12.969121 7.909793 7.908102 C 12.971969 2.847082 19.836113 0.00123625 26.997114 0.00123625 " stroke="#37319d" stroke-width="6" stroke-opacity="1" stroke-miterlimit="4"/></g></g></svg>