<svg xmlns="http://www.w3.org/2000/svg" xmlns:xlink="http://www.w3.org/1999/xlink" width="500" zoomAndPan="magnify" viewBox="0 0 375 374.999991" height="500" preserveAspectRatio="xMidYMid meet" version="1.0"><path fill="#0016ee" d="M 305.179688 296.5625 C 308.097656 293.539062 323.277344 277.476562 326.933594 272.636719 C 330.589844 267.792969 304.652344 282.316406 304.652344 282.316406 Z M 305.179688 296.5625 " fill-opacity="1" fill-rule="nonzero"/><path fill="#0016ee" d="M 121.929688 91.648438 C 121.929688 91.648438 107.585938 106.519531 102.875 112.730469 C 98.164062 118.941406 119.675781 107.707031 119.675781 107.707031 Z M 121.929688 91.648438 " fill-opacity="1" fill-rule="nonzero"/><path fill="#0016ee" d="M 50.328125 308.015625 C 50.261719 308.015625 50.199219 308.011719 50.136719 308 C 49.53125 307.894531 49.128906 307.320312 49.234375 306.714844 C 49.328125 306.15625 59.351562 250.851562 97.136719 232.957031 C 97.6875 232.695312 98.355469 232.929688 98.617188 233.488281 C 98.878906 234.042969 98.644531 234.707031 98.085938 234.96875 C 61.328125 252.371094 51.511719 306.550781 51.417969 307.09375 C 51.324219 307.636719 50.859375 308.015625 50.328125 308.015625 Z M 50.328125 308.015625 " fill-opacity="1" fill-rule="nonzero"/><path fill="#0016ee" d="M 22.117188 273.878906 C 21.820312 273.878906 21.519531 273.757812 21.304688 273.523438 C 20.886719 273.070312 20.914062 272.367188 21.367188 271.953125 C 21.753906 271.59375 60.5 236.132812 97.007812 228.457031 C 97.601562 228.328125 98.195312 228.714844 98.324219 229.316406 C 98.449219 229.917969 98.0625 230.507812 97.464844 230.632812 C 61.554688 238.183594 23.257812 273.234375 22.875 273.585938 C 22.660156 273.78125 22.386719 273.878906 22.117188 273.878906 Z M 22.117188 273.878906 " fill-opacity="1" fill-rule="nonzero"/><path fill="#0016ee" d="M 353.335938 257.472656 C 352.679688 257.472656 352 257.390625 351.308594 257.222656 C 343.703125 255.390625 335.09375 242.96875 334.953125 229.085938 C 334.945312 228.472656 335.4375 227.96875 336.054688 227.964844 C 336.5625 227.921875 337.167969 228.449219 337.175781 229.066406 C 337.300781 241.75 345.15625 253.457031 351.828125 255.066406 C 354.855469 255.792969 357.324219 254.394531 359.152344 250.898438 C 366.132812 237.566406 365.683594 221.019531 365.679688 220.847656 C 365.660156 220.230469 366.144531 220.378906 366.753906 220.378906 C 366.769531 220.378906 366.777344 220.378906 366.789062 220.378906 C 367.386719 220.378906 367.878906 220.175781 367.898438 220.777344 C 367.917969 221.503906 368.367188 238.425781 361.117188 252.269531 C 359.214844 255.898438 356.5 257.472656 353.335938 257.472656 Z M 353.335938 257.472656 " fill-opacity="1" fill-rule="nonzero"/><path fill="#defe47" d="M 372.980469 201.777344 C 373.042969 200.960938 372.425781 200.238281 371.605469 200.179688 L 354.449219 198.890625 C 353.628906 198.832031 352.910156 199.449219 352.851562 200.265625 L 352.097656 210.296875 C 352.035156 211.117188 352.652344 211.835938 353.472656 211.898438 L 362.042969 212.535156 C 362.859375 212.59375 363.527344 213.316406 363.523438 214.136719 L 363.484375 230.042969 C 363.480469 230.863281 364.148438 231.582031 364.964844 231.644531 L 367.367188 231.824219 C 368.183594 231.882812 368.964844 231.273438 369.109375 230.464844 L 371.859375 214.761719 C 372 213.957031 372.164062 212.625 372.226562 211.808594 Z M 372.980469 201.777344 " fill-opacity="1" fill-rule="nonzero"/><path fill="#0016ee" d="M 366.292969 232.851562 C 366.265625 232.851562 366.113281 232.84375 366.085938 232.84375 C 364.003906 232.6875 362.378906 230.15625 362.382812 227.085938 L 362.40625 217.085938 C 362.414062 215.238281 360.863281 213.5625 359.019531 213.421875 L 356.335938 213.222656 C 354.859375 213.113281 353.515625 212.429688 352.546875 211.304688 C 351.574219 210.175781 351.101562 208.742188 351.210938 207.269531 L 351.527344 203.128906 C 351.753906 200.109375 354.421875 197.765625 357.476562 198.003906 L 368.75 198.847656 C 370.222656 198.957031 371.566406 199.640625 372.535156 200.769531 C 373.503906 201.898438 373.980469 203.332031 373.867188 204.804688 L 373.558594 208.945312 C 373.371094 211.433594 372.871094 215.4375 372.445312 217.863281 L 370.714844 227.746094 C 370.203125 230.660156 368.300781 232.851562 366.292969 232.851562 Z M 357.0625 200.214844 C 355.328125 200.214844 353.867188 201.566406 353.742188 203.296875 L 353.429688 207.4375 C 353.359375 208.320312 353.644531 209.179688 354.230469 209.859375 C 354.808594 210.535156 355.617188 210.941406 356.5 211.007812 L 359.183594 211.210938 C 362.195312 211.433594 364.636719 214.074219 364.628906 217.097656 L 364.601562 227.09375 C 364.597656 229.175781 365.277344 230.578125 365.953125 230.628906 L 365.695312 231.738281 L 365.695312 230.628906 C 365.695312 230.628906 367.875 229.386719 368.226562 227.367188 L 370.105469 217.480469 C 370.523438 215.109375 371.082031 211.207031 371.269531 208.777344 L 371.613281 204.640625 C 371.679688 203.753906 371.414062 202.898438 370.832031 202.21875 C 370.25 201.542969 369.453125 201.132812 368.574219 201.066406 Z M 357.0625 200.214844 " fill-opacity="1" fill-rule="nonzero"/><path fill="#0016ee" d="M 369.5 229.320312 C 369.484375 229.320312 369.460938 229.320312 369.441406 229.320312 L 363.429688 229.019531 C 362.820312 228.988281 362.347656 228.472656 362.378906 227.855469 C 362.414062 227.246094 362.925781 226.773438 363.546875 226.808594 L 369.558594 227.128906 C 370.171875 227.164062 370.640625 227.671875 370.609375 228.28125 C 370.578125 228.875 370.089844 229.320312 369.5 229.320312 Z M 369.5 229.320312 " fill-opacity="1" fill-rule="nonzero"/><path fill="#0016ee" d="M 370.351562 224.847656 C 370.339844 224.847656 370.324219 224.847656 370.308594 224.847656 L 363.457031 224.40625 C 362.847656 224.382812 362.367188 223.777344 362.390625 223.164062 C 362.414062 222.550781 362.824219 221.992188 363.542969 222.050781 L 370.394531 222.292969 C 371.003906 222.316406 371.484375 223 371.460938 223.613281 C 371.4375 224.210938 370.945312 224.847656 370.351562 224.847656 Z M 370.351562 224.847656 " fill-opacity="1" fill-rule="nonzero"/><path fill="#0016ee" d="M 371.320312 220.375 C 371.296875 220.375 371.269531 220.375 371.242188 220.375 L 363.441406 219.128906 C 362.828125 219.082031 362.371094 218.203125 362.410156 217.589844 C 362.453125 216.976562 363 216.339844 363.59375 216.378906 L 371.394531 216.835938 C 372.007812 216.878906 372.46875 218.066406 372.429688 218.679688 C 372.386719 219.265625 371.898438 220.375 371.320312 220.375 Z M 371.320312 220.375 " fill-opacity="1" fill-rule="nonzero"/><path fill="#0016ee" d="M 371.523438 214.363281 C 371.496094 214.363281 371.46875 214.359375 371.4375 214.359375 L 359.265625 213.441406 C 358.65625 213.394531 358.195312 212.863281 358.242188 212.25 C 358.289062 211.636719 358.851562 211.179688 359.433594 211.222656 L 371.605469 212.140625 C 372.214844 212.1875 372.675781 212.71875 372.628906 213.332031 C 372.585938 213.917969 372.097656 214.363281 371.523438 214.363281 Z M 371.523438 214.363281 " fill-opacity="1" fill-rule="nonzero"/><path fill="#ff6e27" d="M 73.082031 199.363281 C 73.082031 274.414062 133.855469 335.261719 208.824219 335.261719 C 283.792969 335.261719 344.566406 274.414062 344.566406 199.363281 C 344.566406 124.308594 283.792969 63.464844 208.824219 63.464844 C 133.855469 63.464844 73.082031 124.308594 73.082031 199.363281 Z M 73.082031 199.363281 " fill-opacity="1" fill-rule="nonzero"/><path fill="#0016ee" d="M 292.023438 291.449219 C 272.277344 294.761719 253.011719 300.054688 233.476562 304.355469 C 224.453125 306.339844 215.019531 308.515625 207.160156 313.613281 C 204.785156 315.15625 192.503906 322.570312 199.285156 326.601562 C 200.261719 327.1875 201.109375 327.839844 201.753906 328.789062 C 202.15625 329.378906 202.589844 330.019531 202.070312 330.675781 C 201.40625 331.523438 199.984375 331.371094 199.109375 331.488281 C 197.804688 331.664062 196.347656 332.117188 195.457031 333.152344 C 195.246094 333.398438 195.070312 333.679688 194.984375 334 C 194.960938 334.085938 194.851562 334.976562 194.945312 334.984375 C 198.289062 335.230469 205.414062 335.261719 208.824219 335.261719 C 249.476562 335.261719 285.933594 317.34375 310.808594 288.992188 C 304.53125 289.617188 298.265625 290.402344 292.023438 291.449219 Z M 292.023438 291.449219 " fill-opacity="1" fill-rule="nonzero"/><path fill="#0016ee" d="M 78.824219 224.394531 C 79.183594 223.347656 79.347656 222.1875 79.894531 221.210938 C 80.4375 220.234375 81.738281 219.660156 82.503906 220.738281 C 83.476562 222.113281 83.8125 223.660156 85.082031 224.839844 C 87.148438 226.75 89.75 227.167969 91.953125 225.277344 C 94.390625 223.195312 95.976562 220.214844 97.089844 217.261719 C 97.644531 215.789062 98.148438 214.269531 98.539062 212.75 C 99.882812 207.550781 101.457031 202.421875 103.304688 197.378906 C 107.300781 186.46875 112.15625 175.910156 114.5 164.460938 C 116.8125 153.171875 117.652344 141.511719 116.191406 130.042969 C 115.132812 121.734375 113.214844 113.601562 109.773438 106.480469 C 87.03125 130.78125 73.078125 163.429688 73.078125 199.359375 C 73.078125 208.640625 74.015625 217.703125 75.785156 226.460938 C 75.832031 226.6875 77.144531 226.402344 77.289062 226.339844 C 77.734375 226.148438 78.054688 225.792969 78.335938 225.40625 C 78.535156 225.148438 78.6875 224.792969 78.824219 224.394531 Z M 78.824219 224.394531 " fill-opacity="1" fill-rule="nonzero"/><path fill="#0016ee" d="M 208.824219 336.371094 C 133.363281 336.371094 71.96875 274.910156 71.96875 199.363281 C 71.96875 123.816406 133.363281 62.355469 208.824219 62.355469 C 284.285156 62.355469 345.675781 123.816406 345.675781 199.363281 C 345.675781 274.910156 284.285156 336.371094 208.824219 336.371094 Z M 208.824219 64.578125 C 134.585938 64.578125 74.191406 125.039062 74.191406 199.363281 C 74.191406 273.683594 134.585938 334.148438 208.824219 334.148438 C 283.0625 334.148438 343.457031 273.683594 343.457031 199.363281 C 343.457031 125.039062 283.0625 64.578125 208.824219 64.578125 Z M 208.824219 64.578125 " fill-opacity="1" fill-rule="nonzero"/><path fill="#fe00fe" d="M 108.257812 265.480469 C 151.175781 327.015625 235.792969 342.070312 297.261719 299.097656 C 358.726562 256.132812 373.761719 171.414062 330.847656 109.878906 C 287.929688 48.34375 203.3125 33.289062 141.847656 76.253906 C 80.378906 119.222656 65.339844 203.941406 108.257812 265.480469 Z M 108.257812 265.480469 " fill-opacity="1" fill-rule="nonzero"/><path fill="#0016ee" d="M 297.898438 300.011719 C 236.027344 343.261719 150.546875 328.054688 107.351562 266.113281 C 64.148438 204.171875 79.339844 118.59375 141.210938 75.34375 C 203.082031 32.09375 288.558594 47.300781 331.753906 109.242188 C 374.957031 171.183594 359.765625 256.761719 297.898438 300.011719 Z M 142.480469 77.164062 C 81.617188 119.714844 66.671875 203.90625 109.167969 264.84375 C 151.667969 325.78125 235.761719 340.742188 296.628906 298.191406 C 357.492188 255.644531 372.433594 171.453125 329.9375 110.515625 C 287.441406 49.578125 203.347656 34.617188 142.480469 77.164062 Z M 142.480469 77.164062 " fill-opacity="1" fill-rule="nonzero"/><path fill="#0016ee" d="M 271.636719 268.894531 C 263.167969 274.820312 252.835938 275.027344 242.550781 269.476562 C 240.886719 268.738281 239.484375 268.660156 238.539062 269.324219 C 237.5 270.050781 237.003906 271.539062 236.84375 272.148438 C 236.738281 272.527344 236.546875 273.523438 236.53125 273.785156 C 236.382812 278.550781 234.035156 282.464844 229.367188 285.730469 C 221.378906 291.3125 210.882812 289.597656 205.46875 281.832031 C 199.929688 273.890625 201.714844 263.394531 209.53125 257.929688 C 213.546875 255.125 218.515625 254.191406 222.828125 255.4375 L 223.28125 255.574219 C 223.683594 255.703125 224.257812 255.894531 224.585938 255.945312 C 225.503906 256.0625 227.800781 256.242188 229.15625 255.296875 C 229.472656 255.074219 230.40625 254.425781 230.320312 252.089844 C 226.8125 242.5625 231.484375 230.320312 241.304688 223.457031 C 249.910156 217.4375 260.707031 217.089844 270.933594 222.5 C 271.25 222.667969 271.5625 222.839844 271.875 223.015625 C 272.5 223.425781 273.085938 223.789062 273.265625 223.871094 C 273.789062 224.09375 273.957031 223.980469 274.0625 223.902344 L 274.066406 223.902344 C 274.722656 223.441406 275.398438 221.886719 275.742188 220.03125 C 275.78125 219.785156 275.789062 219.332031 275.804688 219.019531 L 275.820312 218.699219 C 276.058594 214.144531 278.792969 209.511719 282.953125 206.605469 C 286.726562 203.964844 291.28125 202.984375 295.769531 203.835938 C 300.222656 204.679688 304.128906 207.230469 306.765625 211.015625 C 312.210938 218.824219 310.207031 229.671875 302.300781 235.199219 C 298.292969 238.003906 293.304688 239.046875 288.617188 238.066406 L 288.21875 237.976562 C 287.726562 237.867188 286.847656 237.652344 286.476562 237.617188 C 285.28125 237.507812 284.140625 237.746094 283.429688 238.242188 C 283.289062 238.339844 283.167969 238.445312 283.066406 238.558594 C 281.9375 239.761719 282.214844 241.4375 282.761719 244.070312 C 283 245.199219 283.242188 246.371094 283.289062 247.535156 C 283.390625 250.027344 282.914062 252.761719 281.878906 255.664062 C 280.011719 260.886719 276.378906 265.585938 271.636719 268.894531 Z M 271.636719 268.894531 " fill-opacity="1" fill-rule="nonzero"/><path fill="#ff6e27" d="M 271.636719 266.671875 C 263.167969 272.59375 252.835938 272.804688 242.550781 267.25 C 240.886719 266.515625 239.484375 266.4375 238.539062 267.097656 C 237.5 267.828125 237.003906 269.316406 236.84375 269.921875 C 236.738281 270.304688 236.546875 271.300781 236.53125 271.558594 C 236.382812 276.324219 234.035156 280.242188 229.367188 283.507812 C 221.378906 289.085938 210.882812 287.375 205.46875 279.609375 C 199.929688 271.667969 201.714844 261.171875 209.53125 255.707031 C 213.546875 252.898438 218.515625 251.96875 222.828125 253.214844 L 223.28125 253.355469 C 223.683594 253.480469 224.257812 253.671875 224.585938 253.722656 C 225.503906 253.839844 227.800781 254.019531 229.15625 253.074219 C 229.472656 252.855469 230.40625 252.203125 230.320312 249.867188 C 226.8125 240.339844 231.484375 228.097656 241.304688 221.234375 C 249.910156 215.21875 260.707031 214.867188 270.933594 220.277344 C 271.25 220.445312 271.5625 220.617188 271.875 220.792969 C 272.5 221.207031 273.085938 221.566406 273.265625 221.648438 C 273.789062 221.871094 273.957031 221.757812 274.0625 221.679688 L 274.066406 221.679688 C 274.722656 221.21875 275.398438 219.664062 275.742188 217.804688 C 275.78125 217.5625 275.789062 217.109375 275.804688 216.800781 L 275.820312 216.476562 C 276.058594 211.925781 278.792969 207.289062 282.953125 204.378906 C 286.726562 201.742188 291.28125 200.761719 295.769531 201.609375 C 300.222656 202.457031 304.128906 205.007812 306.765625 208.792969 C 312.210938 216.601562 310.207031 227.449219 302.300781 232.976562 C 298.292969 235.78125 293.304688 236.824219 288.617188 235.84375 L 288.21875 235.753906 C 287.726562 235.640625 286.847656 235.429688 286.476562 235.390625 C 285.28125 235.285156 284.140625 235.519531 283.429688 236.019531 C 283.289062 236.117188 283.167969 236.21875 283.066406 236.335938 C 281.9375 237.539062 282.214844 239.210938 282.761719 241.84375 C 283 242.976562 283.242188 244.148438 283.289062 245.3125 C 283.390625 247.804688 282.914062 250.539062 281.878906 253.441406 C 280.011719 258.664062 276.378906 263.363281 271.636719 266.671875 Z M 271.636719 266.671875 " fill-opacity="1" fill-rule="nonzero"/><path fill="#0016ee" d="M 272.277344 267.585938 C 263.441406 273.761719 252.699219 273.992188 242.023438 268.230469 C 240.800781 267.691406 239.765625 267.601562 239.175781 268.011719 C 238.570312 268.433594 238.125 269.425781 237.917969 270.214844 C 237.824219 270.558594 237.652344 271.46875 237.636719 271.648438 C 237.476562 276.746094 234.984375 280.9375 230.003906 284.417969 C 221.507812 290.359375 210.328125 288.523438 204.558594 280.242188 C 198.664062 271.796875 200.570312 260.617188 208.898438 254.792969 C 213.183594 251.796875 218.507812 250.808594 223.140625 252.144531 L 223.847656 252.367188 C 224.160156 252.464844 224.523438 252.585938 224.753906 252.617188 C 226.011719 252.78125 227.679688 252.75 228.523438 252.160156 C 228.703125 252.035156 229.234375 251.660156 229.214844 250.074219 C 225.667969 240.140625 230.566406 227.378906 240.667969 220.320312 C 249.625 214.058594 260.847656 213.683594 271.457031 219.292969 C 271.777344 219.464844 272.097656 219.644531 272.421875 219.824219 C 272.925781 220.15625 273.363281 220.433594 273.605469 220.574219 C 273.90625 220.140625 274.371094 219.121094 274.652344 217.605469 C 274.671875 217.464844 274.675781 217.179688 274.6875 216.9375 L 274.707031 216.425781 C 274.964844 211.535156 277.878906 206.570312 282.316406 203.472656 C 286.335938 200.660156 291.1875 199.613281 295.976562 200.519531 C 300.714844 201.417969 304.871094 204.132812 307.679688 208.160156 C 313.472656 216.46875 311.34375 228.011719 302.933594 233.890625 C 298.675781 236.867188 293.375 237.972656 288.390625 236.929688 L 287.972656 236.835938 C 287.300781 236.683594 286.65625 236.527344 286.359375 236.496094 C 285.335938 236.40625 284.289062 236.652344 283.878906 237.089844 C 283.160156 237.855469 283.320312 239.058594 283.851562 241.621094 C 284.082031 242.730469 284.347656 243.996094 284.398438 245.265625 C 284.503906 247.898438 284.007812 250.777344 282.925781 253.8125 C 280.984375 259.253906 277.203125 264.140625 272.277344 267.585938 Z M 237.90625 266.1875 C 238.789062 265.570312 240.390625 265.078125 243 266.234375 C 252.972656 271.613281 262.894531 271.433594 271.003906 265.761719 C 275.554688 262.582031 279.042969 258.070312 280.832031 253.0625 C 281.820312 250.296875 282.273438 247.703125 282.179688 245.355469 C 282.132812 244.273438 281.898438 243.152344 281.675781 242.074219 C 281.140625 239.488281 280.675781 237.257812 282.253906 235.574219 C 283.140625 234.621094 284.792969 234.128906 286.574219 234.285156 C 286.941406 234.324219 287.714844 234.496094 288.261719 234.621094 L 288.863281 234.761719 C 293.234375 235.675781 297.90625 234.695312 301.664062 232.070312 C 309.070312 226.890625 310.949219 216.738281 305.859375 209.433594 C 303.382812 205.886719 299.726562 203.496094 295.5625 202.707031 C 291.367188 201.910156 287.113281 202.832031 283.589844 205.296875 C 279.703125 208.015625 277.148438 212.324219 276.929688 216.539062 L 276.914062 216.855469 C 276.894531 217.347656 276.875 217.746094 276.839844 217.984375 C 276.679688 218.847656 276.070312 221.632812 274.703125 222.59375 C 274.171875 222.964844 273.578125 222.992188 272.832031 222.675781 C 272.609375 222.574219 271.953125 222.179688 271.261719 221.722656 C 271.03125 221.59375 270.722656 221.425781 270.421875 221.265625 C 260.570312 216.058594 250.191406 216.378906 241.9375 222.148438 C 232.582031 228.691406 228.03125 240.445312 231.363281 249.484375 L 231.429688 249.828125 C 231.539062 252.769531 230.226562 253.6875 229.796875 253.988281 C 228.1875 255.113281 225.753906 255 224.445312 254.828125 C 224.117188 254.78125 223.609375 254.625 223.183594 254.488281 L 222.507812 254.28125 C 218.53125 253.132812 213.914062 254.007812 210.171875 256.621094 C 202.863281 261.730469 201.199219 271.546875 206.378906 278.976562 C 211.4375 286.234375 221.257812 287.824219 228.730469 282.601562 C 233.09375 279.550781 235.28125 275.929688 235.421875 271.53125 C 235.453125 271.121094 235.660156 270.058594 235.773438 269.636719 C 236.011719 268.738281 236.609375 267.09375 237.90625 266.1875 Z M 237.90625 266.1875 " fill-opacity="1" fill-rule="nonzero"/><path fill="#defe47" d="M 271.402344 233.519531 C 277.257812 241.917969 275.203125 253.472656 266.816406 259.335938 C 258.429688 265.199219 246.886719 263.148438 241.03125 254.75 C 235.171875 246.351562 237.222656 234.792969 245.609375 228.929688 C 254 223.066406 265.542969 225.121094 271.402344 233.519531 Z M 271.402344 233.519531 " fill-opacity="1" fill-rule="nonzero"/><path fill="#0016ee" d="M 267.453125 260.246094 C 258.578125 266.453125 246.316406 264.269531 240.117188 255.382812 C 233.921875 246.503906 236.101562 234.222656 244.972656 228.019531 C 253.847656 221.816406 266.113281 223.996094 272.308594 232.882812 C 278.507812 241.769531 276.328125 254.042969 267.453125 260.246094 Z M 246.246094 229.84375 C 238.375 235.34375 236.445312 246.230469 241.9375 254.113281 C 247.433594 261.992188 258.3125 263.929688 266.183594 258.425781 C 274.050781 252.921875 275.988281 242.035156 270.488281 234.15625 C 264.992188 226.277344 254.121094 224.335938 246.246094 229.84375 Z M 246.246094 229.84375 " fill-opacity="1" fill-rule="nonzero"/><path fill="#0016ee" d="M 261.921875 252.320312 C 257.414062 255.472656 251.183594 254.363281 248.039062 249.851562 C 244.890625 245.335938 246 239.101562 250.503906 235.949219 C 255.015625 232.796875 261.242188 233.90625 264.390625 238.417969 C 267.539062 242.933594 266.429688 249.167969 261.921875 252.320312 Z M 251.777344 237.769531 C 248.273438 240.21875 247.414062 245.070312 249.859375 248.578125 C 252.308594 252.085938 257.148438 252.949219 260.652344 250.5 C 264.15625 248.046875 265.019531 243.199219 262.570312 239.691406 C 260.125 236.183594 255.28125 235.324219 251.777344 237.769531 Z M 251.777344 237.769531 " fill-opacity="1" fill-rule="nonzero"/><path fill="#defe47" d="M 229.957031 269.585938 C 229.957031 270.253906 229.890625 270.914062 229.761719 271.566406 C 229.632812 272.222656 229.4375 272.859375 229.183594 273.472656 C 228.929688 274.089844 228.617188 274.675781 228.246094 275.230469 C 227.875 275.785156 227.453125 276.296875 226.984375 276.769531 C 226.511719 277.242188 226 277.664062 225.445312 278.035156 C 224.890625 278.40625 224.304688 278.71875 223.691406 278.972656 C 223.074219 279.226562 222.441406 279.421875 221.785156 279.550781 C 221.132812 279.679688 220.472656 279.746094 219.804688 279.746094 C 219.140625 279.746094 218.480469 279.679688 217.828125 279.550781 C 217.171875 279.421875 216.539062 279.226562 215.921875 278.972656 C 215.304688 278.71875 214.722656 278.40625 214.167969 278.035156 C 213.613281 277.664062 213.101562 277.242188 212.628906 276.769531 C 212.160156 276.296875 211.738281 275.785156 211.367188 275.230469 C 210.996094 274.675781 210.683594 274.089844 210.429688 273.472656 C 210.175781 272.859375 209.980469 272.222656 209.851562 271.566406 C 209.722656 270.914062 209.65625 270.253906 209.65625 269.585938 C 209.65625 268.917969 209.722656 268.257812 209.851562 267.601562 C 209.980469 266.949219 210.175781 266.3125 210.429688 265.695312 C 210.683594 265.082031 210.996094 264.496094 211.367188 263.941406 C 211.738281 263.386719 212.160156 262.871094 212.628906 262.402344 C 213.101562 261.929688 213.613281 261.507812 214.167969 261.136719 C 214.722656 260.765625 215.304688 260.453125 215.921875 260.199219 C 216.539062 259.941406 217.171875 259.75 217.828125 259.621094 C 218.480469 259.488281 219.140625 259.425781 219.804688 259.425781 C 220.472656 259.425781 221.132812 259.488281 221.785156 259.621094 C 222.441406 259.75 223.074219 259.941406 223.691406 260.199219 C 224.304688 260.453125 224.890625 260.765625 225.445312 261.136719 C 226 261.507812 226.511719 261.929688 226.984375 262.402344 C 227.453125 262.871094 227.875 263.386719 228.246094 263.941406 C 228.617188 264.496094 228.929688 265.082031 229.183594 265.695312 C 229.4375 266.3125 229.632812 266.949219 229.761719 267.601562 C 229.890625 268.257812 229.957031 268.917969 229.957031 269.585938 Z M 229.957031 269.585938 " fill-opacity="1" fill-rule="nonzero"/><path fill="#0016ee" d="M 226.25 278.828125 C 221.160156 282.386719 214.128906 281.132812 210.570312 276.039062 C 207.019531 270.941406 208.265625 263.902344 213.359375 260.34375 C 218.449219 256.785156 225.480469 258.035156 229.035156 263.132812 C 232.59375 268.226562 231.339844 275.269531 226.25 278.828125 Z M 214.628906 262.164062 C 210.542969 265.023438 209.542969 270.675781 212.394531 274.765625 C 215.25 278.859375 220.894531 279.859375 224.976562 277.003906 C 229.066406 274.148438 230.070312 268.496094 227.214844 264.40625 C 224.363281 260.3125 218.71875 259.308594 214.628906 262.164062 Z M 214.628906 262.164062 " fill-opacity="1" fill-rule="nonzero"/><path fill="#defe47" d="M 199.644531 288.675781 C 199.644531 289.144531 199.597656 289.609375 199.507812 290.070312 C 199.414062 290.53125 199.28125 290.976562 199.101562 291.410156 C 198.921875 291.84375 198.699219 292.257812 198.441406 292.648438 C 198.179688 293.039062 197.882812 293.398438 197.550781 293.730469 C 197.21875 294.0625 196.859375 294.359375 196.46875 294.621094 C 196.078125 294.882812 195.667969 295.101562 195.234375 295.28125 C 194.800781 295.460938 194.351562 295.597656 193.894531 295.691406 C 193.433594 295.78125 192.96875 295.828125 192.5 295.828125 C 192.03125 295.828125 191.566406 295.78125 191.105469 295.691406 C 190.644531 295.597656 190.199219 295.460938 189.765625 295.28125 C 189.332031 295.101562 188.917969 294.882812 188.53125 294.621094 C 188.140625 294.359375 187.777344 294.0625 187.445312 293.730469 C 187.117188 293.398438 186.820312 293.039062 186.558594 292.648438 C 186.296875 292.257812 186.078125 291.84375 185.898438 291.410156 C 185.71875 290.976562 185.582031 290.53125 185.492188 290.070312 C 185.398438 289.609375 185.355469 289.144531 185.355469 288.675781 C 185.355469 288.203125 185.398438 287.738281 185.492188 287.277344 C 185.582031 286.816406 185.71875 286.371094 185.898438 285.9375 C 186.078125 285.503906 186.296875 285.089844 186.558594 284.699219 C 186.820312 284.308594 187.117188 283.949219 187.445312 283.617188 C 187.777344 283.285156 188.140625 282.988281 188.53125 282.726562 C 188.917969 282.464844 189.332031 282.246094 189.765625 282.066406 C 190.199219 281.886719 190.644531 281.75 191.105469 281.660156 C 191.566406 281.566406 192.03125 281.519531 192.5 281.519531 C 192.96875 281.519531 193.433594 281.566406 193.894531 281.660156 C 194.351562 281.75 194.800781 281.886719 195.234375 282.066406 C 195.667969 282.246094 196.078125 282.464844 196.46875 282.726562 C 196.859375 282.988281 197.21875 283.285156 197.550781 283.617188 C 197.882812 283.949219 198.179688 284.308594 198.441406 284.699219 C 198.699219 285.089844 198.921875 285.503906 199.101562 285.9375 C 199.28125 286.371094 199.414062 286.816406 199.507812 287.277344 C 199.597656 287.738281 199.644531 288.203125 199.644531 288.675781 Z M 199.644531 288.675781 " fill-opacity="1" fill-rule="nonzero"/><path fill="#0016ee" d="M 197.226562 295.449219 C 193.488281 298.058594 188.335938 297.140625 185.730469 293.402344 C 183.125 289.671875 184.042969 284.507812 187.773438 281.898438 C 191.507812 279.289062 196.660156 280.207031 199.269531 283.945312 C 201.871094 287.679688 200.957031 292.839844 197.226562 295.449219 Z M 189.042969 283.722656 C 186.316406 285.628906 185.648438 289.398438 187.550781 292.128906 C 189.457031 294.859375 193.226562 295.535156 195.953125 293.625 C 198.683594 291.71875 199.351562 287.945312 197.445312 285.214844 C 195.542969 282.484375 191.773438 281.8125 189.042969 283.722656 Z M 189.042969 283.722656 " fill-opacity="1" fill-rule="nonzero"/><path fill="#defe47" d="M 327.078125 199.59375 C 327.078125 200.066406 327.03125 200.53125 326.9375 200.992188 C 326.847656 201.453125 326.710938 201.898438 326.53125 202.332031 C 326.351562 202.765625 326.132812 203.179688 325.871094 203.570312 C 325.613281 203.960938 325.316406 204.320312 324.984375 204.652344 C 324.652344 204.984375 324.289062 205.28125 323.902344 205.542969 C 323.511719 205.804688 323.097656 206.023438 322.664062 206.203125 C 322.230469 206.382812 321.785156 206.519531 321.324219 206.609375 C 320.863281 206.703125 320.398438 206.75 319.929688 206.75 C 319.460938 206.75 318.996094 206.703125 318.535156 206.609375 C 318.078125 206.519531 317.628906 206.382812 317.195312 206.203125 C 316.761719 206.023438 316.351562 205.804688 315.960938 205.542969 C 315.570312 205.28125 315.210938 204.984375 314.878906 204.652344 C 314.546875 204.320312 314.25 203.960938 313.988281 203.570312 C 313.730469 203.179688 313.507812 202.765625 313.328125 202.332031 C 313.148438 201.898438 313.015625 201.453125 312.921875 200.992188 C 312.832031 200.53125 312.785156 200.066406 312.785156 199.59375 C 312.785156 199.125 312.832031 198.660156 312.921875 198.199219 C 313.015625 197.738281 313.148438 197.292969 313.328125 196.855469 C 313.507812 196.421875 313.730469 196.011719 313.988281 195.621094 C 314.25 195.230469 314.546875 194.867188 314.878906 194.535156 C 315.210938 194.203125 315.570312 193.90625 315.960938 193.648438 C 316.351562 193.386719 316.761719 193.164062 317.195312 192.984375 C 317.628906 192.804688 318.078125 192.671875 318.535156 192.578125 C 318.996094 192.488281 319.460938 192.441406 319.929688 192.441406 C 320.398438 192.441406 320.863281 192.488281 321.324219 192.578125 C 321.785156 192.671875 322.230469 192.804688 322.664062 192.984375 C 323.097656 193.164062 323.511719 193.386719 323.902344 193.648438 C 324.289062 193.90625 324.652344 194.203125 324.984375 194.535156 C 325.316406 194.867188 325.613281 195.230469 325.871094 195.621094 C 326.132812 196.011719 326.351562 196.421875 326.53125 196.855469 C 326.710938 197.292969 326.847656 197.738281 326.9375 198.199219 C 327.03125 198.660156 327.078125 199.125 327.078125 199.59375 Z M 327.078125 199.59375 " fill-opacity="1" fill-rule="nonzero"/><path fill="#0016ee" d="M 324.65625 206.367188 C 320.921875 208.976562 315.765625 208.0625 313.160156 204.324219 C 310.554688 200.589844 311.472656 195.429688 315.203125 192.816406 C 318.9375 190.207031 324.09375 191.125 326.695312 194.863281 C 329.300781 198.597656 328.386719 203.761719 324.65625 206.367188 Z M 316.476562 194.640625 C 313.75 196.550781 313.078125 200.320312 314.984375 203.050781 C 316.890625 205.78125 320.65625 206.457031 323.382812 204.546875 C 326.113281 202.640625 326.78125 198.867188 324.878906 196.136719 C 322.972656 193.40625 319.203125 192.734375 316.476562 194.640625 Z M 316.476562 194.640625 " fill-opacity="1" fill-rule="nonzero"/><path fill="#defe47" d="M 300.945312 212.867188 C 304.15625 217.46875 303.03125 223.800781 298.433594 227.011719 C 293.835938 230.226562 287.507812 229.101562 284.304688 224.5 C 281.09375 219.894531 282.214844 213.5625 286.8125 210.347656 C 291.410156 207.136719 297.734375 208.261719 300.945312 212.867188 Z M 300.945312 212.867188 " fill-opacity="1" fill-rule="nonzero"/><path fill="#0016ee" d="M 299.070312 227.925781 C 293.980469 231.484375 286.945312 230.234375 283.390625 225.136719 C 279.839844 220.039062 281.085938 213 286.175781 209.441406 C 291.265625 205.882812 298.300781 207.132812 301.855469 212.230469 C 305.410156 217.328125 304.160156 224.367188 299.070312 227.925781 Z M 287.449219 211.261719 C 283.363281 214.117188 282.359375 219.769531 285.210938 223.867188 C 288.0625 227.953125 293.710938 228.960938 297.796875 226.105469 C 301.882812 223.246094 302.890625 217.59375 300.035156 213.503906 C 297.183594 209.410156 291.535156 208.40625 287.449219 211.261719 Z M 287.449219 211.261719 " fill-opacity="1" fill-rule="nonzero"/><path fill="#0016ee" d="M 210.234375 90.382812 C 229.742188 118.359375 228.859375 178.621094 215.089844 188.246094 C 201.320312 197.871094 144.503906 177.941406 125 149.96875 C 105.488281 121.992188 120.902344 103.398438 144.4375 86.941406 C 167.972656 70.488281 190.722656 62.410156 210.234375 90.382812 Z M 210.234375 90.382812 " fill-opacity="1" fill-rule="nonzero"/><path fill="#ff6e27" d="M 212.453125 88.160156 C 231.960938 116.132812 231.078125 176.398438 217.308594 186.023438 C 203.539062 195.648438 146.726562 175.71875 127.21875 147.742188 C 107.707031 119.769531 123.121094 101.171875 146.65625 84.71875 C 170.195312 68.265625 192.941406 60.1875 212.453125 88.160156 Z M 212.453125 88.160156 " fill-opacity="1" fill-rule="nonzero"/><path fill="#0016ee" d="M 217.945312 186.9375 C 202.957031 197.414062 145.65625 176.125 126.308594 148.382812 C 105.324219 118.292969 124.5 98.855469 146.023438 83.808594 C 167.546875 68.761719 192.378906 57.4375 213.359375 87.523438 C 232.714844 115.269531 232.933594 176.457031 217.945312 186.9375 Z M 147.296875 85.632812 C 125.632812 100.773438 108.316406 118.703125 128.128906 147.105469 C 147.75 175.238281 203.925781 194.023438 216.675781 185.109375 C 229.425781 176.199219 231.164062 116.929688 211.542969 88.796875 C 191.734375 60.394531 168.957031 70.488281 147.296875 85.632812 Z M 147.296875 85.632812 " fill-opacity="1" fill-rule="nonzero"/><path fill="#0016ee" d="M 214.132812 181.46875 C 210.023438 184.339844 195.429688 183.332031 176.457031 175.816406 C 156.652344 167.96875 139.945312 156.285156 131.769531 144.5625 C 117.191406 123.65625 122.089844 108.675781 149.835938 89.277344 C 177.585938 69.878906 193.324219 70.441406 207.902344 91.339844 C 216.078125 103.0625 221.277344 122.792969 221.8125 144.113281 C 222.324219 164.53125 218.238281 178.597656 214.132812 181.46875 Z M 151.109375 91.101562 C 124.6875 109.570312 119.9375 123.714844 133.589844 143.289062 C 141.527344 154.667969 157.859375 166.054688 177.28125 173.75 C 196.441406 181.34375 209.84375 181.757812 212.863281 179.644531 C 215.882812 177.53125 220.113281 164.796875 219.59375 144.167969 C 219.070312 123.265625 214.019531 103.996094 206.085938 92.613281 C 192.429688 73.039062 177.53125 72.628906 151.109375 91.101562 Z M 151.109375 91.101562 " fill-opacity="1" fill-rule="nonzero"/><path fill="#defe47" d="M 136.589844 125.027344 L 189.386719 88.121094 L 208.453125 115.457031 L 155.65625 152.363281 Z M 136.589844 125.027344 " fill-opacity="1" fill-rule="nonzero"/><path fill="#0016ee" d="M 210 115.734375 L 155.386719 153.914062 L 135.050781 124.753906 L 189.660156 86.574219 Z M 155.933594 150.816406 L 206.90625 115.183594 L 189.113281 89.671875 L 138.140625 125.300781 Z M 155.933594 150.816406 " fill-opacity="1" fill-rule="nonzero"/><path fill="#fe00fe" d="M 171.722656 92.335938 L 146.238281 110.152344 C 144.730469 111.207031 142.65625 110.839844 141.601562 109.328125 C 140.546875 107.820312 140.917969 105.742188 142.421875 104.6875 L 167.910156 86.871094 C 169.414062 85.816406 171.492188 86.183594 172.546875 87.695312 C 173.597656 89.203125 173.230469 91.285156 171.722656 92.335938 Z M 171.722656 92.335938 " fill-opacity="1" fill-rule="nonzero"/><path fill="#0016ee" d="M 172.359375 93.25 L 146.875 111.0625 C 144.867188 112.46875 142.089844 111.972656 140.6875 109.964844 C 139.285156 107.953125 139.777344 105.175781 141.789062 103.773438 L 167.273438 85.957031 C 169.28125 84.554688 172.054688 85.046875 173.457031 87.058594 C 174.859375 89.066406 174.367188 91.84375 172.359375 93.25 Z M 143.058594 105.597656 C 142.054688 106.296875 141.808594 107.6875 142.511719 108.691406 C 143.210938 109.699219 144.597656 109.945312 145.601562 109.242188 L 171.085938 91.425781 C 172.089844 90.722656 172.339844 89.335938 171.636719 88.332031 C 170.9375 87.328125 169.546875 87.078125 168.542969 87.78125 Z M 143.058594 105.597656 " fill-opacity="1" fill-rule="nonzero"/><path fill="#fe00fe" d="M 206.839844 158.933594 C 206.839844 159.519531 206.785156 160.097656 206.667969 160.671875 C 206.554688 161.246094 206.386719 161.804688 206.164062 162.34375 C 205.9375 162.882812 205.664062 163.398438 205.339844 163.882812 C 205.015625 164.371094 204.648438 164.820312 204.234375 165.234375 C 203.820312 165.648438 203.371094 166.019531 202.882812 166.34375 C 202.398438 166.667969 201.886719 166.941406 201.347656 167.167969 C 200.804688 167.390625 200.25 167.558594 199.675781 167.671875 C 199.101562 167.789062 198.523438 167.84375 197.941406 167.84375 C 197.355469 167.84375 196.777344 167.789062 196.203125 167.671875 C 195.628906 167.558594 195.074219 167.390625 194.535156 167.167969 C 193.992188 166.941406 193.480469 166.667969 192.996094 166.34375 C 192.507812 166.019531 192.058594 165.648438 191.644531 165.234375 C 191.234375 164.820312 190.863281 164.371094 190.539062 163.882812 C 190.214844 163.398438 189.941406 162.882812 189.71875 162.34375 C 189.492188 161.804688 189.324219 161.246094 189.210938 160.671875 C 189.097656 160.097656 189.039062 159.519531 189.039062 158.933594 C 189.039062 158.347656 189.097656 157.769531 189.210938 157.195312 C 189.324219 156.621094 189.492188 156.066406 189.71875 155.523438 C 189.941406 154.984375 190.214844 154.46875 190.539062 153.984375 C 190.863281 153.496094 191.234375 153.046875 191.644531 152.632812 C 192.058594 152.21875 192.507812 151.851562 192.996094 151.523438 C 193.480469 151.199219 193.992188 150.925781 194.535156 150.703125 C 195.074219 150.476562 195.628906 150.308594 196.203125 150.195312 C 196.777344 150.082031 197.355469 150.023438 197.941406 150.023438 C 198.523438 150.023438 199.101562 150.082031 199.675781 150.195312 C 200.25 150.308594 200.804688 150.476562 201.347656 150.703125 C 201.886719 150.925781 202.398438 151.199219 202.882812 151.523438 C 203.371094 151.851562 203.820312 152.21875 204.234375 152.632812 C 204.648438 153.046875 205.015625 153.496094 205.339844 153.984375 C 205.664062 154.46875 205.9375 154.984375 206.164062 155.523438 C 206.386719 156.066406 206.554688 156.621094 206.667969 157.195312 C 206.785156 157.769531 206.839844 158.347656 206.839844 158.933594 Z M 206.839844 158.933594 " fill-opacity="1" fill-rule="nonzero"/><path fill="#0016ee" d="M 203.671875 167.152344 C 199.144531 170.316406 192.890625 169.203125 189.730469 164.671875 C 186.570312 160.140625 187.679688 153.878906 192.207031 150.714844 C 196.734375 147.550781 202.988281 148.664062 206.148438 153.195312 C 209.308594 157.726562 208.195312 163.988281 203.671875 167.152344 Z M 193.480469 152.539062 C 189.960938 155.003906 189.09375 159.875 191.554688 163.398438 C 194.011719 166.925781 198.878906 167.792969 202.402344 165.328125 C 205.921875 162.867188 206.789062 157.996094 204.328125 154.46875 C 201.867188 150.941406 197 150.078125 193.480469 152.539062 Z M 193.480469 152.539062 " fill-opacity="1" fill-rule="nonzero"/><path fill="#ffffff" d="M 102.371094 198.101562 C 98.851562 195.507812 96.5 189.640625 95.601562 186.566406 C 94.113281 181.515625 94.710938 175.441406 96.46875 170.539062 C 97.867188 166.640625 105.011719 157.304688 109.605469 163.730469 C 112.082031 167.195312 108.484375 173.527344 108.230469 177.316406 C 107.878906 182.574219 109.242188 187.820312 110.789062 192.789062 C 111.632812 195.5 109.84375 198.691406 107.0625 199.273438 C 105.328125 199.640625 103.761719 199.121094 102.371094 198.101562 Z M 102.371094 198.101562 " fill-opacity="1" fill-rule="nonzero"/><path fill="#0016ee" d="M 105.960938 200.503906 C 104.503906 200.503906 103.074219 199.996094 101.714844 198.996094 C 97.300781 195.742188 94.960938 188.332031 94.539062 186.878906 C 93.09375 181.984375 93.425781 175.734375 95.421875 170.164062 C 96.417969 167.394531 100.992188 160.425781 105.90625 160.425781 C 107.136719 160.425781 108.933594 160.886719 110.503906 163.085938 C 112.476562 165.84375 111.324219 169.765625 110.304688 173.226562 C 109.84375 174.785156 109.410156 176.257812 109.335938 177.394531 C 109 182.453125 110.34375 187.625 111.84375 192.460938 C 112.347656 194.078125 112.113281 195.898438 111.203125 197.453125 C 110.316406 198.964844 108.886719 200.027344 107.285156 200.363281 C 106.84375 200.457031 106.398438 200.503906 105.960938 200.503906 Z M 105.910156 162.648438 C 102.59375 162.648438 98.53125 168.078125 97.519531 170.917969 C 95.671875 176.058594 95.355469 181.792969 96.667969 186.253906 C 97.742188 189.933594 100.054688 195.011719 103.03125 197.207031 C 104.296875 198.136719 105.539062 198.464844 106.832031 198.1875 C 107.824219 197.980469 108.722656 197.300781 109.292969 196.324219 C 109.886719 195.3125 110.046875 194.140625 109.726562 193.117188 C 108.160156 188.078125 106.765625 182.667969 107.121094 177.242188 C 107.214844 175.863281 107.683594 174.273438 108.175781 172.59375 C 109.050781 169.625 110.042969 166.257812 108.703125 164.378906 C 107.867188 163.214844 106.953125 162.648438 105.910156 162.648438 Z M 105.910156 162.648438 " fill-opacity="1" fill-rule="nonzero"/><path fill="#ffffff" d="M 328.976562 141.398438 C 332.558594 143.894531 335.070312 149.683594 336.046875 152.726562 C 337.667969 157.738281 337.242188 163.816406 335.613281 168.761719 C 334.320312 172.691406 327.433594 182.222656 322.671875 175.929688 C 320.105469 172.539062 323.527344 166.117188 323.683594 162.324219 C 323.886719 157.066406 322.382812 151.859375 320.714844 146.941406 C 319.796875 144.257812 321.496094 141.023438 324.257812 140.359375 C 325.980469 139.945312 327.558594 140.414062 328.976562 141.398438 Z M 328.976562 141.398438 " fill-opacity="1" fill-rule="nonzero"/><path fill="#0016ee" d="M 326.3125 179.136719 C 324.582031 179.136719 323.0625 178.28125 321.789062 176.601562 C 319.742188 173.902344 320.792969 169.953125 321.71875 166.46875 C 322.136719 164.898438 322.53125 163.414062 322.574219 162.28125 C 322.769531 157.21875 321.289062 152.09375 319.664062 147.304688 C 319.117188 145.703125 319.300781 143.878906 320.164062 142.300781 C 321.007812 140.761719 322.40625 139.660156 324 139.277344 C 325.886719 138.828125 327.808594 139.234375 329.609375 140.484375 C 334.109375 143.617188 336.640625 150.949219 337.101562 152.386719 C 338.675781 157.25 338.511719 163.507812 336.664062 169.109375 C 335.730469 171.964844 331.269531 179.136719 326.3125 179.136719 Z M 325.507812 141.320312 C 325.179688 141.320312 324.847656 141.363281 324.515625 141.441406 C 323.53125 141.675781 322.652344 142.382812 322.109375 143.371094 C 321.546875 144.402344 321.417969 145.574219 321.765625 146.585938 C 323.460938 151.582031 325.003906 156.945312 324.796875 162.371094 C 324.738281 163.753906 324.3125 165.351562 323.863281 167.042969 C 323.066406 170.039062 322.167969 173.425781 323.558594 175.261719 C 324.398438 176.375 325.300781 176.914062 326.3125 176.914062 C 329.640625 176.914062 333.597656 171.335938 334.558594 168.421875 C 336.261719 163.246094 336.425781 157.507812 334.992188 153.074219 C 333.820312 149.429688 331.375 144.429688 328.339844 142.316406 C 327.394531 141.65625 326.445312 141.320312 325.507812 141.320312 Z M 325.507812 141.320312 " fill-opacity="1" fill-rule="nonzero"/><path fill="#0016ee" d="M 14.585938 273.136719 C 14.585938 273.136719 17.105469 272.808594 18.929688 272.460938 C 20.746094 272.109375 25.753906 270.394531 29.078125 271.972656 C 32.390625 273.554688 33.40625 280.421875 32.019531 284.546875 C 30.636719 288.675781 27.652344 293.8125 19.671875 299.984375 C 11.695312 306.15625 9.066406 302.839844 7.660156 301.042969 C 6.253906 299.253906 5.480469 293.597656 3.394531 288.046875 C 1.3125 282.492188 4.839844 276.976562 7.039062 275.296875 C 9.226562 273.617188 13.519531 270.691406 19.339844 266.6875 C 27.164062 261.308594 31.398438 259.5 33.410156 259.273438 C 35.421875 259.050781 37.628906 262.917969 37.636719 264.148438 C 37.648438 265.382812 29.96875 272.570312 29.96875 272.570312 " fill-opacity="1" fill-rule="nonzero"/><path fill="#defe47" d="M 32.867188 278.242188 C 32.203125 274.011719 22.730469 276.207031 13.652344 287.59375 C 4.902344 298.589844 9.359375 303.007812 9.730469 303.371094 C 8.730469 302.839844 8.121094 301.839844 7.621094 301.214844 C 6.222656 299.425781 5.464844 293.695312 3.375 288.128906 C 1.289062 282.578125 4.835938 277.023438 7.019531 275.34375 C 9.226562 273.65625 13.519531 270.707031 19.339844 266.707031 C 27.164062 261.339844 31.398438 259.5 33.40625 259.273438 C 35.417969 259.0625 37.625 262.90625 37.636719 264.144531 C 37.648438 265.382812 30.242188 271.707031 30.242188 271.707031 C 30.242188 271.707031 32.539062 275.914062 32.867188 278.242188 Z M 32.867188 278.242188 " fill-opacity="1" fill-rule="nonzero"/><path fill="#0016ee" d="M 9.808594 304.074219 C 9.527344 304.074219 9.246094 303.96875 9.027344 303.753906 C 8.449219 303.179688 3.617188 297.796875 12.949219 286.082031 C 20.292969 276.863281 27.398438 273.664062 30.902344 274.589844 C 32.304688 274.960938 33.234375 275.988281 33.460938 277.402344 C 33.554688 278.007812 33.140625 278.574219 32.539062 278.671875 C 31.9375 278.757812 31.363281 278.355469 31.265625 277.746094 C 31.179688 277.199219 30.894531 276.886719 30.335938 276.738281 C 28.066406 276.125 21.808594 278.523438 14.683594 287.464844 C 6.429688 297.839844 10.546875 302.128906 10.59375 302.171875 C 11.027344 302.601562 11.035156 303.304688 10.601562 303.742188 C 10.382812 303.964844 10.09375 304.074219 9.808594 304.074219 Z M 9.808594 304.074219 " fill-opacity="1" fill-rule="nonzero"/><path fill="#0016ee" d="M 11.929688 304.65625 C 9.074219 304.65625 7.605469 302.777344 6.785156 301.730469 C 5.863281 300.554688 5.261719 298.300781 4.496094 295.449219 C 3.917969 293.292969 3.265625 290.851562 2.359375 288.433594 C -0.0351562 282.058594 4.109375 276.132812 6.363281 274.410156 C 8.285156 272.9375 11.714844 270.578125 16.464844 267.316406 L 18.710938 265.773438 C 25.5 261.105469 30.542969 258.476562 33.289062 258.171875 C 33.886719 258.097656 34.894531 258.226562 36.035156 259.242188 C 37.445312 260.496094 38.742188 262.832031 38.75 264.140625 C 38.75 264.597656 38.761719 265.777344 31.53125 272.628906 C 33.894531 275.714844 34.234375 281.449219 33.074219 284.902344 C 31.183594 290.539062 27.144531 295.617188 20.355469 300.867188 C 16.671875 303.710938 13.953125 304.65625 11.929688 304.65625 Z M 33.582031 260.375 C 33.566406 260.375 33.550781 260.378906 33.535156 260.378906 C 32.433594 260.5 28.917969 261.449219 19.96875 267.601562 L 17.71875 269.144531 C 12.996094 272.390625 9.585938 274.738281 7.710938 276.175781 C 5.71875 277.699219 2.609375 282.789062 4.4375 287.652344 C 5.382812 290.171875 6.050781 292.667969 6.640625 294.875 C 7.28125 297.273438 7.890625 299.539062 8.535156 300.355469 C 9.859375 302.054688 11.871094 304.621094 18.996094 299.105469 C 27.433594 292.574219 29.871094 287.464844 30.96875 284.191406 C 32.097656 280.820312 31.425781 275.378906 29.296875 273.449219 C 29.261719 273.421875 29.226562 273.394531 29.195312 273.363281 C 29.003906 273.203125 28.808594 273.074219 28.601562 272.972656 C 26.1875 271.828125 22.53125 272.730469 20.347656 273.269531 C 19.867188 273.386719 19.457031 273.488281 19.140625 273.550781 C 17.285156 273.902344 14.726562 274.238281 14.726562 274.238281 L 14.441406 272.035156 C 14.449219 272.03125 16.925781 271.707031 18.71875 271.367188 C 19.007812 271.3125 19.378906 271.21875 19.816406 271.109375 C 22.285156 270.5 26.429688 269.480469 29.554688 270.96875 C 29.660156 271.019531 29.765625 271.074219 29.871094 271.132812 C 32.96875 268.191406 36.246094 264.78125 36.554688 263.957031 C 36.515625 263.691406 35.667969 261.867188 34.535156 260.878906 C 34.171875 260.5625 33.820312 260.375 33.582031 260.375 Z M 33.582031 260.375 " fill-opacity="1" fill-rule="nonzero"/><path fill="#ffffff" d="M 10.695312 299.355469 C 10.207031 298.320312 10.363281 296.738281 10.515625 295.957031 C 10.777344 294.667969 11.617188 293.441406 12.589844 292.625 C 13.363281 291.972656 16.054688 290.933594 16.335938 292.9375 C 16.488281 294.011719 14.941406 294.890625 14.4375 295.671875 C 13.746094 296.757812 13.441406 298.070312 13.210938 299.351562 C 13.082031 300.046875 12.308594 300.488281 11.613281 300.242188 C 11.179688 300.085938 10.886719 299.765625 10.695312 299.355469 Z M 10.695312 299.355469 " fill-opacity="1" fill-rule="nonzero"/><path fill="#0016ee" d="M 47.421875 303.941406 C 47.421875 303.941406 49.285156 302.210938 50.566406 300.871094 C 51.847656 299.527344 54.933594 295.222656 58.550781 294.582031 C 62.167969 293.949219 66.96875 298.953125 68.226562 303.121094 C 69.488281 307.292969 70.035156 313.207031 67.109375 322.867188 C 64.183594 332.527344 60.117188 331.347656 57.9375 330.699219 C 55.75 330.058594 51.851562 325.898438 46.941406 322.582031 C 42.035156 319.261719 41.707031 312.722656 42.527344 310.082031 C 43.34375 307.4375 45.140625 302.566406 47.566406 295.925781 C 50.824219 287 53.226562 283.070312 54.738281 281.71875 C 56.242188 280.367188 60.277344 282.238281 61 283.238281 C 61.722656 284.238281 59.628906 294.550781 59.628906 294.550781 " fill-opacity="1" fill-rule="nonzero"/><path fill="#defe47" d="M 65.269531 297.492188 C 62.28125 294.433594 55.832031 301.714844 55.03125 316.265625 C 54.269531 330.304688 60.460938 331.316406 60.972656 331.398438 C 59.851562 331.542969 58.773438 331.082031 58.007812 330.855469 C 55.828125 330.21875 51.894531 325.980469 46.96875 322.664062 C 42.0625 319.351562 41.730469 312.765625 42.542969 310.132812 C 43.367188 307.472656 45.148438 302.582031 47.578125 295.945312 C 50.84375 287.03125 53.230469 283.078125 54.734375 281.726562 C 56.246094 280.386719 60.273438 282.238281 61 283.238281 C 61.722656 284.242188 59.351562 293.695312 59.351562 293.695312 C 59.351562 293.695312 63.652344 295.789062 65.269531 297.492188 Z M 65.269531 297.492188 " fill-opacity="1" fill-rule="nonzero"/><path fill="#0016ee" d="M 60.800781 332.125 C 60.742188 332.125 60.683594 332.121094 60.625 332.113281 C 59.816406 331.984375 52.761719 330.441406 53.578125 315.441406 C 54.226562 303.667969 58.167969 296.933594 61.554688 295.65625 C 62.914062 295.148438 64.265625 295.445312 65.261719 296.46875 C 65.691406 296.90625 65.679688 297.609375 65.246094 298.039062 C 64.804688 298.46875 64.105469 298.457031 63.675781 298.019531 C 63.289062 297.621094 62.875 297.535156 62.335938 297.738281 C 60.140625 298.5625 56.425781 304.132812 55.796875 315.5625 C 55.074219 328.816406 60.910156 329.90625 60.96875 329.914062 C 61.574219 330.011719 61.988281 330.582031 61.890625 331.1875 C 61.804688 331.734375 61.335938 332.125 60.800781 332.125 Z M 60.800781 332.125 " fill-opacity="1" fill-rule="nonzero"/><path fill="#0016ee" d="M 60.226562 332.230469 C 59.183594 332.230469 58.273438 331.960938 57.625 331.769531 C 56.191406 331.347656 54.394531 329.859375 52.121094 327.980469 C 50.402344 326.558594 48.457031 324.949219 46.320312 323.503906 C 40.675781 319.695312 40.625 312.464844 41.464844 309.753906 C 42.1875 307.414062 43.636719 303.441406 45.640625 297.941406 L 46.519531 295.542969 C 49.347656 287.804688 51.929688 282.738281 53.996094 280.890625 C 54.464844 280.472656 55.328125 280.007812 56.84375 280.167969 C 58.71875 280.371094 61.128906 281.523438 61.898438 282.585938 C 62.164062 282.960938 62.847656 283.917969 60.925781 293.691406 C 64.636719 294.835938 68.234375 299.316406 69.285156 302.800781 C 71.007812 308.496094 70.65625 314.976562 68.167969 323.191406 C 65.886719 330.730469 62.6875 332.230469 60.226562 332.230469 Z M 56.242188 282.359375 C 55.886719 282.359375 55.613281 282.425781 55.472656 282.546875 C 54.652344 283.285156 52.332031 286.101562 48.605469 296.308594 L 47.730469 298.703125 C 45.730469 304.171875 44.292969 308.121094 43.585938 310.410156 C 42.84375 312.804688 43.25 318.75 47.558594 321.660156 C 49.789062 323.167969 51.777344 324.8125 53.535156 326.265625 C 55.445312 327.847656 57.253906 329.34375 58.25 329.632812 C 60.316406 330.246094 63.429688 331.171875 66.046875 322.546875 C 69.136719 312.332031 68.164062 306.753906 67.164062 303.445312 C 66.136719 300.050781 62.464844 296.023438 59.613281 295.664062 C 59.550781 295.664062 59.484375 295.660156 59.421875 295.648438 C 59.183594 295.628906 58.964844 295.640625 58.742188 295.679688 C 56.121094 296.140625 53.667969 298.992188 52.203125 300.695312 C 51.875 301.078125 51.59375 301.402344 51.367188 301.640625 C 50.066406 303 48.179688 304.753906 48.179688 304.753906 L 46.667969 303.125 C 46.675781 303.121094 48.503906 301.417969 49.761719 300.101562 C 49.96875 299.886719 50.222656 299.589844 50.523438 299.246094 C 52.179688 297.316406 54.960938 294.089844 58.359375 293.488281 C 58.476562 293.46875 58.59375 293.453125 58.714844 293.441406 C 59.535156 289.242188 60.230469 284.558594 60.003906 283.714844 C 59.820312 283.519531 58.070312 282.527344 56.578125 282.375 C 56.460938 282.363281 56.351562 282.359375 56.242188 282.359375 Z M 56.242188 282.359375 " fill-opacity="1" fill-rule="nonzero"/><path fill="#ffffff" d="M 60.066406 327.699219 C 59 327.183594 58.113281 325.871094 57.738281 325.175781 C 57.132812 324.023438 57.046875 322.574219 57.332031 321.367188 C 57.558594 320.402344 59.140625 317.992188 60.660156 319.378906 C 61.480469 320.121094 60.75 321.722656 60.832031 322.621094 C 60.949219 323.875 61.539062 325.070312 62.164062 326.199219 C 62.503906 326.816406 62.144531 327.621094 61.402344 327.839844 C 60.941406 327.976562 60.488281 327.902344 60.066406 327.699219 Z M 60.066406 327.699219 " fill-opacity="1" fill-rule="nonzero"/></svg>