<svg xmlns="http://www.w3.org/2000/svg" xmlns:xlink="http://www.w3.org/1999/xlink" width="500" zoomAndPan="magnify" viewBox="0 0 375 374.999991" height="500" preserveAspectRatio="xMidYMid meet" version="1.0"><defs><clipPath id="03b223afb4"><path d="M 11 3 L 353 3 L 353 375 L 11 375 Z M 11 3 " clip-rule="nonzero"/></clipPath><clipPath id="1ce9868cf0"><path d="M 1.785156 90.808594 L 263.703125 -7.46875 L 373.050781 283.941406 L 111.132812 382.21875 Z M 1.785156 90.808594 " clip-rule="nonzero"/></clipPath><clipPath id="86129bb4fe"><path d="M 1.785156 90.808594 L 263.703125 -7.46875 L 373.050781 283.941406 L 111.132812 382.21875 Z M 1.785156 90.808594 " clip-rule="nonzero"/></clipPath><clipPath id="46e297a611"><path d="M 24 8 L 362 8 L 362 374 L 24 374 Z M 24 8 " clip-rule="nonzero"/></clipPath><clipPath id="179e5fb550"><path d="M 1.785156 90.808594 L 263.703125 -7.46875 L 373.050781 283.941406 L 111.132812 382.21875 Z M 1.785156 90.808594 " clip-rule="nonzero"/></clipPath><clipPath id="b16fc9a324"><path d="M 1.785156 90.808594 L 263.703125 -7.46875 L 373.050781 283.941406 L 111.132812 382.21875 Z M 1.785156 90.808594 " clip-rule="nonzero"/></clipPath><clipPath id="1098d2358c"><path d="M 96 133 L 331 133 L 331 363 L 96 363 Z M 96 133 " clip-rule="nonzero"/></clipPath><clipPath id="a41ea3bc6b"><path d="M 1.785156 90.808594 L 263.703125 -7.46875 L 373.050781 283.941406 L 111.132812 382.21875 Z M 1.785156 90.808594 " clip-rule="nonzero"/></clipPath><clipPath id="ab01e06cb3"><path d="M 1.785156 90.808594 L 263.703125 -7.46875 L 373.050781 283.941406 L 111.132812 382.21875 Z M 1.785156 90.808594 " clip-rule="nonzero"/></clipPath><clipPath id="2ce0ea358e"><path d="M 95 132 L 332 132 L 332 364 L 95 364 Z M 95 132 " clip-rule="nonzero"/></clipPath><clipPath id="6d4a542102"><path d="M 1.785156 90.808594 L 263.703125 -7.46875 L 373.050781 283.941406 L 111.132812 382.21875 Z M 1.785156 90.808594 " clip-rule="nonzero"/></clipPath><clipPath id="920de534ff"><path d="M 1.785156 90.808594 L 263.703125 -7.46875 L 373.050781 283.941406 L 111.132812 382.21875 Z M 1.785156 90.808594 " clip-rule="nonzero"/></clipPath><clipPath id="0904d19d9e"><path d="M 50 27 L 256 27 L 256 199 L 50 199 Z M 50 27 " clip-rule="nonzero"/></clipPath><clipPath id="5b899e60a7"><path d="M 1.785156 90.808594 L 263.703125 -7.46875 L 373.050781 283.941406 L 111.132812 382.21875 Z M 1.785156 90.808594 " clip-rule="nonzero"/></clipPath><clipPath id="4a17dcfda3"><path d="M 1.785156 90.808594 L 263.703125 -7.46875 L 373.050781 283.941406 L 111.132812 382.21875 Z M 1.785156 90.808594 " clip-rule="nonzero"/></clipPath><clipPath id="b6dbe9415c"><path d="M 38 115 L 55 115 L 55 142 L 38 142 Z M 38 115 " clip-rule="nonzero"/></clipPath><clipPath id="8631e616d2"><path d="M 1.785156 90.808594 L 263.703125 -7.46875 L 373.050781 283.941406 L 111.132812 382.21875 Z M 1.785156 90.808594 " clip-rule="nonzero"/></clipPath><clipPath id="25c202f374"><path d="M 1.785156 90.808594 L 263.703125 -7.46875 L 373.050781 283.941406 L 111.132812 382.21875 Z M 1.785156 90.808594 " clip-rule="nonzero"/></clipPath><clipPath id="5e2e52da42"><path d="M 37 117 L 54 117 L 54 141 L 37 141 Z M 37 117 " clip-rule="nonzero"/></clipPath><clipPath id="73411ac80c"><path d="M 1.785156 90.808594 L 263.703125 -7.46875 L 373.050781 283.941406 L 111.132812 382.21875 Z M 1.785156 90.808594 " clip-rule="nonzero"/></clipPath><clipPath id="9376771fcc"><path d="M 1.785156 90.808594 L 263.703125 -7.46875 L 373.050781 283.941406 L 111.132812 382.21875 Z M 1.785156 90.808594 " clip-rule="nonzero"/></clipPath><clipPath id="8555440530"><path d="M 112 150 L 270 150 L 270 228 L 112 228 Z M 112 150 " clip-rule="nonzero"/></clipPath><clipPath id="eaafeefe1d"><path d="M 1.785156 90.808594 L 263.703125 -7.46875 L 373.050781 283.941406 L 111.132812 382.21875 Z M 1.785156 90.808594 " clip-rule="nonzero"/></clipPath><clipPath id="43911c66ab"><path d="M 1.785156 90.808594 L 263.703125 -7.46875 L 373.050781 283.941406 L 111.132812 382.21875 Z M 1.785156 90.808594 " clip-rule="nonzero"/></clipPath><clipPath id="318ba0863e"><path d="M 116 161 L 274 161 L 274 238 L 116 238 Z M 116 161 " clip-rule="nonzero"/></clipPath><clipPath id="35d6ac14da"><path d="M 1.785156 90.808594 L 263.703125 -7.46875 L 373.050781 283.941406 L 111.132812 382.21875 Z M 1.785156 90.808594 " clip-rule="nonzero"/></clipPath><clipPath id="b491f0faf8"><path d="M 1.785156 90.808594 L 263.703125 -7.46875 L 373.050781 283.941406 L 111.132812 382.21875 Z M 1.785156 90.808594 " clip-rule="nonzero"/></clipPath><clipPath id="f4d5563f2e"><path d="M 142 230 L 300 230 L 300 308 L 142 308 Z M 142 230 " clip-rule="nonzero"/></clipPath><clipPath id="2d9f60332f"><path d="M 1.785156 90.808594 L 263.703125 -7.46875 L 373.050781 283.941406 L 111.132812 382.21875 Z M 1.785156 90.808594 " clip-rule="nonzero"/></clipPath><clipPath id="19b3608388"><path d="M 1.785156 90.808594 L 263.703125 -7.46875 L 373.050781 283.941406 L 111.132812 382.21875 Z M 1.785156 90.808594 " clip-rule="nonzero"/></clipPath><clipPath id="22d4a1091d"><path d="M 147 243 L 304 243 L 304 320 L 147 320 Z M 147 243 " clip-rule="nonzero"/></clipPath><clipPath id="1c6d8a6f84"><path d="M 1.785156 90.808594 L 263.703125 -7.46875 L 373.050781 283.941406 L 111.132812 382.21875 Z M 1.785156 90.808594 " clip-rule="nonzero"/></clipPath><clipPath id="86c7907615"><path d="M 1.785156 90.808594 L 263.703125 -7.46875 L 373.050781 283.941406 L 111.132812 382.21875 Z M 1.785156 90.808594 " clip-rule="nonzero"/></clipPath><clipPath id="3dfdb88e0e"><path d="M 327 237 L 348 237 L 348 260 L 327 260 Z M 327 237 " clip-rule="nonzero"/></clipPath><clipPath id="a6048eb549"><path d="M 1.785156 90.808594 L 263.703125 -7.46875 L 373.050781 283.941406 L 111.132812 382.21875 Z M 1.785156 90.808594 " clip-rule="nonzero"/></clipPath><clipPath id="56f07c5e96"><path d="M 1.785156 90.808594 L 263.703125 -7.46875 L 373.050781 283.941406 L 111.132812 382.21875 Z M 1.785156 90.808594 " clip-rule="nonzero"/></clipPath><clipPath id="186152172a"><path d="M 326 237 L 349 237 L 349 261 L 326 261 Z M 326 237 " clip-rule="nonzero"/></clipPath><clipPath id="57563ab968"><path d="M 1.785156 90.808594 L 263.703125 -7.46875 L 373.050781 283.941406 L 111.132812 382.21875 Z M 1.785156 90.808594 " clip-rule="nonzero"/></clipPath><clipPath id="2b61a351e0"><path d="M 1.785156 90.808594 L 263.703125 -7.46875 L 373.050781 283.941406 L 111.132812 382.21875 Z M 1.785156 90.808594 " clip-rule="nonzero"/></clipPath><clipPath id="a53b74d1f5"><path d="M 117 339 L 138 339 L 138 362 L 117 362 Z M 117 339 " clip-rule="nonzero"/></clipPath><clipPath id="83aadf2c12"><path d="M 1.785156 90.808594 L 263.703125 -7.46875 L 373.050781 283.941406 L 111.132812 382.21875 Z M 1.785156 90.808594 " clip-rule="nonzero"/></clipPath><clipPath id="b4c8af4580"><path d="M 1.785156 90.808594 L 263.703125 -7.46875 L 373.050781 283.941406 L 111.132812 382.21875 Z M 1.785156 90.808594 " clip-rule="nonzero"/></clipPath><clipPath id="e56e15e58d"><path d="M 116 338 L 138 338 L 138 362 L 116 362 Z M 116 338 " clip-rule="nonzero"/></clipPath><clipPath id="22d961add0"><path d="M 1.785156 90.808594 L 263.703125 -7.46875 L 373.050781 283.941406 L 111.132812 382.21875 Z M 1.785156 90.808594 " clip-rule="nonzero"/></clipPath><clipPath id="f3c5927774"><path d="M 1.785156 90.808594 L 263.703125 -7.46875 L 373.050781 283.941406 L 111.132812 382.21875 Z M 1.785156 90.808594 " clip-rule="nonzero"/></clipPath><clipPath id="a9cf4b7dfd"><path d="M 21 6 L 362 6 L 362 375 L 21 375 Z M 21 6 " clip-rule="nonzero"/></clipPath><clipPath id="9da4336699"><path d="M 1.785156 90.808594 L 263.703125 -7.46875 L 373.050781 283.941406 L 111.132812 382.21875 Z M 1.785156 90.808594 " clip-rule="nonzero"/></clipPath><clipPath id="87ecd5e2b6"><path d="M 1.785156 90.808594 L 263.703125 -7.46875 L 373.050781 283.941406 L 111.132812 382.21875 Z M 1.785156 90.808594 " clip-rule="nonzero"/></clipPath><clipPath id="fd6788bf2f"><path d="M 72 21 L 255 21 L 255 188 L 72 188 Z M 72 21 " clip-rule="nonzero"/></clipPath><clipPath id="1c80e962e9"><path d="M 1.785156 90.808594 L 263.703125 -7.46875 L 373.050781 283.941406 L 111.132812 382.21875 Z M 1.785156 90.808594 " clip-rule="nonzero"/></clipPath><clipPath id="1cd101cd54"><path d="M 1.785156 90.808594 L 263.703125 -7.46875 L 373.050781 283.941406 L 111.132812 382.21875 Z M 1.785156 90.808594 " clip-rule="nonzero"/></clipPath><clipPath id="ac19c02071"><path d="M 104 65 L 159 65 L 159 174 L 104 174 Z M 104 65 " clip-rule="nonzero"/></clipPath><clipPath id="7ad5e1a207"><path d="M 1.785156 90.808594 L 263.703125 -7.46875 L 373.050781 283.941406 L 111.132812 382.21875 Z M 1.785156 90.808594 " clip-rule="nonzero"/></clipPath><clipPath id="fa50d8f954"><path d="M 1.785156 90.808594 L 263.703125 -7.46875 L 373.050781 283.941406 L 111.132812 382.21875 Z M 1.785156 90.808594 " clip-rule="nonzero"/></clipPath><clipPath id="ed2bd16057"><path d="M 71 19 L 256 19 L 256 190 L 71 190 Z M 71 19 " clip-rule="nonzero"/></clipPath><clipPath id="ef569b1025"><path d="M 1.785156 90.808594 L 263.703125 -7.46875 L 373.050781 283.941406 L 111.132812 382.21875 Z M 1.785156 90.808594 " clip-rule="nonzero"/></clipPath><clipPath id="96edffedaa"><path d="M 1.785156 90.808594 L 263.703125 -7.46875 L 373.050781 283.941406 L 111.132812 382.21875 Z M 1.785156 90.808594 " clip-rule="nonzero"/></clipPath><clipPath id="0c13981288"><path d="M 233 18 L 271 18 L 271 49 L 233 49 Z M 233 18 " clip-rule="nonzero"/></clipPath><clipPath id="cd44cc04be"><path d="M 1.785156 90.808594 L 263.703125 -7.46875 L 373.050781 283.941406 L 111.132812 382.21875 Z M 1.785156 90.808594 " clip-rule="nonzero"/></clipPath><clipPath id="03c368b060"><path d="M 1.785156 90.808594 L 263.703125 -7.46875 L 373.050781 283.941406 L 111.132812 382.21875 Z M 1.785156 90.808594 " clip-rule="nonzero"/></clipPath><clipPath id="b3df68c397"><path d="M 232 17 L 272 17 L 272 50 L 232 50 Z M 232 17 " clip-rule="nonzero"/></clipPath><clipPath id="80af474899"><path d="M 1.785156 90.808594 L 263.703125 -7.46875 L 373.050781 283.941406 L 111.132812 382.21875 Z M 1.785156 90.808594 " clip-rule="nonzero"/></clipPath><clipPath id="6dd25d7108"><path d="M 1.785156 90.808594 L 263.703125 -7.46875 L 373.050781 283.941406 L 111.132812 382.21875 Z M 1.785156 90.808594 " clip-rule="nonzero"/></clipPath><clipPath id="c011c67192"><path d="M 128 232 L 167 232 L 167 292 L 128 292 Z M 128 232 " clip-rule="nonzero"/></clipPath><clipPath id="19cbe73ef6"><path d="M 1.785156 90.808594 L 263.703125 -7.46875 L 373.050781 283.941406 L 111.132812 382.21875 Z M 1.785156 90.808594 " clip-rule="nonzero"/></clipPath><clipPath id="25d0cf74fd"><path d="M 1.785156 90.808594 L 263.703125 -7.46875 L 373.050781 283.941406 L 111.132812 382.21875 Z M 1.785156 90.808594 " clip-rule="nonzero"/></clipPath><clipPath id="55150d5804"><path d="M 126 230 L 168 230 L 168 294 L 126 294 Z M 126 230 " clip-rule="nonzero"/></clipPath><clipPath id="178f83a656"><path d="M 1.785156 90.808594 L 263.703125 -7.46875 L 373.050781 283.941406 L 111.132812 382.21875 Z M 1.785156 90.808594 " clip-rule="nonzero"/></clipPath><clipPath id="a84e360f5d"><path d="M 1.785156 90.808594 L 263.703125 -7.46875 L 373.050781 283.941406 L 111.132812 382.21875 Z M 1.785156 90.808594 " clip-rule="nonzero"/></clipPath><clipPath id="f18ca22256"><path d="M 218 193 L 260 193 L 260 248 L 218 248 Z M 218 193 " clip-rule="nonzero"/></clipPath><clipPath id="ee225ebdac"><path d="M 1.785156 90.808594 L 263.703125 -7.46875 L 373.050781 283.941406 L 111.132812 382.21875 Z M 1.785156 90.808594 " clip-rule="nonzero"/></clipPath><clipPath id="10e30ea421"><path d="M 1.785156 90.808594 L 263.703125 -7.46875 L 373.050781 283.941406 L 111.132812 382.21875 Z M 1.785156 90.808594 " clip-rule="nonzero"/></clipPath><clipPath id="69187359d0"><path d="M 216 191 L 262 191 L 262 250 L 216 250 Z M 216 191 " clip-rule="nonzero"/></clipPath><clipPath id="7aa6f6e5a4"><path d="M 1.785156 90.808594 L 263.703125 -7.46875 L 373.050781 283.941406 L 111.132812 382.21875 Z M 1.785156 90.808594 " clip-rule="nonzero"/></clipPath><clipPath id="9638f01da7"><path d="M 1.785156 90.808594 L 263.703125 -7.46875 L 373.050781 283.941406 L 111.132812 382.21875 Z M 1.785156 90.808594 " clip-rule="nonzero"/></clipPath><clipPath id="c9f2eb6a6c"><path d="M 162 223 L 195 223 L 195 276 L 162 276 Z M 162 223 " clip-rule="nonzero"/></clipPath><clipPath id="1458160a1f"><path d="M 1.785156 90.808594 L 263.703125 -7.46875 L 373.050781 283.941406 L 111.132812 382.21875 Z M 1.785156 90.808594 " clip-rule="nonzero"/></clipPath><clipPath id="837bc9c41c"><path d="M 1.785156 90.808594 L 263.703125 -7.46875 L 373.050781 283.941406 L 111.132812 382.21875 Z M 1.785156 90.808594 " clip-rule="nonzero"/></clipPath><clipPath id="44f49b1a9e"><path d="M 160 221 L 196 221 L 196 278 L 160 278 Z M 160 221 " clip-rule="nonzero"/></clipPath><clipPath id="ad0e7f26aa"><path d="M 1.785156 90.808594 L 263.703125 -7.46875 L 373.050781 283.941406 L 111.132812 382.21875 Z M 1.785156 90.808594 " clip-rule="nonzero"/></clipPath><clipPath id="55c65aec9b"><path d="M 1.785156 90.808594 L 263.703125 -7.46875 L 373.050781 283.941406 L 111.132812 382.21875 Z M 1.785156 90.808594 " clip-rule="nonzero"/></clipPath><clipPath id="101c3df99a"><path d="M 184 212 L 232 212 L 232 264 L 184 264 Z M 184 212 " clip-rule="nonzero"/></clipPath><clipPath id="5752b37ad4"><path d="M 1.785156 90.808594 L 263.703125 -7.46875 L 373.050781 283.941406 L 111.132812 382.21875 Z M 1.785156 90.808594 " clip-rule="nonzero"/></clipPath><clipPath id="9135035ed4"><path d="M 1.785156 90.808594 L 263.703125 -7.46875 L 373.050781 283.941406 L 111.132812 382.21875 Z M 1.785156 90.808594 " clip-rule="nonzero"/></clipPath><clipPath id="4a902929e9"><path d="M 183 210 L 234 210 L 234 266 L 183 266 Z M 183 210 " clip-rule="nonzero"/></clipPath><clipPath id="dc83070393"><path d="M 1.785156 90.808594 L 263.703125 -7.46875 L 373.050781 283.941406 L 111.132812 382.21875 Z M 1.785156 90.808594 " clip-rule="nonzero"/></clipPath><clipPath id="141b9f0c1c"><path d="M 1.785156 90.808594 L 263.703125 -7.46875 L 373.050781 283.941406 L 111.132812 382.21875 Z M 1.785156 90.808594 " clip-rule="nonzero"/></clipPath><clipPath id="7e2c1d2a24"><path d="M 254 181 L 286 181 L 286 233 L 254 233 Z M 254 181 " clip-rule="nonzero"/></clipPath><clipPath id="580f30174c"><path d="M 1.785156 90.808594 L 263.703125 -7.46875 L 373.050781 283.941406 L 111.132812 382.21875 Z M 1.785156 90.808594 " clip-rule="nonzero"/></clipPath><clipPath id="bd25e725ae"><path d="M 1.785156 90.808594 L 263.703125 -7.46875 L 373.050781 283.941406 L 111.132812 382.21875 Z M 1.785156 90.808594 " clip-rule="nonzero"/></clipPath><clipPath id="9667e8637e"><path d="M 252 179 L 287 179 L 287 235 L 252 235 Z M 252 179 " clip-rule="nonzero"/></clipPath><clipPath id="20c2c18300"><path d="M 1.785156 90.808594 L 263.703125 -7.46875 L 373.050781 283.941406 L 111.132812 382.21875 Z M 1.785156 90.808594 " clip-rule="nonzero"/></clipPath><clipPath id="2c23998dc3"><path d="M 1.785156 90.808594 L 263.703125 -7.46875 L 373.050781 283.941406 L 111.132812 382.21875 Z M 1.785156 90.808594 " clip-rule="nonzero"/></clipPath></defs><g clip-path="url(#03b223afb4)"><g clip-path="url(#1ce9868cf0)"><g clip-path="url(#86129bb4fe)"><path fill="#0016ee" d="M 258.542969 10.351562 L 246.394531 3.859375 C 242.203125 1.816406 233.277344 3.972656 228.867188 6.097656 L 222.582031 9.125 C 218.003906 11.332031 213.632812 15.28125 213.113281 19.363281 C 213.058594 19.789062 213.113281 20.734375 212.949219 21.191406 C 210.535156 17.765625 206.253906 16.992188 202.207031 18.941406 L 68.296875 83.472656 C 63.515625 85.777344 59.9375 89.933594 61.792969 94.878906 L 63.011719 98.121094 L 52.488281 103.199219 C 50.59375 99.859375 37.746094 98.203125 33.167969 100.40625 L 20.007812 106.75 C 15.421875 108.960938 10.449219 113.671875 12.34375 118.722656 L 105.164062 366.09375 C 107.035156 371.074219 122.933594 377.828125 127.753906 375.503906 L 348.167969 263.414062 C 352.996094 261.085938 352.625 252.722656 350.761719 247.753906 L 266.480469 23.148438 C 264.859375 18.828125 262.800781 12.417969 258.542969 10.351562 Z M 258.542969 10.351562 " fill-opacity="1" fill-rule="nonzero"/></g></g></g><g clip-path="url(#46e297a611)"><g clip-path="url(#179e5fb550)"><g clip-path="url(#b16fc9a324)"><path fill="#fe00fe" d="M 25.125 120.953125 C 23.539062 116.722656 25.992188 112.960938 30.082031 110.988281 L 43.195312 104.664062 C 47.285156 102.695312 51.480469 103.394531 52.535156 106.214844 C 53.59375 109.035156 57.796875 109.730469 61.886719 107.761719 L 216.003906 33.480469 C 220.09375 31.511719 223.808594 26.996094 224.261719 23.449219 C 224.714844 19.898438 228.429688 15.386719 232.519531 13.414062 L 238.792969 10.390625 C 242.878906 8.421875 249.164062 7.714844 253.046875 9.605469 L 266.582031 15.902344 C 270.464844 17.792969 274.855469 22.46875 276.441406 26.699219 L 360.722656 251.304688 C 362.308594 255.535156 360.230469 260.621094 356.140625 262.589844 L 128.207031 372.453125 C 124.117188 374.421875 119.535156 372.550781 117.945312 368.320312 Z M 25.125 120.953125 " fill-opacity="1" fill-rule="nonzero"/></g></g></g><g clip-path="url(#1098d2358c)"><g clip-path="url(#a41ea3bc6b)"><g clip-path="url(#ab01e06cb3)"><path fill="#daaaeb" d="M 330.089844 275.144531 L 278.863281 138.621094 C 277.277344 134.390625 272.644531 132.539062 268.570312 134.5 L 102 214.78125 C 97.925781 216.742188 95.894531 221.808594 97.480469 226.039062 L 148.707031 362.5625 " fill-opacity="1" fill-rule="nonzero"/></g></g></g><g clip-path="url(#2ce0ea358e)"><g clip-path="url(#6d4a542102)"><g clip-path="url(#920de534ff)"><path fill="#0016ee" d="M 149.992188 362.078125 L 147.425781 363.042969 L 96.199219 226.519531 C 94.363281 221.636719 96.703125 215.816406 101.40625 213.546875 L 267.976562 133.265625 C 270.289062 132.160156 272.851562 132.042969 275.160156 132.96875 C 277.472656 133.894531 279.242188 135.730469 280.144531 138.140625 L 331.375 274.664062 L 328.808594 275.625 L 277.582031 139.101562 C 276.949219 137.421875 275.726562 136.144531 274.140625 135.511719 C 272.550781 134.875 270.789062 134.941406 269.167969 135.734375 L 102.59375 216.011719 C 99.132812 217.679688 97.414062 221.964844 98.761719 225.558594 Z M 149.992188 362.078125 " fill-opacity="1" fill-rule="nonzero"/></g></g></g><g clip-path="url(#0904d19d9e)"><g clip-path="url(#5b899e60a7)"><g clip-path="url(#4a17dcfda3)"><path fill="#0016ee" d="M 95.007812 198.277344 C 92.910156 199.066406 90.675781 199.054688 88.625 198.234375 C 86.316406 197.308594 84.542969 195.472656 83.640625 193.0625 L 50.925781 105.882812 L 53.492188 104.917969 L 86.207031 192.101562 C 86.835938 193.78125 88.058594 195.058594 89.644531 195.695312 C 91.234375 196.328125 92.984375 196.25 94.617188 195.46875 L 248.800781 121.160156 C 252.261719 119.492188 253.980469 115.210938 252.632812 111.613281 L 221.394531 28.367188 L 223.960938 27.40625 L 255.199219 110.652344 C 257.03125 115.539062 254.695312 121.359375 249.992188 123.625 L 95.808594 197.9375 C 95.542969 198.0625 95.277344 198.175781 95.007812 198.277344 Z M 95.007812 198.277344 " fill-opacity="1" fill-rule="nonzero"/></g></g></g><g clip-path="url(#b6dbe9415c)"><g clip-path="url(#8631e616d2)"><g clip-path="url(#25c202f374)"><path fill="#daaaeb" d="M 40.496094 140.890625 C 39.570312 141.335938 38.804688 140.863281 38.792969 139.835938 L 38.480469 116.480469 C 38.464844 115.457031 39.011719 115.246094 39.691406 116.011719 L 54.175781 132.308594 C 54.855469 133.074219 54.65625 134.066406 53.730469 134.511719 Z M 40.496094 140.890625 " fill-opacity="1" fill-rule="nonzero"/></g></g></g><g clip-path="url(#5e2e52da42)"><g clip-path="url(#73411ac80c)"><g clip-path="url(#9376771fcc)"><path fill="#0016ee" d="M 45.996094 139.714844 C 43.785156 140.542969 41.671875 140.386719 40.035156 139.269531 C 38.328125 138.105469 37.371094 136.058594 37.335938 133.507812 L 37.195312 122.851562 C 37.144531 119.050781 38.695312 117.898438 39.625 117.550781 C 40.742188 117.128906 42.570312 117.1875 44.933594 119.851562 L 50.980469 126.652344 C 52.722656 128.617188 53.433594 130.945312 52.976562 133.21875 C 52.523438 135.488281 50.96875 137.363281 48.601562 138.503906 L 46.816406 139.367188 C 46.539062 139.496094 46.265625 139.613281 45.996094 139.714844 Z M 40.585938 120.113281 C 40.363281 120.195312 39.910156 120.964844 39.933594 122.8125 L 40.078125 133.46875 C 40.097656 135.105469 40.628906 136.363281 41.578125 137.007812 C 42.582031 137.691406 44.042969 137.664062 45.625 136.898438 L 47.410156 136.035156 C 48.984375 135.277344 50.007812 134.085938 50.289062 132.675781 C 50.570312 131.269531 50.089844 129.773438 48.929688 128.472656 L 42.882812 121.667969 C 41.570312 120.1875 40.765625 120.042969 40.585938 120.113281 Z M 40.585938 120.113281 " fill-opacity="1" fill-rule="nonzero"/></g></g></g><g clip-path="url(#8555440530)"><g clip-path="url(#eaafeefe1d)"><g clip-path="url(#43911c66ab)"><path fill="#0016ee" d="M 114.71875 227.59375 C 114.0625 227.839844 113.3125 227.550781 113.003906 226.90625 C 112.675781 226.226562 112.960938 225.40625 113.644531 225.078125 L 267.289062 151.027344 C 267.976562 150.707031 268.792969 150.984375 269.121094 151.664062 C 269.449219 152.34375 269.160156 153.164062 268.480469 153.492188 L 114.832031 227.546875 C 114.792969 227.5625 114.757812 227.578125 114.71875 227.59375 Z M 114.71875 227.59375 " fill-opacity="1" fill-rule="nonzero"/></g></g></g><g clip-path="url(#318ba0863e)"><g clip-path="url(#35d6ac14da)"><g clip-path="url(#b491f0faf8)"><path fill="#0016ee" d="M 118.566406 237.847656 C 117.910156 238.09375 117.160156 237.804688 116.851562 237.160156 C 116.523438 236.480469 116.808594 235.660156 117.492188 235.332031 L 271.136719 161.277344 C 271.820312 160.949219 272.636719 161.238281 272.96875 161.917969 C 273.296875 162.597656 273.007812 163.417969 272.328125 163.746094 L 118.679688 237.796875 C 118.640625 237.816406 118.605469 237.832031 118.566406 237.847656 Z M 118.566406 237.847656 " fill-opacity="1" fill-rule="nonzero"/></g></g></g><g clip-path="url(#f4d5563f2e)"><g clip-path="url(#2d9f60332f)"><g clip-path="url(#19b3608388)"><path fill="#0016ee" d="M 144.535156 307.058594 C 143.878906 307.304688 143.132812 307.015625 142.820312 306.371094 C 142.492188 305.691406 142.78125 304.871094 143.460938 304.542969 L 297.109375 230.492188 C 297.792969 230.167969 298.609375 230.449219 298.9375 231.128906 C 299.265625 231.808594 298.980469 232.628906 298.296875 232.957031 L 144.652344 307.011719 C 144.613281 307.027344 144.574219 307.042969 144.535156 307.058594 Z M 144.535156 307.058594 " fill-opacity="1" fill-rule="nonzero"/></g></g></g><g clip-path="url(#22d4a1091d)"><g clip-path="url(#1c6d8a6f84)"><g clip-path="url(#86c7907615)"><path fill="#0016ee" d="M 149.34375 319.875 C 148.6875 320.121094 147.941406 319.832031 147.632812 319.1875 C 147.304688 318.507812 147.589844 317.6875 148.269531 317.359375 L 301.917969 243.308594 C 302.601562 242.984375 303.417969 243.265625 303.746094 243.945312 C 304.078125 244.625 303.789062 245.445312 303.105469 245.773438 L 149.460938 319.828125 C 149.421875 319.847656 149.382812 319.863281 149.34375 319.875 Z M 149.34375 319.875 " fill-opacity="1" fill-rule="nonzero"/></g></g></g><g clip-path="url(#3dfdb88e0e)"><g clip-path="url(#a6048eb549)"><g clip-path="url(#56f07c5e96)"><path fill="#ffffff" d="M 347.816406 252.289062 C 347.9375 252.609375 347.796875 252.984375 347.492188 253.132812 L 333.867188 259.714844 C 333.558594 259.863281 333.335938 259.675781 333.214844 259.355469 L 327.878906 245.136719 C 327.761719 244.816406 327.792969 244.476562 328.105469 244.332031 L 341.777344 237.730469 C 342.085938 237.582031 342.363281 237.75 342.484375 238.070312 Z M 347.816406 252.289062 " fill-opacity="1" fill-rule="nonzero"/></g></g></g><g clip-path="url(#186152172a)"><g clip-path="url(#57563ab968)"><g clip-path="url(#2b61a351e0)"><path fill="#0016ee" d="M 335.808594 260.253906 C 333.785156 261.015625 331.488281 260.058594 330.726562 258.027344 L 326.878906 247.773438 C 326.105469 245.714844 327.203125 243.21875 329.1875 242.265625 L 339.4375 237.339844 C 341.460938 236.582031 343.628906 237.585938 344.390625 239.617188 L 348.238281 249.871094 C 349.011719 251.929688 348.042969 254.375 346.0625 255.332031 Z M 340.574219 239.835938 L 330.570312 244.65625 C 329.855469 245 329.507812 245.941406 329.785156 246.679688 L 333.632812 256.9375 C 333.867188 257.550781 334.03125 257.996094 334.03125 257.996094 L 334.511719 259.277344 L 334.605469 257.777344 L 344.816406 252.882812 C 345.53125 252.539062 346.1875 251.484375 345.910156 250.742188 L 342.0625 240.488281 C 341.832031 239.875 341.179688 239.609375 340.574219 239.835938 Z M 340.574219 239.835938 " fill-opacity="1" fill-rule="nonzero"/></g></g></g><g clip-path="url(#a53b74d1f5)"><g clip-path="url(#83aadf2c12)"><g clip-path="url(#b4c8af4580)"><path fill="#0016ee" d="M 137.070312 353.847656 C 137.191406 354.167969 137.101562 354.527344 136.792969 354.675781 L 123.144531 361.265625 C 122.835938 361.410156 122.585938 361.234375 122.46875 360.914062 L 117.132812 346.695312 C 117.011719 346.378906 117.097656 346.019531 117.40625 345.871094 L 131.058594 339.28125 C 131.363281 339.132812 131.613281 339.3125 131.734375 339.632812 Z M 137.070312 353.847656 " fill-opacity="1" fill-rule="nonzero"/></g></g></g><g clip-path="url(#e56e15e58d)"><g clip-path="url(#22d961add0)"><g clip-path="url(#f3c5927774)"><path fill="#0016ee" d="M 125.402344 361.6875 C 123.378906 362.445312 121.324219 361.402344 120.5625 359.371094 L 116.714844 349.117188 C 115.941406 347.054688 116.796875 344.652344 118.78125 343.695312 L 128.863281 338.835938 C 130.886719 338.074219 132.878906 339.144531 133.644531 341.175781 L 137.492188 351.429688 C 138.261719 353.492188 137.46875 355.871094 135.484375 356.828125 Z M 129.878906 341.378906 L 119.847656 346.207031 C 119.132812 346.550781 118.761719 347.5 119.039062 348.242188 L 122.886719 358.496094 C 123.117188 359.113281 123.285156 359.558594 123.285156 359.558594 L 123.765625 360.839844 L 123.910156 359.316406 L 134.09375 354.433594 C 134.808594 354.089844 135.441406 353.046875 135.160156 352.304688 L 131.3125 342.050781 C 131.085938 341.433594 130.484375 341.152344 129.878906 341.378906 Z M 129.878906 341.378906 " fill-opacity="1" fill-rule="nonzero"/></g></g></g><g clip-path="url(#a9cf4b7dfd)"><g clip-path="url(#9da4336699)"><g clip-path="url(#87ecd5e2b6)"><path fill="#0016ee" d="M 126.832031 374.46875 C 122.101562 376.242188 116.757812 373.996094 115.039062 369.414062 L 22.21875 122.046875 C 20.457031 117.355469 23.285156 111.144531 28.164062 108.792969 L 41.746094 102.285156 C 46.652344 99.921875 51.800781 100.976562 53.136719 104.53125 C 53.875 106.5 57.335938 106.917969 60.679688 105.300781 L 214.910156 30.972656 C 218.574219 29.207031 222.003906 25.101562 222.398438 22.003906 C 222.914062 17.972656 226.867188 13.105469 231.402344 10.917969 L 237.742188 7.863281 C 242.1875 5.710938 249.371094 5.769531 253.730469 7.894531 L 266.136719 14.457031 C 270.632812 16.640625 274.828125 22.394531 276.441406 26.699219 L 360.722656 251.304688 C 362.628906 256.390625 360.636719 261.875 356.125 264.050781 L 127.6875 374.109375 C 127.425781 374.234375 127.097656 374.367188 126.832031 374.46875 Z M 43.878906 104.351562 C 43.578125 104.464844 43.28125 104.59375 42.984375 104.734375 L 29.519531 111.195312 C 25.914062 112.9375 23.855469 117.570312 25.125 120.953125 L 117.945312 368.320312 C 119.203125 371.671875 123.199219 373.261719 126.605469 371.601562 L 354.800781 261.632812 C 358.027344 260.078125 359.21875 256.148438 357.8125 252.398438 L 273.53125 27.789062 C 272.082031 23.929688 268.480469 18.789062 264.722656 16.960938 L 252.414062 10.359375 C 248.835938 8.617188 242.664062 8.53125 238.894531 10.34375 L 232.574219 13.394531 C 228.917969 15.15625 225.503906 19.253906 225.109375 22.351562 C 224.59375 26.382812 220.640625 31.25 216.097656 33.4375 L 61.878906 107.765625 C 56.949219 110.140625 51.925781 109.039062 50.59375 105.484375 C 49.933594 103.71875 46.921875 103.210938 43.878906 104.351562 Z M 43.878906 104.351562 " fill-opacity="1" fill-rule="nonzero"/></g></g></g><g clip-path="url(#fd6788bf2f)"><g clip-path="url(#1c80e962e9)"><g clip-path="url(#1cd101cd54)"><path fill="#00b3fe" d="M 249.394531 122.390625 C 253.46875 120.429688 255.503906 115.363281 253.917969 111.132812 L 221.992188 26.054688 C 220.40625 21.828125 215.773438 19.972656 211.699219 21.933594 L 77.820312 86.460938 C 73.75 88.421875 71.714844 93.492188 73.300781 97.71875 L 105.222656 182.796875 C 106.8125 187.023438 111.441406 188.878906 115.515625 186.917969 Z M 174.949219 70.113281 C 173.359375 65.886719 175.394531 60.816406 179.464844 58.855469 L 203.398438 47.320312 C 207.472656 45.359375 212.101562 47.210938 213.6875 51.441406 L 232.023438 100.300781 C 233.609375 104.527344 231.574219 109.597656 227.503906 111.558594 L 203.570312 123.09375 C 199.5 125.058594 194.867188 123.203125 193.28125 118.972656 Z M 174.949219 70.113281 " fill-opacity="1" fill-rule="nonzero"/></g></g></g><g clip-path="url(#ac19c02071)"><g clip-path="url(#7ad5e1a207)"><g clip-path="url(#fa50d8f954)"><path fill="#ffffff" d="M 120.859375 65.71875 L 104.324219 73.6875 C 117.070312 107.070312 130.105469 140.339844 143.09375 173.625 L 158.921875 166 C 145.695312 132.773438 132.78125 99.429688 120.859375 65.71875 Z M 120.859375 65.71875 " fill-opacity="1" fill-rule="nonzero"/></g></g></g><g clip-path="url(#ed2bd16057)"><g clip-path="url(#ef569b1025)"><g clip-path="url(#96edffedaa)"><path fill="#0016ee" d="M 115.320312 188.488281 C 110.691406 190.226562 105.691406 187.9375 103.941406 183.277344 L 72.019531 98.199219 C 70.1875 93.3125 72.523438 87.492188 77.226562 85.226562 L 211.105469 20.703125 C 215.957031 18.386719 221.425781 20.648438 223.277344 25.574219 L 255.199219 110.652344 C 257.03125 115.539062 254.695312 121.359375 249.992188 123.625 L 116.109375 188.152344 C 115.847656 188.277344 115.585938 188.390625 115.320312 188.488281 Z M 212.859375 22.929688 C 212.667969 23 212.484375 23.078125 212.296875 23.167969 L 78.414062 87.695312 C 74.953125 89.363281 73.234375 93.644531 74.585938 97.238281 L 106.507812 182.316406 C 107.808594 185.785156 111.5625 187.332031 114.921875 185.683594 L 248.800781 121.160156 C 252.265625 119.492188 253.984375 115.210938 252.632812 111.613281 L 220.710938 26.539062 C 219.480469 23.261719 216.105469 21.710938 212.859375 22.929688 Z M 203.375 124.667969 C 198.746094 126.402344 193.746094 124.113281 192 119.453125 L 173.664062 70.59375 C 171.832031 65.710938 174.167969 59.890625 178.871094 57.621094 L 202.804688 46.085938 C 207.632812 43.753906 213.121094 46.035156 214.972656 50.960938 L 233.304688 99.820312 C 235.136719 104.707031 232.800781 110.523438 228.097656 112.792969 L 204.164062 124.328125 C 203.902344 124.453125 203.640625 124.566406 203.375 124.667969 Z M 204.558594 48.3125 C 204.371094 48.382812 204.183594 48.464844 203.996094 48.554688 L 180.058594 60.089844 C 176.601562 61.757812 174.882812 66.039062 176.230469 69.632812 L 194.5625 118.492188 C 195.863281 121.960938 199.570312 123.480469 202.976562 121.863281 L 226.910156 110.324219 C 230.371094 108.660156 232.089844 104.378906 230.738281 100.78125 L 212.40625 51.921875 C 211.175781 48.648438 207.804688 47.09375 204.558594 48.3125 Z M 204.558594 48.3125 " fill-opacity="1" fill-rule="nonzero"/></g></g></g><g clip-path="url(#0c13981288)"><g clip-path="url(#cd44cc04be)"><g clip-path="url(#03c368b060)"><path fill="#ffffff" d="M 238.855469 18.257812 C 240.007812 18.152344 241.207031 18.242188 242.316406 18.398438 C 243.253906 18.53125 244.199219 18.691406 245.128906 18.890625 C 246.945312 19.28125 249.058594 19.824219 251.25 20.710938 C 253.46875 21.523438 255.742188 22.75 257.96875 24.097656 C 262.242188 27.191406 266.140625 30.628906 268.476562 35.476562 C 269.109375 36.78125 269.617188 38.195312 269.949219 39.605469 C 270.300781 41.113281 270.738281 42.59375 270.332031 44.140625 C 269.996094 45.410156 269.207031 46.589844 268.09375 47.304688 C 267.476562 47.699219 266.671875 48.070312 265.945312 48.207031 C 264.410156 48.503906 262.765625 48.136719 261.515625 47.195312 C 260 46.054688 259.058594 44.25 257.949219 42.75 C 256.414062 40.667969 254.574219 38.8125 252.5625 37.191406 C 249.828125 34.984375 246.808594 33.128906 243.722656 31.425781 C 242.917969 30.976562 242.105469 30.539062 241.292969 30.109375 C 239.964844 29.421875 238.855469 28.851562 238.074219 28.449219 C 237.671875 28.253906 236.550781 27.667969 236.378906 27.578125 C 234.191406 26.421875 233.175781 23.785156 234.101562 21.425781 C 234.953125 19.261719 236.820312 18.449219 238.855469 18.257812 Z M 238.855469 18.257812 " fill-opacity="1" fill-rule="nonzero"/></g></g></g><g clip-path="url(#b3df68c397)"><g clip-path="url(#80af474899)"><g clip-path="url(#6dd25d7108)"><path fill="#0016ee" d="M 267.125 48.933594 C 266.792969 49.058594 266.460938 49.15625 266.140625 49.214844 C 264.320312 49.566406 262.359375 49.117188 260.894531 48.015625 C 259.652344 47.078125 258.796875 45.8125 257.972656 44.585938 C 257.691406 44.167969 257.414062 43.753906 257.121094 43.363281 C 255.703125 41.4375 253.949219 39.628906 251.917969 37.988281 C 249.597656 36.121094 246.835938 34.316406 243.226562 32.324219 C 242.425781 31.878906 241.617188 31.445312 240.8125 31.015625 L 237.605469 29.363281 C 237.214844 29.171875 236.074219 28.578125 235.902344 28.488281 C 233.222656 27.066406 232.039062 23.871094 233.144531 21.050781 C 234.027344 18.808594 235.929688 17.5 238.761719 17.238281 C 239.84375 17.136719 241.050781 17.183594 242.460938 17.382812 C 243.421875 17.519531 244.390625 17.683594 245.34375 17.886719 C 246.867188 18.210938 249.171875 18.761719 251.636719 19.757812 C 253.601562 20.476562 255.792969 21.582031 258.5 23.21875 C 262.488281 26.097656 266.839844 29.714844 269.40625 35.03125 C 270.074219 36.410156 270.609375 37.914062 270.949219 39.375 L 271.050781 39.789062 C 271.398438 41.246094 271.761719 42.75 271.328125 44.402344 C 270.914062 45.96875 269.9375 47.339844 268.648438 48.167969 C 268.171875 48.472656 267.644531 48.738281 267.125 48.933594 Z M 237.269531 19.644531 C 236.191406 20.050781 235.472656 20.753906 235.058594 21.800781 C 234.335938 23.648438 235.109375 25.742188 236.863281 26.671875 C 237.027344 26.757812 238.128906 27.332031 238.527344 27.523438 L 241.765625 29.199219 C 242.59375 29.636719 243.414062 30.078125 244.222656 30.527344 C 247.9375 32.578125 250.792969 34.445312 253.207031 36.394531 C 255.378906 38.144531 257.253906 40.078125 258.777344 42.140625 C 259.085938 42.558594 259.378906 42.996094 259.675781 43.4375 C 260.441406 44.574219 261.164062 45.648438 262.136719 46.378906 C 263.140625 47.132812 264.492188 47.441406 265.753906 47.199219 C 266.339844 47.085938 266.988281 46.792969 267.539062 46.441406 C 268.398438 45.886719 269.058594 44.953125 269.339844 43.878906 C 269.640625 42.730469 269.355469 41.535156 269.050781 40.269531 L 268.949219 39.84375 C 268.640625 38.527344 268.160156 37.171875 267.554688 35.925781 C 265.1875 31.019531 261.074219 27.617188 257.367188 24.929688 C 254.84375 23.410156 252.765625 22.359375 250.898438 21.675781 C 248.550781 20.726562 246.359375 20.207031 244.914062 19.894531 C 244.007812 19.703125 243.085938 19.550781 242.171875 19.417969 C 240.925781 19.242188 239.871094 19.199219 238.953125 19.285156 C 238.320312 19.339844 237.753906 19.464844 237.269531 19.644531 Z M 237.269531 19.644531 " fill-opacity="1" fill-rule="nonzero"/></g></g></g><g clip-path="url(#c011c67192)"><g clip-path="url(#19cbe73ef6)"><g clip-path="url(#25d0cf74fd)"><path fill="#00b3fe" d="M 161.65625 253.078125 L 146.9375 260.140625 L 141.9375 249.03125 L 157.886719 241.71875 L 153.625 232.421875 L 128.4375 243.972656 L 150.03125 291.96875 L 159.367188 287.769531 L 151.132812 269.46875 L 166.082031 262.300781 Z M 161.65625 253.078125 " fill-opacity="1" fill-rule="nonzero"/></g></g></g><g clip-path="url(#55150d5804)"><g clip-path="url(#178f83a656)"><g clip-path="url(#a84e360f5d)"><path fill="#0016ee" d="M 149.34375 293.777344 L 126.628906 243.296875 L 154.296875 230.609375 L 159.703125 242.390625 L 143.746094 249.707031 L 147.609375 258.300781 L 162.296875 251.253906 L 167.90625 262.941406 L 152.929688 270.125 L 161.175781 288.457031 Z M 130.246094 244.652344 L 150.71875 290.15625 L 157.554688 287.082031 L 149.335938 268.8125 L 164.253906 261.65625 L 161.011719 254.90625 L 146.261719 261.980469 L 140.128906 248.351562 L 156.070312 241.042969 L 152.949219 234.234375 Z M 130.246094 244.652344 " fill-opacity="1" fill-rule="nonzero"/></g></g></g><g clip-path="url(#f18ca22256)"><g clip-path="url(#ee225ebdac)"><g clip-path="url(#10e30ea421)"><path fill="#00b3fe" d="M 242.609375 231.871094 L 239.503906 224.882812 L 252.277344 217.699219 L 246.910156 208.152344 L 235.035156 214.828125 L 232.746094 209.667969 L 244.785156 203.273438 L 239.644531 193.601562 L 218.589844 204.789062 L 237.464844 247.285156 L 259.347656 235.066406 L 254.007812 225.503906 Z M 242.609375 231.871094 " fill-opacity="1" fill-rule="nonzero"/></g></g></g><g clip-path="url(#69187359d0)"><g clip-path="url(#7aa6f6e5a4)"><g clip-path="url(#9638f01da7)"><path fill="#0016ee" d="M 236.820312 249.214844 L 216.820312 204.179688 L 240.210938 191.75 L 246.640625 203.839844 L 234.515625 210.28125 L 235.675781 212.898438 L 247.429688 206.289062 L 254.144531 218.21875 L 241.265625 225.464844 L 243.25 229.941406 L 254.535156 223.640625 L 261.210938 235.59375 Z M 220.359375 205.398438 L 238.109375 245.359375 L 257.480469 234.539062 L 253.476562 227.367188 L 241.964844 233.796875 L 237.75 224.300781 L 250.414062 217.175781 L 246.386719 210.019531 L 234.394531 216.761719 L 230.976562 209.058594 L 242.933594 202.707031 L 239.078125 195.457031 Z M 220.359375 205.398438 " fill-opacity="1" fill-rule="nonzero"/></g></g></g><g clip-path="url(#c9f2eb6a6c)"><g clip-path="url(#1458160a1f)"><g clip-path="url(#837bc9c41c)"><path fill="#00b3fe" d="M 172.398438 223.746094 L 194.078125 271.039062 L 184.117188 275.605469 L 162.4375 228.3125 Z M 172.398438 223.746094 " fill-opacity="1" fill-rule="nonzero"/></g></g></g><g clip-path="url(#44f49b1a9e)"><g clip-path="url(#ad0e7f26aa)"><g clip-path="url(#55c65aec9b)"><path fill="#0016ee" d="M 183.445312 277.425781 L 160.628906 227.644531 L 173.082031 221.9375 L 195.898438 271.71875 Z M 164.261719 228.992188 L 184.796875 273.796875 L 192.265625 270.371094 L 171.734375 225.570312 Z M 164.261719 228.992188 " fill-opacity="1" fill-rule="nonzero"/></g></g></g><g clip-path="url(#101c3df99a)"><g clip-path="url(#5752b37ad4)"><g clip-path="url(#9135035ed4)"><path fill="#00b3fe" d="M 210.824219 248.066406 L 194.949219 212.34375 L 184.9375 216.789062 L 205.753906 263.636719 L 231.3125 248.890625 L 225.832031 239.402344 Z M 210.824219 248.066406 " fill-opacity="1" fill-rule="nonzero"/></g></g></g><g clip-path="url(#4a902929e9)"><g clip-path="url(#dc83070393)"><g clip-path="url(#141b9f0c1c)"><path fill="#0016ee" d="M 205.117188 265.585938 L 183.128906 216.097656 L 195.644531 210.535156 L 211.460938 246.117188 L 226.335938 237.535156 L 233.183594 249.390625 Z M 186.742188 217.484375 L 206.386719 261.691406 L 229.441406 248.390625 L 225.332031 241.273438 L 210.191406 250.011719 L 194.253906 214.148438 Z M 186.742188 217.484375 " fill-opacity="1" fill-rule="nonzero"/></g></g></g><g clip-path="url(#7e2c1d2a24)"><g clip-path="url(#580f30174c)"><g clip-path="url(#bd25e725ae)"><path fill="#00b3fe" d="M 267.359375 197.886719 L 271.089844 184.085938 L 260.511719 181.234375 L 254.15625 204.746094 L 271.925781 211.199219 L 266.503906 229.84375 L 277.027344 232.898438 L 285.3125 204.410156 Z M 267.359375 197.886719 " fill-opacity="1" fill-rule="nonzero"/></g></g></g><g clip-path="url(#9667e8637e)"><g clip-path="url(#20c2c18300)"><g clip-path="url(#2c23998dc3)"><path fill="#0016ee" d="M 277.960938 234.59375 L 264.804688 230.777344 L 270.253906 212.050781 L 252.503906 205.605469 L 259.542969 179.554688 L 272.769531 183.121094 L 269.007812 197.03125 L 286.984375 203.5625 Z M 268.199219 228.914062 L 276.09375 231.203125 L 283.636719 205.257812 L 265.707031 198.742188 L 269.410156 185.050781 L 261.476562 182.910156 L 255.804688 203.886719 L 273.597656 210.351562 Z M 268.199219 228.914062 " fill-opacity="1" fill-rule="nonzero"/></g></g></g></svg>