<svg xmlns="http://www.w3.org/2000/svg" xmlns:xlink="http://www.w3.org/1999/xlink" width="500" zoomAndPan="magnify" viewBox="0 0 375 374.999991" height="500" preserveAspectRatio="xMidYMid meet" version="1.0"><path fill="#defe47" d="M 279.734375 371.8125 C 295.546875 377.996094 321.023438 377.078125 336.355469 369.78125 L 345.4375 365.453125 C 360.765625 358.152344 373.851562 338.300781 374.511719 321.339844 L 381.367188 145.972656 C 382.027344 129.003906 369.597656 110.15625 353.742188 104.089844 L 97.679688 6.058594 C 81.820312 -0.0117188 56.308594 0.996094 40.976562 8.296875 L 31.894531 12.621094 C 16.566406 19.921875 3.289062 39.765625 2.394531 56.71875 L -6.691406 228.378906 C -7.589844 245.332031 4.613281 264.257812 20.429688 270.445312 Z M 279.734375 371.8125 " fill-opacity="1" fill-rule="nonzero"/><path fill="#0016ee" d="M 304.871094 377.457031 C 316.914062 377.457031 328.632812 375.167969 337.019531 371.175781 L 346.101562 366.847656 C 361.933594 359.308594 375.371094 338.917969 376.054688 321.398438 L 382.90625 146.03125 C 383.59375 128.410156 370.757812 108.949219 354.292969 102.648438 L 98.230469 4.617188 C 91.371094 1.992188 82.359375 0.546875 72.855469 0.546875 C 60.652344 0.546875 48.792969 2.863281 40.3125 6.902344 L 31.230469 11.226562 C 15.40625 18.765625 1.777344 39.136719 0.855469 56.636719 L -8.230469 228.296875 C -9.164062 245.90625 3.441406 265.457031 19.863281 271.882812 L 279.171875 373.25 C 286.109375 375.964844 295.234375 377.457031 304.871094 377.457031 Z M 72.855469 3.632812 C 81.992188 3.632812 90.613281 5.007812 97.128906 7.5 L 353.191406 105.53125 C 368.515625 111.398438 380.460938 129.511719 379.824219 145.910156 L 372.972656 321.277344 C 372.328125 337.765625 359.679688 356.960938 344.773438 364.0625 L 335.691406 368.386719 C 327.707031 372.1875 316.472656 374.371094 304.871094 374.371094 C 295.609375 374.371094 286.882812 372.953125 280.292969 370.375 L 20.988281 269.007812 C 5.707031 263.027344 -6.019531 244.839844 -5.152344 228.460938 L 3.933594 56.800781 C 4.804688 40.308594 17.648438 21.117188 32.558594 14.015625 L 41.640625 9.6875 C 49.722656 5.839844 61.097656 3.632812 72.855469 3.632812 Z M 72.855469 3.632812 " fill-opacity="1" fill-rule="nonzero"/><path fill="#0016ee" d="M 241.101562 116.652344 C 254.867188 121.996094 269.074219 126.414062 283.554688 129.347656 C 287.109375 130.066406 290.679688 130.675781 294.269531 131.160156 C 296.585938 131.46875 300.203125 132.296875 301.492188 129.660156 C 302.898438 126.773438 299.59375 122.6875 298.050781 120.535156 C 295.984375 117.65625 291.898438 115.089844 292.324219 110.96875 C 292.8125 106.230469 299.957031 107.417969 303.0625 108.042969 C 306.601562 108.753906 310.226562 109.882812 313.578125 111.226562 C 317.417969 112.773438 322.128906 115.632812 326.414062 115.3125 C 331.699219 114.914062 329.667969 108.046875 328.363281 105.183594 C 327.242188 102.707031 325.667969 100.503906 324.140625 98.269531 C 323.386719 97.167969 322.648438 96.054688 321.988281 94.894531 C 321.640625 94.28125 320.679688 91.429688 320.113281 91.214844 L 353.742188 104.089844 C 369.597656 110.160156 382.027344 129.007812 381.367188 145.972656 C 381.367188 145.972656 379.347656 197.316406 379.347656 197.53125 C 379.34375 194.964844 377.699219 189.355469 376.859375 186.648438 C 375.519531 182.320312 375.5625 177.667969 371.996094 174.308594 C 369.515625 171.976562 366.523438 171.652344 364.109375 174.1875 C 359.398438 179.144531 357.277344 188.546875 354.996094 194.832031 C 354.238281 196.921875 353.335938 201.664062 350.382812 201.390625 C 346.964844 201.082031 345.121094 194.039062 343.910156 191.519531 C 342.046875 187.652344 338.289062 176.101562 332.003906 179.613281 C 329.328125 181.109375 327.722656 185.105469 326.316406 187.65625 C 324.484375 190.988281 322.734375 194.367188 321.257812 197.875 C 320.15625 200.492188 319.171875 203.171875 318.195312 205.835938 C 313.570312 218.4375 312.273438 286.082031 312.273438 286.082031 C 312.273438 286.082031 315.730469 307.777344 319.460938 316.722656 C 324.480469 328.753906 332.234375 304.96875 336.996094 299.394531 C 338.847656 297.234375 340.25 293.828125 343.320312 293.019531 C 346.523438 292.183594 347.449219 295.289062 348.664062 297.625 C 351.75 303.5625 354.613281 311.699219 360.007812 315.917969 C 367.421875 321.714844 371.480469 304.386719 372.886719 299.949219 C 373.785156 297.128906 374.257812 293.402344 375.707031 290.789062 C 375.050781 291.972656 374.515625 321.339844 374.515625 321.339844 C 373.851562 338.304688 360.769531 358.15625 345.4375 365.457031 L 336.355469 369.785156 C 321.027344 377.082031 295.546875 378 279.734375 371.816406 L 192.8125 337.835938 Z M 241.101562 116.652344 " fill-opacity="1" fill-rule="nonzero"/><path fill="#0016ee" d="M 100.023438 7.445312 C 101.226562 8.269531 102.371094 9.253906 103.441406 10.4375 C 105.597656 12.808594 112.757812 18.9375 110.523438 22.863281 C 107.851562 27.5625 98.609375 24.691406 94.796875 24.039062 C 90.542969 23.308594 82 19.707031 78.339844 23.25 C 73.304688 28.125 81.847656 35.460938 82.859375 39.933594 C 84.414062 46.792969 75.699219 47.007812 71.011719 47.082031 C 60.167969 47.253906 49.273438 47.769531 39.84375 53.71875 C 22.621094 64.59375 2.394531 56.71875 2.394531 56.71875 C 3.289062 39.765625 16.566406 19.921875 31.894531 12.621094 L 40.976562 8.296875 C 55.566406 1.347656 73.714844 0.695312 89.402344 3.535156 C 93.394531 4.261719 96.925781 5.328125 100.023438 7.445312 Z M 100.023438 7.445312 " fill-opacity="1" fill-rule="nonzero"/><path fill="#fe00fe" d="M -6.691406 228.378906 C -7.589844 245.332031 4.613281 264.257812 20.425781 270.445312 L 279.734375 371.8125 C 295.546875 377.996094 309.027344 369.171875 309.6875 352.207031 L 316.539062 176.839844 C 317.203125 159.875 304.769531 141.027344 288.914062 134.957031 L 32.851562 36.929688 C 16.996094 30.859375 3.289062 39.765625 2.394531 56.71875 Z M -6.691406 228.378906 " fill-opacity="1" fill-rule="nonzero"/><path fill="#0016ee" d="M 289.578125 375.332031 C 301.988281 375.332031 310.691406 366.0625 311.230469 352.269531 L 318.082031 176.902344 C 318.769531 159.28125 305.933594 139.820312 289.464844 133.519531 L 33.402344 35.488281 C 29.921875 34.15625 26.457031 33.480469 23.109375 33.480469 C 10.527344 33.480469 1.582031 42.785156 0.855469 56.640625 L -8.230469 228.296875 C -9.164062 245.90625 3.441406 265.457031 19.863281 271.882812 L 279.171875 373.25 C 282.703125 374.628906 286.207031 375.332031 289.578125 375.332031 Z M 23.109375 36.566406 C 26.078125 36.566406 29.171875 37.175781 32.300781 38.371094 L 288.363281 136.398438 C 303.691406 142.269531 315.636719 160.382812 314.996094 176.78125 L 308.144531 352.148438 C 307.675781 364.167969 300.214844 372.246094 289.582031 372.246094 C 286.59375 372.246094 283.46875 371.617188 280.296875 370.375 L 20.988281 269.007812 C 5.707031 263.027344 -6.019531 244.839844 -5.152344 228.460938 L 3.933594 56.800781 C 4.574219 44.695312 12.277344 36.566406 23.109375 36.566406 Z M 23.109375 36.566406 " fill-opacity="1" fill-rule="nonzero"/><path fill="#0016ee" d="M 20.214844 159.027344 C 19.316406 175.980469 31.476562 195.019531 47.238281 201.332031 L 253.730469 284.023438 C 269.496094 290.335938 282.929688 281.617188 283.59375 264.652344 L 286.542969 189.117188 C 287.207031 172.152344 274.828125 153.171875 259.039062 146.933594 L 54.441406 66.132812 C 38.648438 59.894531 24.996094 68.664062 24.101562 85.621094 Z M 20.214844 159.027344 " fill-opacity="1" fill-rule="nonzero"/><path fill="#0016ee" d="M 263.730469 287.621094 C 275.996094 287.621094 284.601562 278.414062 285.136719 264.714844 L 288.085938 189.175781 C 288.773438 171.566406 276 151.972656 259.605469 145.496094 L 55.007812 64.699219 C 51.445312 63.292969 47.914062 62.578125 44.496094 62.578125 C 32.097656 62.578125 23.285156 71.804688 22.554688 85.539062 L 18.671875 158.945312 C 17.742188 176.550781 30.296875 196.207031 46.664062 202.761719 L 253.15625 285.457031 C 256.75 286.894531 260.304688 287.621094 263.730469 287.621094 Z M 44.5 65.664062 C 47.523438 65.664062 50.679688 66.304688 53.875 67.566406 L 258.472656 148.367188 C 273.742188 154.398438 285.644531 172.652344 285 189.054688 L 282.050781 264.59375 C 281.585938 276.523438 274.222656 284.535156 263.730469 284.535156 C 260.699219 284.535156 257.527344 283.878906 254.304688 282.585938 L 47.8125 199.894531 C 32.574219 193.792969 20.886719 175.496094 21.753906 159.109375 L 25.640625 85.703125 C 26.277344 73.71875 33.855469 65.664062 44.5 65.664062 Z M 44.5 65.664062 " fill-opacity="1" fill-rule="nonzero"/><path fill="#ffffff" d="M 225.445312 309.199219 C 224.90625 319.371094 232.230469 330.730469 241.722656 334.433594 L 261.285156 342.066406 C 270.773438 345.773438 278.863281 340.476562 279.261719 330.296875 L 279.308594 329.039062 C 279.707031 318.859375 272.25 307.550781 262.734375 303.914062 L 243.757812 296.648438 C 234.242188 293.011719 226.019531 298.355469 225.484375 308.527344 Z M 225.445312 309.199219 " fill-opacity="1" fill-rule="nonzero"/><path fill="#0016ee" d="M 267.1875 344.792969 C 274.992188 344.792969 280.464844 338.992188 280.800781 330.355469 L 280.851562 329.097656 C 281.273438 318.28125 273.394531 306.339844 263.285156 302.472656 L 244.3125 295.207031 C 242.152344 294.382812 240 293.964844 237.914062 293.964844 C 230.015625 293.964844 224.398438 299.785156 223.941406 308.445312 L 223.902344 309.121094 C 223.332031 319.933594 231.074219 331.9375 241.160156 335.871094 L 260.722656 343.503906 C 262.914062 344.359375 265.085938 344.792969 267.1875 344.792969 Z M 237.917969 297.050781 C 239.621094 297.050781 241.402344 297.398438 243.207031 298.089844 L 262.183594 305.355469 C 271.152344 308.785156 278.144531 319.382812 277.765625 328.976562 L 277.71875 330.234375 C 277.445312 337.203125 273.3125 341.703125 267.1875 341.703125 C 265.472656 341.703125 263.675781 341.339844 261.84375 340.628906 L 242.28125 332.996094 C 233.339844 329.503906 226.480469 318.863281 226.988281 309.28125 L 227.023438 308.605469 C 227.394531 301.585938 231.671875 297.050781 237.917969 297.050781 Z M 237.917969 297.050781 " fill-opacity="1" fill-rule="nonzero"/><path fill="#ffffff" d="M 154.445312 281.417969 C 153.90625 291.589844 161.234375 302.945312 170.722656 306.648438 L 190.285156 314.285156 C 199.773438 317.988281 207.863281 312.691406 208.261719 302.511719 L 208.3125 301.253906 C 208.710938 291.078125 201.253906 279.769531 191.734375 276.132812 L 172.761719 268.867188 C 163.246094 265.230469 155.023438 270.574219 154.484375 280.746094 Z M 154.445312 281.417969 " fill-opacity="1" fill-rule="nonzero"/><path fill="#0016ee" d="M 196.1875 317.011719 C 203.996094 317.011719 209.464844 311.210938 209.804688 302.570312 L 209.851562 301.316406 C 210.277344 290.5 202.394531 278.554688 192.285156 274.691406 L 173.3125 267.425781 C 171.152344 266.601562 169 266.179688 166.917969 266.179688 C 159.015625 266.179688 153.402344 272 152.941406 280.664062 L 152.90625 281.339844 C 152.332031 292.152344 160.070312 304.148438 170.164062 308.089844 L 189.722656 315.722656 C 191.914062 316.574219 194.085938 317.011719 196.1875 317.011719 Z M 166.917969 269.265625 C 168.625 269.265625 170.402344 269.613281 172.210938 270.304688 L 191.183594 277.570312 C 200.152344 281.003906 207.144531 291.597656 206.769531 301.191406 L 206.71875 302.449219 C 206.445312 309.417969 202.3125 313.921875 196.1875 313.921875 C 194.472656 313.921875 192.675781 313.558594 190.84375 312.84375 L 171.285156 305.210938 C 162.34375 301.71875 155.480469 291.082031 155.988281 281.496094 L 156.023438 280.820312 C 156.398438 273.804688 160.671875 269.265625 166.917969 269.265625 Z M 166.917969 269.265625 " fill-opacity="1" fill-rule="nonzero"/><path fill="#ffffff" d="M 12.449219 225.851562 C 11.910156 236.023438 19.234375 247.378906 28.722656 251.085938 L 48.285156 258.71875 C 57.777344 262.421875 65.863281 257.125 66.261719 246.945312 L 66.3125 245.691406 C 66.710938 235.511719 59.25 224.203125 49.734375 220.566406 L 30.761719 213.300781 C 21.25 209.664062 13.023438 215.007812 12.484375 225.179688 Z M 12.449219 225.851562 " fill-opacity="1" fill-rule="nonzero"/><path fill="#0016ee" d="M 54.1875 261.441406 C 61.996094 261.441406 67.46875 255.644531 67.804688 247.007812 L 67.855469 245.75 C 68.277344 234.933594 60.394531 222.988281 50.289062 219.125 L 31.3125 211.859375 C 29.15625 211.035156 27.003906 210.613281 24.917969 210.613281 C 17.019531 210.613281 11.402344 216.433594 10.945312 225.097656 L 10.910156 225.773438 C 10.332031 236.585938 18.074219 248.582031 28.164062 252.523438 L 47.726562 260.15625 C 49.914062 261.007812 52.085938 261.441406 54.1875 261.441406 Z M 24.917969 213.699219 C 26.625 213.699219 28.402344 214.050781 30.210938 214.738281 L 49.183594 222.003906 C 58.152344 225.433594 65.144531 236.03125 64.765625 245.628906 L 64.71875 246.882812 C 64.445312 253.851562 60.3125 258.355469 54.1875 258.355469 C 52.472656 258.355469 50.675781 257.992188 48.84375 257.277344 L 29.285156 249.644531 C 20.339844 246.152344 13.480469 235.515625 13.988281 225.929688 L 14.023438 225.257812 C 14.398438 218.238281 18.671875 213.699219 24.917969 213.699219 Z M 24.917969 213.699219 " fill-opacity="1" fill-rule="nonzero"/><path fill="#0016ee" d="M 243.933594 307.535156 C 242.917969 307.761719 242.253906 313.203125 241.953125 314.824219 C 241.304688 318.304688 241.257812 321.6875 243.503906 323.089844 C 245.742188 324.578125 263.710938 327.066406 264.238281 325.3125 C 264.765625 323.554688 244.949219 307.304688 243.933594 307.535156 Z M 243.933594 307.535156 " fill-opacity="1" fill-rule="nonzero"/><path fill="#0016ee" d="M 190.078125 287.371094 C 190.375 287.667969 190.601562 288.074219 190.71875 288.636719 C 191.0625 290.3125 190.761719 292.03125 190.601562 293.703125 C 190.398438 295.816406 190.613281 298.492188 189.664062 300.429688 C 187.984375 303.835938 183.335938 299.46875 181.671875 298.234375 C 177.957031 295.484375 174.242188 292.738281 170.816406 289.636719 C 170.097656 288.976562 168.09375 287.546875 168.046875 286.40625 C 167.957031 284.300781 184.621094 286.109375 186.210938 286.34375 C 187.574219 286.542969 189.167969 286.460938 190.078125 287.371094 Z M 190.078125 287.371094 " fill-opacity="1" fill-rule="nonzero"/><path fill="#defe47" d="M 50.414062 245.433594 C 52.386719 245.433594 53.839844 243.792969 53.949219 241.65625 C 54.078125 239.261719 52.460938 236.574219 50.277344 235.625 L 26.445312 225.242188 C 25.878906 224.996094 25.3125 224.851562 24.75 224.851562 C 22.777344 224.851562 21.320312 226.339844 21.210938 228.480469 C 21.085938 230.875 22.703125 233.488281 24.882812 234.4375 L 48.71875 244.921875 C 49.265625 245.160156 49.8125 245.433594 50.351562 245.433594 Z M 50.414062 245.433594 " fill-opacity="1" fill-rule="nonzero"/><path fill="#ffffff" d="M 82.40625 254.8125 C 82.40625 264.996094 90.257812 276.210938 99.820312 279.730469 L 119.851562 286.839844 C 129.410156 290.359375 137.957031 284.902344 137.957031 274.714844 L 137.957031 273.488281 C 137.957031 263.300781 129.453125 252.019531 119.921875 248.425781 L 100.117188 241.097656 C 90.589844 237.503906 82.40625 242.894531 82.40625 253.078125 Z M 82.40625 254.8125 " fill-opacity="1" fill-rule="nonzero"/><path fill="#0016ee" d="M 124.964844 289.453125 C 132.640625 289.453125 137.957031 283.527344 137.957031 274.714844 L 137.957031 273.488281 C 137.957031 262.636719 129.675781 250.746094 119.691406 246.980469 L 100.902344 239.65625 C 98.746094 238.847656 96.789062 238.4375 94.816406 238.4375 C 87.316406 238.4375 82.40625 244.320312 82.40625 253.078125 L 82.40625 254.8125 C 82.40625 265.917969 90.066406 277.5 100.058594 281.175781 L 118.839844 288.28125 C 120.953125 289.058594 123.007812 289.453125 124.964844 289.453125 Z M 94.800781 241.523438 C 96.398438 241.523438 98.023438 241.863281 99.808594 242.539062 L 118.609375 249.863281 C 127.511719 253.21875 134.828125 263.8125 134.828125 273.484375 L 134.828125 274.710938 C 134.828125 281.789062 130.867188 286.363281 124.941406 286.363281 C 123.347656 286.363281 121.582031 286.035156 119.824219 285.390625 L 101.191406 278.285156 C 92.46875 275.070312 85.535156 264.542969 85.535156 254.808594 L 85.535156 253.074219 C 85.535156 246.058594 89.054688 241.523438 94.800781 241.523438 Z M 94.800781 241.523438 " fill-opacity="1" fill-rule="nonzero"/><path fill="#ff6e27" d="M 112.722656 271.914062 C 115.671875 271.914062 117.730469 269.761719 117.730469 266.671875 C 117.730469 263.070312 114.941406 259.195312 111.375 257.851562 C 110.550781 257.539062 109.730469 257.378906 108.941406 257.378906 C 105.992188 257.378906 103.933594 259.539062 103.933594 262.632812 C 103.933594 266.230469 106.722656 270.105469 110.285156 271.445312 C 111.113281 271.757812 111.933594 271.914062 112.722656 271.914062 Z M 112.722656 271.914062 " fill-opacity="1" fill-rule="nonzero"/><path fill="#0016ee" d="M 112.722656 273.074219 C 116.296875 273.074219 118.890625 270.382812 118.890625 266.671875 C 118.890625 262.617188 115.769531 258.269531 111.789062 256.765625 C 110.835938 256.40625 109.875 256.222656 108.941406 256.222656 C 105.371094 256.222656 102.777344 258.917969 102.777344 262.628906 C 102.777344 266.683594 105.894531 271.027344 109.878906 272.527344 C 110.828125 272.890625 111.789062 273.074219 112.722656 273.074219 Z M 108.941406 258.535156 C 109.597656 258.535156 110.277344 258.667969 110.96875 258.933594 C 114.058594 260.097656 116.574219 263.570312 116.574219 266.671875 C 116.574219 269.808594 113.8125 271.550781 110.695312 270.363281 C 107.605469 269.203125 105.089844 265.730469 105.089844 262.632812 C 105.089844 260.183594 106.636719 258.535156 108.941406 258.535156 Z M 108.941406 258.535156 " fill-opacity="1" fill-rule="nonzero"/><path fill="#0016ee" d="M 50.351562 246.59375 L 50.414062 246.59375 C 52.949219 246.59375 54.964844 244.496094 55.105469 241.714844 C 55.257812 238.835938 53.339844 235.695312 50.738281 234.566406 L 26.90625 224.179688 C 23.339844 222.644531 20.234375 224.953125 20.054688 228.421875 C 19.902344 231.304688 21.78125 234.347656 24.414062 235.5 L 48.246094 245.984375 C 49 246.3125 49.632812 246.59375 50.351562 246.59375 Z M 24.75 226.007812 C 25.117188 226.007812 25.535156 226.109375 25.988281 226.304688 L 49.816406 236.6875 C 51.53125 237.433594 52.894531 239.679688 52.796875 241.59375 C 52.714844 243.148438 51.714844 244.277344 50.414062 244.277344 L 50.351562 244.277344 C 50.121094 244.277344 49.746094 244.113281 49.378906 243.949219 L 25.347656 233.375 C 23.605469 232.617188 22.265625 230.445312 22.363281 228.539062 C 22.445312 227.027344 23.402344 226.007812 24.75 226.007812 Z M 24.75 226.007812 " fill-opacity="1" fill-rule="nonzero"/><path fill="#ffffff" d="M 269.726562 194.847656 C 269.722656 194.832031 269.761719 194.734375 269.8125 194.359375 C 269.859375 193.992188 269.949219 193.4375 270 192.84375 C 270.132812 191.59375 270.222656 189.859375 270.15625 187.757812 C 270.0625 185.667969 269.855469 183.21875 269.28125 180.617188 C 268.800781 178 267.863281 175.25 266.789062 172.519531 C 266.125 171.183594 265.527344 169.832031 264.777344 168.542969 C 263.972656 167.265625 263.269531 166.003906 262.320312 164.867188 C 261.410156 163.71875 260.566406 162.613281 259.539062 161.691406 C 258.539062 160.757812 257.671875 159.828125 256.652344 159.160156 C 255.679688 158.449219 254.757812 157.847656 253.945312 157.320312 C 253.105469 156.832031 252.300781 156.507812 251.675781 156.210938 C 250.398438 155.640625 249.660156 155.367188 249.660156 155.367188 C 246.386719 154.136719 242.734375 155.800781 241.503906 159.078125 C 240.652344 161.351562 241.191406 163.804688 242.695312 165.503906 L 243.804688 166.753906 C 243.804688 166.753906 244.136719 167.125 244.722656 167.691406 C 245.015625 167.960938 245.375 168.285156 245.785156 168.660156 C 246.152344 169.097656 246.558594 169.578125 247.035156 170.050781 C 247.535156 170.488281 247.898438 171.207031 248.425781 171.769531 C 248.964844 172.320312 249.34375 173.140625 249.878906 173.824219 C 250.4375 174.488281 250.785156 175.429688 251.324219 176.203125 C 251.824219 177.023438 252.234375 177.964844 252.707031 178.84375 C 254.46875 182.527344 255.914062 186.679688 256.96875 189.878906 C 257.480469 191.488281 257.910156 192.828125 258.207031 193.765625 C 258.351562 194.253906 258.484375 194.558594 258.5625 194.773438 C 258.644531 194.984375 258.683594 195.195312 258.6875 195.179688 C 259.304688 198.195312 262.25 200.132812 265.261719 199.511719 C 267.316406 199.089844 268.871094 197.585938 269.457031 195.71875 Z M 269.726562 194.847656 " fill-opacity="1" fill-rule="nonzero"/><path fill="#ffffff" d="M 31.640625 150.476562 C 31.640625 150.492188 31.605469 150.589844 31.554688 150.964844 C 31.507812 151.335938 31.417969 151.886719 31.367188 152.484375 C 31.234375 153.730469 31.140625 155.46875 31.214844 157.570312 C 31.304688 159.660156 31.511719 162.105469 32.085938 164.710938 C 32.5625 167.328125 33.503906 170.074219 34.578125 172.808594 C 35.242188 174.144531 35.839844 175.496094 36.589844 176.785156 C 37.394531 178.0625 38.101562 179.324219 39.046875 180.460938 C 39.957031 181.609375 40.800781 182.710938 41.832031 183.636719 C 42.832031 184.570312 43.695312 185.5 44.714844 186.167969 C 45.6875 186.878906 46.609375 187.480469 47.421875 188.007812 C 48.261719 188.496094 49.066406 188.820312 49.695312 189.117188 C 50.96875 189.6875 51.707031 189.960938 51.707031 189.960938 C 54.984375 191.1875 58.636719 189.527344 59.863281 186.25 C 60.714844 183.976562 60.175781 181.523438 58.671875 179.824219 L 57.5625 178.574219 C 57.5625 178.574219 57.230469 178.203125 56.648438 177.636719 C 56.351562 177.367188 55.996094 177.039062 55.585938 176.664062 C 55.21875 176.230469 54.808594 175.746094 54.332031 175.277344 C 53.835938 174.839844 53.46875 174.121094 52.941406 173.558594 C 52.402344 173.003906 52.023438 172.1875 51.488281 171.5 C 50.933594 170.835938 50.582031 169.898438 50.042969 169.121094 C 49.546875 168.300781 49.136719 167.359375 48.660156 166.480469 C 46.898438 162.796875 45.457031 158.648438 44.398438 155.449219 C 43.886719 153.839844 43.460938 152.5 43.160156 151.5625 C 43.015625 151.070312 42.882812 150.765625 42.808594 150.550781 C 42.726562 150.339844 42.683594 150.128906 42.683594 150.148438 C 42.0625 147.132812 39.121094 145.195312 36.109375 145.8125 C 34.054688 146.238281 32.5 147.738281 31.914062 149.605469 Z M 31.640625 150.476562 " fill-opacity="1" fill-rule="nonzero"/></svg>