<svg xmlns="http://www.w3.org/2000/svg" xmlns:xlink="http://www.w3.org/1999/xlink" width="500" zoomAndPan="magnify" viewBox="0 0 375 374.999991" height="500" preserveAspectRatio="xMidYMid meet" version="1.0"><path fill="#0016ee" d="M 331.109375 76.84375 L 322.980469 76.792969 C 323.265625 31.050781 288.554688 0.910156 234.542969 0.00390625 L 234.683594 -8.113281 C 293.578125 -7.128906 331.429688 26.222656 331.109375 76.84375 Z M 331.109375 76.84375 " fill-opacity="1" fill-rule="nonzero"/><path fill="#fe00fe" d="M 327.046875 88.40625 C 327.03125 88.40625 327.015625 88.40625 327 88.40625 C 322.507812 88.40625 318.894531 82.984375 318.917969 78.5 C 319.042969 58.832031 312.785156 41.617188 300.320312 29.046875 C 297.160156 25.859375 297.1875 20.285156 300.375 17.128906 C 303.566406 13.972656 308.710938 13.78125 311.867188 16.964844 C 327.265625 32.496094 335.324219 54.910156 335.175781 78.710938 C 335.148438 83.179688 331.515625 88.40625 327.046875 88.40625 Z M 327.046875 88.40625 " fill-opacity="1" fill-rule="nonzero"/><path fill="#0016ee" d="M 327.046875 88.40625 L 327 88.40625 C 324.832031 88.40625 322.683594 87.625 320.953125 85.882812 C 318.847656 83.765625 317.550781 80.765625 317.566406 77.90625 C 317.683594 58.476562 311.386719 41.84375 299.359375 29.707031 C 295.65625 25.972656 295.683594 19.71875 299.421875 16.019531 C 303.054688 12.421875 309.300781 12.378906 312.835938 15.9375 C 328.269531 31.507812 336.6875 53.4375 336.53125 78.003906 C 336.5 83 332.441406 88.40625 327.046875 88.40625 Z M 306.246094 15.929688 C 304.402344 15.929688 302.65625 16.652344 301.328125 17.964844 C 298.679688 20.585938 298.660156 25.203125 301.277344 27.84375 C 313.832031 40.503906 320.398438 57.855469 320.273438 78.015625 C 320.257812 80.183594 321.253906 82.550781 322.871094 84.171875 C 324.09375 85.402344 325.558594 86.09375 326.996094 86.09375 L 327.046875 86.09375 C 330.835938 86.09375 333.796875 81.839844 333.820312 78.191406 C 333.964844 54.347656 325.828125 32.917969 310.902344 17.863281 C 309.671875 16.621094 308.019531 15.929688 306.246094 15.929688 Z M 306.246094 15.929688 " fill-opacity="1" fill-rule="nonzero"/><path fill="#ff6e27" d="M 379.007812 161.050781 C 379.007812 178.109375 370.941406 193.09375 358.777344 201.640625 C 351.992188 206.410156 336.753906 211.371094 328.105469 211.371094 C 322.164062 211.371094 291.550781 181.085938 291.550781 161.050781 C 291.550781 142.566406 311.980469 116.933594 311.980469 116.933594 C 311.980469 116.933594 327.925781 112.925781 335.28125 112.925781 C 359.433594 112.925781 379.007812 134.472656 379.007812 161.050781 Z M 379.007812 161.050781 " fill-opacity="1" fill-rule="nonzero"/><path fill="#0016ee" d="M 328.105469 212.722656 C 321.199219 212.722656 290.195312 181.578125 290.195312 161.050781 C 290.195312 142.308594 310.078125 117.152344 310.921875 116.089844 L 311.207031 115.730469 L 311.652344 115.621094 C 312.308594 115.457031 327.839844 111.570312 335.277344 111.570312 C 360.136719 111.570312 380.363281 133.765625 380.363281 161.050781 C 380.363281 178.007812 372.585938 193.59375 359.558594 202.75 C 352.394531 207.785156 336.8125 212.722656 328.105469 212.722656 Z M 312.761719 118.132812 C 310.324219 121.285156 292.902344 144.417969 292.902344 161.050781 C 292.902344 180.132812 322.976562 210.015625 328.105469 210.015625 C 336.226562 210.015625 351.316406 205.230469 357.996094 200.53125 C 370.304688 191.882812 377.652344 177.125 377.652344 161.046875 C 377.652344 135.261719 358.644531 114.277344 335.277344 114.277344 C 328.851562 114.277344 315.390625 117.492188 312.761719 118.132812 Z M 312.761719 118.132812 " fill-opacity="1" fill-rule="nonzero"/><path fill="#0016ee" d="M 365.460938 163.757812 C 365.460938 190.332031 345.882812 211.882812 321.730469 211.882812 C 297.582031 211.882812 278 190.332031 278 163.757812 C 278 137.179688 297.582031 115.632812 321.730469 115.632812 C 345.882812 115.632812 365.460938 137.179688 365.460938 163.757812 Z M 365.460938 163.757812 " fill-opacity="1" fill-rule="nonzero"/><path fill="#0016ee" d="M 321.730469 213.234375 C 296.871094 213.234375 276.644531 191.039062 276.644531 163.757812 C 276.644531 136.476562 296.871094 114.28125 321.730469 114.28125 C 346.589844 114.28125 366.816406 136.476562 366.816406 163.757812 C 366.816406 191.039062 346.589844 213.234375 321.730469 213.234375 Z M 321.730469 116.984375 C 298.363281 116.984375 279.355469 137.96875 279.355469 163.761719 C 279.355469 189.546875 298.363281 210.527344 321.730469 210.527344 C 345.097656 210.527344 364.105469 189.546875 364.105469 163.761719 C 364.105469 137.96875 345.097656 116.984375 321.730469 116.984375 Z M 321.730469 116.984375 " fill-opacity="1" fill-rule="nonzero"/><path fill="#defe47" d="M 85.382812 382.292969 C 80.058594 382.894531 40.488281 374.769531 40.488281 374.769531 C 35.457031 372.027344 29.558594 365.105469 29.558594 359.382812 L 29.558594 179.964844 C 29.558594 174.242188 35.671875 167.898438 41.023438 165.859375 L 295.71875 69.253906 C 301.074219 67.214844 310 67.792969 315.027344 70.53125 L 347.351562 85.054688 C 352.378906 87.796875 94.75 381.238281 85.382812 382.292969 Z M 85.382812 382.292969 " fill-opacity="1" fill-rule="nonzero"/><path fill="#0016ee" d="M 90.917969 370.28125 C 89.132812 370.351562 86.878906 370.785156 85.128906 370.238281 C 82.808594 369.507812 81.550781 368.261719 79.875 366.507812 C 75.550781 361.992188 72.335938 369.066406 67.929688 367.679688 C 64.863281 366.71875 64.210938 362.175781 60.625 362.289062 C 57.078125 362.398438 55.671875 367.167969 52.160156 367.582031 C 48.660156 367.992188 48.242188 363.011719 45.296875 362.273438 C 41.640625 361.347656 39.695312 366.820312 35.808594 364.558594 C 33.21875 363.050781 31.257812 360.828125 29.578125 358.390625 L 29.578125 359.378906 C 29.578125 365.105469 35.46875 372.023438 40.496094 374.765625 C 40.496094 374.765625 80.058594 382.890625 85.382812 382.292969 C 86.441406 382.171875 90.707031 378.277344 97.382812 371.515625 C 95.417969 370.644531 93.304688 370.179688 90.917969 370.28125 Z M 90.917969 370.28125 " fill-opacity="1" fill-rule="nonzero"/><path fill="#0016ee" d="M 29.667969 179.246094 C 29.484375 181.410156 34.316406 183.71875 35.851562 184.21875 C 38.628906 185.132812 40.121094 190.128906 42.882812 191.089844 C 45.984375 192.167969 50.90625 188.164062 54.25 187.390625 C 57.023438 186.75 57.992188 187.378906 59.289062 190.039062 C 60.25 192.007812 60.609375 194.945312 63.023438 195.707031 C 65.765625 196.574219 68.308594 193.265625 70.761719 192.609375 C 75.015625 191.476562 75.082031 196.910156 75.683594 199.753906 C 76.28125 202.59375 81.324219 199.253906 83.363281 195.984375 C 84.992188 193.371094 85.964844 189.277344 85.710938 186.207031 C 85.546875 184.234375 88.648438 179.523438 85.75 180.882812 C 82.578125 182.371094 75.035156 185.605469 73.597656 181.035156 C 73.039062 179.273438 72.917969 176.742188 70.496094 177.261719 C 68.699219 177.648438 67.164062 180.492188 65.214844 178.609375 C 63.769531 177.214844 64.433594 174.546875 63.023438 173.296875 C 61.410156 171.867188 60.050781 173.941406 58.355469 173.960938 C 55.945312 173.984375 54.039062 171.292969 53.285156 169.269531 C 52.515625 167.230469 51.285156 162.933594 48.699219 162.957031 C 46.429688 162.972656 43.207031 165.03125 41.035156 165.859375 C 35.90625 167.8125 30.144531 173.71875 29.667969 179.246094 Z M 29.667969 179.246094 " fill-opacity="1" fill-rule="nonzero"/><path fill="#0016ee" d="M 75.957031 222.492188 C 74.15625 221.734375 73.117188 224.746094 71.84375 225.320312 C 68.773438 226.710938 68.097656 222.761719 67.054688 220.644531 C 65.59375 217.6875 61.609375 224.132812 60.257812 221.816406 C 57.707031 217.449219 55.746094 216.546875 53.71875 218.746094 C 51.785156 220.832031 50.089844 217.3125 50.191406 213.867188 C 50.277344 211.109375 47.679688 208.089844 47.019531 205.15625 C 46.714844 203.785156 46.464844 202.375 46.515625 200.964844 C 46.527344 200.710938 46.617188 200.472656 46.675781 200.226562 C 45.710938 192.765625 44.664062 184.765625 45 177.230469 C 42.394531 173.957031 40.992188 170.214844 40.214844 166.25 C 35.078125 168.589844 29.582031 174.535156 29.582031 179.96875 L 29.582031 229.664062 C 36.207031 232.007812 43.191406 232.402344 50.203125 233.855469 C 56.25 235.105469 62.261719 236.652344 68.386719 234.867188 C 71.03125 234.097656 74.597656 233.675781 77.300781 233.277344 C 77.1875 231.261719 78.246094 229.496094 77.714844 227.542969 C 77.5 226.769531 76.777344 222.839844 75.957031 222.492188 Z M 75.957031 222.492188 " fill-opacity="1" fill-rule="nonzero"/><path fill="#0016ee" d="M 41.4375 332.351562 C 42.570312 331.015625 44.28125 328.898438 46.339844 329.171875 C 48.433594 329.453125 49.480469 330.433594 50.703125 332.140625 C 53.320312 335.796875 56.027344 333.6875 58.144531 330.867188 C 59.476562 329.101562 60.269531 326.3125 62.914062 327.203125 C 65.148438 327.957031 66.351562 330.433594 68.511719 331.203125 C 71.285156 332.191406 73.871094 330.183594 74.371094 327.429688 C 75.578125 320.714844 82.816406 327.941406 85.503906 329.164062 C 94.621094 333.316406 91.011719 313.65625 89.476562 310.65625 C 84.117188 300.140625 74.375 293.9375 62.40625 293.855469 C 51.777344 293.789062 40.179688 296.125 29.574219 300.484375 L 29.574219 322.335938 C 31.636719 327.480469 36.746094 337.90625 41.4375 332.351562 Z M 41.4375 332.351562 " fill-opacity="1" fill-rule="nonzero"/><path fill="#0016ee" d="M 295.375 69.386719 C 293.878906 72.664062 296.925781 74.96875 301.03125 73.820312 C 302.820312 73.320312 304.636719 72.746094 306.488281 72.535156 C 308.359375 72.328125 311.078125 72.363281 311.078125 75 C 311.078125 76.320312 310.21875 80.484375 311.03125 81.585938 C 312.367188 83.386719 320.726562 79.992188 321.5 81.34375 C 322.585938 83.25 321.417969 87.972656 323.003906 89.433594 C 326.839844 92.984375 336.511719 83.855469 338.886719 89.449219 C 339.917969 91.875 339.597656 92.457031 340.621094 95.136719 C 345.421875 88.960938 347.886719 85.351562 347.351562 85.058594 L 315.027344 70.535156 C 310 67.792969 301.078125 67.21875 295.722656 69.257812 Z M 295.375 69.386719 " fill-opacity="1" fill-rule="nonzero"/><path fill="#0016ee" d="M 84.6875 383.679688 C 77.285156 383.679688 42.378906 376.402344 40.894531 376.089844 L 40.515625 375.953125 C 35.230469 373.074219 29.558594 365.726562 29.558594 359.382812 L 29.558594 179.964844 C 29.558594 173.425781 35.589844 166.738281 41.214844 164.597656 L 295.578125 67.988281 C 301.113281 65.886719 310.691406 66.535156 315.84375 69.34375 L 347.996094 83.824219 C 348.558594 84.128906 349 84.714844 348.828125 85.59375 C 347.523438 92.234375 267.328125 184.667969 220.152344 238.238281 C 190.28125 272.15625 92.292969 382.878906 85.535156 383.640625 C 85.300781 383.664062 85.023438 383.679688 84.6875 383.679688 Z M 41.828125 373.484375 C 44.734375 374.089844 77.933594 380.972656 84.777344 380.972656 C 84.988281 380.972656 85.125 380.964844 85.273438 380.949219 C 96.160156 376.980469 335.210938 106.121094 345.867188 85.820312 L 314.65625 71.769531 C 311.882812 70.265625 307.839844 69.390625 303.753906 69.390625 C 301.023438 69.390625 298.464844 69.792969 296.546875 70.523438 L 42.371094 167.125 C 37.695312 168.90625 32.644531 174.773438 32.644531 179.964844 L 32.644531 359.382812 C 32.644531 364.621094 37.363281 370.957031 41.828125 373.484375 Z M 41.828125 373.484375 " fill-opacity="1" fill-rule="nonzero"/><path fill="#defe47" d="M 349.523438 91.554688 L 349.523438 270.976562 C 349.523438 276.699219 345.992188 283.042969 340.628906 285.070312 L 135.203125 363.441406 L 86.394531 381.695312 C 81.027344 383.722656 75.820312 380.707031 75.820312 374.984375 L 75.820312 195.566406 C 75.820312 189.84375 81.238281 183.5 86.601562 181.472656 L 340.105469 84.847656 C 345.464844 82.820312 349.523438 85.832031 349.523438 91.554688 Z M 349.523438 91.554688 " fill-opacity="1" fill-rule="nonzero"/><path fill="#0016ee" d="M 83.929688 383.683594 C 79.097656 383.683594 75.820312 380.105469 75.820312 374.984375 L 75.820312 195.566406 C 75.820312 189.40625 80.699219 182.515625 86.800781 180.207031 L 340.523438 83.582031 C 341.792969 83.105469 343.3125 82.859375 344.515625 82.859375 C 349.117188 82.859375 352.609375 86.4375 352.609375 91.554688 L 352.609375 270.976562 C 352.609375 277.394531 347.769531 284.144531 341.976562 286.335938 L 136.117188 364.707031 L 87.722656 382.960938 C 86.460938 383.4375 85.164062 383.683594 83.929688 383.683594 Z M 344.308594 85.566406 C 343.4375 85.566406 342.453125 85.75 341.5 86.113281 L 87.980469 182.738281 C 83.011719 184.617188 78.902344 190.609375 78.902344 195.566406 L 78.902344 374.984375 C 78.902344 378.566406 80.832031 380.972656 84.121094 380.972656 C 85.023438 380.972656 85.828125 380.789062 86.785156 380.429688 L 135.074219 362.175781 L 340.863281 283.804688 C 345.597656 282.011719 349.523438 276.257812 349.523438 270.976562 L 349.523438 91.554688 C 349.523438 87.917969 347.40625 85.566406 344.308594 85.566406 Z M 344.308594 85.566406 " fill-opacity="1" fill-rule="nonzero"/><path fill="#fe00fe" d="M 349.523438 137.496094 L 349.523438 270.976562 C 349.523438 276.699219 345.992188 283.042969 340.628906 285.070312 L 135.203125 363.441406 L 86.394531 381.695312 C 81.027344 383.722656 75.820312 380.707031 75.820312 374.984375 L 75.820312 240.355469 Z M 349.523438 137.496094 " fill-opacity="1" fill-rule="nonzero"/><path fill="#0016ee" d="M 83.929688 383.683594 C 79.097656 383.683594 75.820312 380.105469 75.820312 374.984375 L 75.820312 239.421875 L 76.910156 239.089844 L 352.609375 135.539062 L 352.609375 270.972656 C 352.609375 277.394531 347.769531 284.144531 341.976562 286.332031 L 136.117188 364.707031 L 87.722656 382.960938 C 86.460938 383.4375 85.164062 383.683594 83.929688 383.683594 Z M 78.902344 241.292969 L 78.902344 374.984375 C 78.902344 378.566406 80.832031 380.972656 84.121094 380.972656 C 85.019531 380.972656 85.828125 380.789062 86.78125 380.429688 L 135.074219 362.175781 L 340.859375 283.804688 C 345.59375 282.011719 349.523438 276.257812 349.523438 270.976562 L 349.523438 139.449219 Z M 78.902344 241.292969 " fill-opacity="1" fill-rule="nonzero"/><path fill="#0016ee" d="M 124.390625 220.890625 L 127.476562 220.890625 L 127.476562 367.246094 L 124.390625 367.246094 Z M 124.390625 220.890625 " fill-opacity="1" fill-rule="nonzero"/><path fill="#ff6e27" d="M 322.539062 196.371094 L 322.539062 250.722656 C 322.539062 254.082031 322.683594 257.804688 319.539062 258.996094 L 202.03125 304.308594 L 173.261719 315.695312 C 169.917969 316.960938 168.339844 315.078125 168.339844 311.507812 L 168.339844 253.769531 C 168.339844 250.203125 170.621094 246.242188 173.972656 244.980469 L 319.738281 192.429688 C 322.882812 191.242188 322.539062 193.015625 322.539062 196.371094 Z M 322.539062 196.371094 " fill-opacity="1" fill-rule="nonzero"/><path fill="#0016ee" d="M 172.210938 317.441406 C 170.660156 317.441406 168.339844 316.671875 168.339844 311.511719 L 168.339844 253.769531 C 168.339844 250.039062 169.964844 245.300781 174.171875 243.714844 L 320.128906 191.160156 C 320.921875 190.859375 321.527344 190.710938 322.113281 190.710938 C 322.886719 190.710938 324.195312 190.988281 324.683594 192.855469 C 324.917969 193.75 324.851562 194.863281 324.851562 196.269531 L 324.851562 250.726562 C 324.851562 253.28125 324.878906 258.605469 320.5 260.265625 L 202.757812 305.570312 L 174.417969 316.949219 C 173.550781 317.28125 172.914062 317.441406 172.210938 317.441406 Z M 322.144531 193.328125 C 322.066406 193.417969 321.652344 193.453125 321.003906 193.699219 L 174.953125 246.253906 C 172.101562 247.328125 170.652344 250.851562 170.652344 253.769531 L 170.652344 311.507812 C 170.652344 314.734375 171.65625 314.734375 172.015625 314.734375 C 172.390625 314.734375 172.808594 314.632812 173.347656 314.429688 L 201.808594 303.054688 L 319.742188 257.734375 C 321.621094 257.023438 322.539062 254.992188 322.539062 250.722656 L 322.539062 196.371094 C 322.539062 195.105469 322.371094 193.65625 322.144531 193.328125 Z M 322.144531 193.328125 " fill-opacity="1" fill-rule="nonzero"/><path fill="#0016ee" d="M 322.539062 250.726562 C 322.539062 254.027344 322.539062 257.738281 319.453125 258.957031 L 319.453125 204.492188 C 319.453125 201.136719 319.855469 199.375 316.707031 200.566406 L 171.261719 253.109375 C 170.070312 253.542969 169.109375 254.351562 168.335938 255.355469 L 168.335938 253.757812 C 168.335938 250.214844 170.625 246.234375 173.980469 244.988281 L 319.746094 192.445312 C 322.890625 191.253906 322.535156 193.011719 322.535156 196.371094 L 322.535156 250.726562 Z M 322.539062 250.726562 " fill-opacity="1" fill-rule="nonzero"/><path fill="#ffffff" d="M 276.277344 224.851562 L 276.277344 260.148438 C 276.277344 261.492188 276.492188 262.980469 275.234375 263.457031 L 228.273438 281.597656 L 216.277344 286.152344 C 214.941406 286.660156 213.828125 285.910156 213.828125 284.480469 L 213.828125 247.832031 C 213.828125 246.402344 215.257812 244.816406 216.601562 244.316406 L 275.054688 223.277344 C 276.316406 222.800781 276.277344 223.507812 276.277344 224.851562 Z M 276.277344 224.851562 " fill-opacity="1" fill-rule="nonzero"/><path fill="#0016ee" d="M 216.359375 287.664062 C 215.128906 287.664062 213.828125 286.828125 213.828125 284.480469 L 213.828125 247.832031 C 213.828125 246.066406 214.753906 243.816406 216.800781 243.046875 L 275.539062 222.003906 C 275.941406 221.855469 276.574219 221.773438 276.925781 221.773438 C 277.917969 221.773438 279.359375 222.308594 279.359375 224.851562 L 279.359375 260.148438 C 279.359375 262.449219 278.183594 264.117188 276.578125 264.722656 L 229.1875 282.859375 L 217.671875 287.410156 C 217.222656 287.582031 216.742188 287.664062 216.359375 287.664062 Z M 216.355469 284.957031 L 216.355469 286.3125 Z M 276.277344 224.671875 L 217.992188 245.585938 C 217.246094 245.867188 216.914062 246.949219 216.914062 247.828125 L 216.914062 284.480469 C 216.914062 284.671875 216.734375 284.8125 216.753906 284.910156 C 216.769531 284.902344 216.699219 284.894531 216.722656 284.890625 L 228.125 280.339844 L 275.453125 262.195312 C 276.03125 261.976562 276.28125 260.992188 276.28125 260.148438 L 276.28125 224.855469 C 276.277344 224.789062 276.277344 224.726562 276.277344 224.671875 Z M 276.277344 224.671875 " fill-opacity="1" fill-rule="nonzero"/><path fill="#0016ee" d="M 254.691406 204.585938 L 233.054688 201.621094 L 254.691406 185.871094 Z M 254.691406 204.585938 " fill-opacity="1" fill-rule="nonzero"/><path fill="#0016ee" d="M 255.820312 205.9375 C 255.757812 205.9375 255.695312 205.933594 255.632812 205.925781 L 234 202.960938 C 233.449219 202.886719 233.003906 202.484375 232.867188 201.949219 C 232.734375 201.414062 232.933594 200.847656 233.382812 200.523438 L 255.019531 184.773438 C 255.433594 184.472656 256.28125 184.433594 256.734375 184.660156 C 257.191406 184.890625 257.777344 185.359375 257.777344 185.867188 L 257.777344 204.582031 C 257.777344 204.972656 257.308594 205.34375 257.011719 205.601562 C 256.761719 205.820312 256.144531 205.9375 255.820312 205.9375 Z M 237.925781 200.738281 L 254.691406 203.03125 L 254.691406 188.53125 Z M 237.925781 200.738281 " fill-opacity="1" fill-rule="nonzero"/><path fill="#0016ee" d="M 208.910156 267.382812 C 208.910156 276.082031 203.511719 284.941406 196.851562 287.167969 C 190.191406 289.394531 184.792969 284.148438 184.792969 275.449219 C 184.792969 266.75 190.191406 257.890625 196.851562 255.664062 C 203.511719 253.4375 208.910156 258.683594 208.910156 267.382812 Z M 208.910156 267.382812 " fill-opacity="1" fill-rule="nonzero"/><path fill="#0016ee" d="M 193.851562 289.035156 C 187.722656 289.035156 183.441406 283.449219 183.441406 275.449219 C 183.441406 266.226562 189.265625 256.773438 196.421875 254.378906 C 197.578125 253.992188 198.730469 253.796875 199.851562 253.796875 C 205.984375 253.796875 210.265625 259.382812 210.265625 267.382812 C 210.265625 276.609375 204.4375 286.058594 197.285156 288.453125 C 196.128906 288.835938 194.976562 289.035156 193.851562 289.035156 Z M 199.851562 256.503906 C 199.027344 256.503906 198.160156 256.652344 197.285156 256.945312 C 191.144531 259 186.152344 267.300781 186.152344 275.449219 C 186.152344 281.851562 189.316406 286.328125 193.851562 286.328125 C 194.679688 286.328125 195.546875 286.179688 196.421875 285.886719 C 202.5625 283.832031 207.554688 275.53125 207.554688 267.382812 C 207.554688 260.976562 204.386719 256.503906 199.851562 256.503906 Z M 199.851562 256.503906 " fill-opacity="1" fill-rule="nonzero"/><path fill="#0016ee" d="M 306.453125 229.484375 C 306.453125 238.183594 301.054688 247.042969 294.390625 249.273438 C 287.730469 251.503906 282.335938 246.253906 282.335938 237.554688 C 282.335938 228.851562 287.730469 219.996094 294.390625 217.765625 C 301.054688 215.539062 306.453125 220.785156 306.453125 229.484375 Z M 306.453125 229.484375 " fill-opacity="1" fill-rule="nonzero"/><path fill="#0016ee" d="M 291.394531 251.136719 C 285.261719 251.136719 280.980469 245.550781 280.980469 237.554688 C 280.980469 228.328125 286.804688 218.878906 293.960938 216.484375 C 295.117188 216.097656 296.273438 215.902344 297.390625 215.902344 C 303.523438 215.902344 307.804688 221.484375 307.804688 229.484375 C 307.804688 238.710938 301.980469 248.160156 294.824219 250.554688 C 293.667969 250.941406 292.515625 251.136719 291.394531 251.136719 Z M 297.390625 218.609375 C 296.566406 218.609375 295.703125 218.753906 294.824219 219.046875 C 288.6875 221.101562 283.691406 229.402344 283.691406 237.550781 C 283.691406 243.957031 286.859375 248.429688 291.394531 248.429688 C 292.222656 248.429688 293.085938 248.28125 293.964844 247.984375 C 300.101562 245.933594 305.097656 237.636719 305.097656 229.484375 C 305.097656 223.082031 301.925781 218.609375 297.390625 218.609375 Z M 297.390625 218.609375 " fill-opacity="1" fill-rule="nonzero"/><path fill="#defe47" d="M 204.515625 281.835938 L 209.820312 265.324219 L 198.648438 263.191406 L 198.71875 263.203125 C 198.015625 263.070312 197.289062 263.109375 196.488281 263.378906 C 193.085938 264.515625 189.460938 269.035156 189.460938 273.472656 C 189.460938 276.746094 189.929688 279.046875 192.242188 279.585938 L 192.242188 279.59375 Z M 204.515625 281.835938 " fill-opacity="1" fill-rule="nonzero"/><path fill="#0016ee" d="M 205.148438 283.1875 C 205.0625 283.1875 204.972656 283.179688 204.886719 283.164062 L 193.242188 280.921875 C 193.179688 280.910156 193.125 280.894531 193.066406 280.875 C 188.753906 279.90625 188.753906 275.242188 188.753906 273.476562 C 188.753906 268.554688 192.046875 263.449219 196.09375 262.097656 C 197.011719 261.789062 197.960938 261.699219 198.839844 261.839844 C 198.914062 261.839844 198.984375 261.847656 199.050781 261.859375 L 210.386719 263.996094 C 210.757812 264.066406 211.09375 264.292969 211.289062 264.621094 C 211.492188 264.953125 211.542969 265.347656 211.429688 265.714844 L 206.441406 282.226562 C 206.265625 282.808594 205.734375 283.1875 205.148438 283.1875 Z M 193.90625 278.292969 L 204.203125 280.277344 L 208.402344 266.378906 L 198.730469 264.550781 C 198.667969 264.550781 198.609375 264.542969 198.550781 264.535156 C 198.050781 264.441406 197.507812 264.480469 196.957031 264.664062 C 194.03125 265.644531 191.46875 269.757812 191.46875 273.476562 C 191.46875 277.082031 192.347656 277.976562 193.765625 278.253906 C 193.8125 278.265625 193.859375 278.277344 193.90625 278.292969 Z M 193.90625 278.292969 " fill-opacity="1" fill-rule="nonzero"/><path fill="#defe47" d="M 213.949219 271.539062 C 213.949219 276.023438 211.167969 280.585938 207.738281 281.734375 C 204.300781 282.878906 201.519531 280.175781 201.519531 275.695312 C 201.519531 271.214844 204.300781 266.648438 207.734375 265.503906 C 211.167969 264.355469 213.949219 267.058594 213.949219 271.539062 Z M 213.949219 271.539062 " fill-opacity="1" fill-rule="nonzero"/><path fill="#0016ee" d="M 206.191406 283.351562 C 202.644531 283.351562 200.167969 280.203125 200.167969 275.695312 C 200.167969 270.601562 203.300781 265.558594 207.308594 264.222656 C 207.96875 264 208.636719 263.886719 209.285156 263.886719 C 212.769531 263.886719 215.304688 267.105469 215.304688 271.539062 C 215.304688 276.640625 212.171875 281.683594 208.171875 283.019531 C 207.507812 283.238281 206.839844 283.351562 206.191406 283.351562 Z M 209.285156 266.589844 C 208.925781 266.589844 208.550781 266.65625 208.167969 266.785156 C 205.300781 267.746094 202.878906 271.824219 202.878906 275.695312 C 202.878906 279.140625 204.816406 281.273438 207.308594 280.449219 C 210.175781 279.492188 212.59375 275.410156 212.59375 271.539062 C 212.59375 268.625 211.234375 266.589844 209.285156 266.589844 Z M 209.285156 266.589844 " fill-opacity="1" fill-rule="nonzero"/><path fill="#0016ee" d="M 209.441406 276.285156 C 209.097656 276.285156 208.75 276.152344 208.484375 275.886719 L 205.128906 272.535156 C 204.597656 272.003906 204.597656 271.148438 205.128906 270.621094 C 205.65625 270.089844 206.515625 270.089844 207.042969 270.621094 L 210.398438 273.972656 C 210.929688 274.503906 210.929688 275.359375 210.398438 275.886719 C 210.132812 276.152344 209.789062 276.285156 209.441406 276.285156 Z M 209.441406 276.285156 " fill-opacity="1" fill-rule="nonzero"/><path fill="#0016ee" d="M 206.085938 276.285156 C 205.738281 276.285156 205.390625 276.152344 205.128906 275.886719 C 204.597656 275.359375 204.597656 274.5 205.128906 273.976562 L 208.484375 270.621094 C 209.011719 270.089844 209.871094 270.089844 210.398438 270.621094 C 210.929688 271.148438 210.929688 272.003906 210.398438 272.535156 L 207.042969 275.886719 C 206.777344 276.152344 206.429688 276.285156 206.085938 276.285156 Z M 206.085938 276.285156 " fill-opacity="1" fill-rule="nonzero"/><path fill="#defe47" d="M 304.753906 243.9375 L 310.066406 227.429688 L 298.894531 225.292969 L 298.96875 225.304688 C 298.265625 225.175781 297.542969 225.214844 296.738281 225.484375 C 293.339844 226.621094 289.703125 231.136719 289.703125 235.578125 C 289.703125 238.851562 290.160156 241.152344 292.472656 241.6875 L 292.472656 241.695312 Z M 304.753906 243.9375 " fill-opacity="1" fill-rule="nonzero"/><path fill="#0016ee" d="M 305.398438 245.292969 C 305.3125 245.292969 305.222656 245.285156 305.140625 245.265625 L 293.496094 243.023438 C 293.433594 243.011719 293.378906 243 293.316406 242.976562 C 289.007812 242.007812 289.007812 237.347656 289.007812 235.578125 C 289.007812 230.65625 292.300781 225.554688 296.34375 224.199219 C 297.261719 223.890625 298.210938 223.800781 299.09375 223.941406 C 299.164062 223.941406 299.234375 223.949219 299.304688 223.960938 L 310.636719 226.097656 C 311.011719 226.167969 311.347656 226.398438 311.542969 226.726562 C 311.742188 227.054688 311.792969 227.449219 311.683594 227.820312 L 306.691406 244.328125 C 306.519531 244.910156 305.984375 245.292969 305.398438 245.292969 Z M 294.15625 240.394531 L 304.449219 242.378906 L 308.652344 228.480469 L 298.980469 226.652344 C 298.917969 226.652344 298.859375 226.644531 298.800781 226.636719 C 298.296875 226.542969 297.757812 226.582031 297.207031 226.765625 C 294.28125 227.746094 291.71875 231.863281 291.71875 235.578125 C 291.71875 239.183594 292.597656 240.082031 294.015625 240.355469 C 294.0625 240.367188 294.109375 240.378906 294.15625 240.394531 Z M 294.15625 240.394531 " fill-opacity="1" fill-rule="nonzero"/><path fill="#defe47" d="M 314.199219 233.640625 C 314.199219 238.125 311.417969 242.691406 307.988281 243.835938 C 304.554688 244.980469 301.773438 242.28125 301.773438 237.800781 C 301.773438 233.316406 304.550781 228.753906 307.988281 227.605469 C 311.417969 226.457031 314.199219 229.160156 314.199219 233.640625 Z M 314.199219 233.640625 " fill-opacity="1" fill-rule="nonzero"/><path fill="#0016ee" d="M 306.4375 245.453125 C 302.894531 245.453125 300.417969 242.304688 300.417969 237.800781 C 300.417969 232.703125 303.550781 227.660156 307.554688 226.324219 C 308.214844 226.101562 308.882812 225.988281 309.53125 225.988281 C 313.015625 225.988281 315.550781 229.207031 315.550781 233.644531 C 315.550781 238.742188 312.417969 243.785156 308.417969 245.121094 C 307.753906 245.339844 307.089844 245.453125 306.4375 245.453125 Z M 309.535156 228.695312 C 309.175781 228.695312 308.800781 228.761719 308.417969 228.890625 C 305.550781 229.847656 303.128906 233.929688 303.128906 237.800781 C 303.128906 241.242188 305.066406 243.382812 307.558594 242.554688 C 310.425781 241.597656 312.84375 237.515625 312.84375 233.640625 C 312.84375 230.730469 311.484375 228.695312 309.535156 228.695312 Z M 309.535156 228.695312 " fill-opacity="1" fill-rule="nonzero"/><path fill="#0016ee" d="M 309.691406 238.386719 C 309.347656 238.386719 308.996094 238.257812 308.730469 237.992188 L 305.375 234.636719 C 304.84375 234.109375 304.84375 233.253906 305.375 232.726562 C 305.90625 232.195312 306.761719 232.195312 307.289062 232.726562 L 310.644531 236.078125 C 311.175781 236.609375 311.175781 237.464844 310.644531 237.992188 C 310.382812 238.257812 310.039062 238.386719 309.691406 238.386719 Z M 309.691406 238.386719 " fill-opacity="1" fill-rule="nonzero"/><path fill="#0016ee" d="M 306.335938 238.386719 C 305.988281 238.386719 305.644531 238.257812 305.375 237.992188 C 304.847656 237.460938 304.847656 236.605469 305.375 236.078125 L 308.734375 232.722656 C 309.261719 232.195312 310.121094 232.195312 310.648438 232.722656 C 311.179688 233.253906 311.179688 234.109375 310.648438 234.636719 L 307.292969 237.992188 C 307.027344 238.257812 306.683594 238.386719 306.335938 238.386719 Z M 306.335938 238.386719 " fill-opacity="1" fill-rule="nonzero"/><path fill="#fe00fe" d="M 290.742188 142.699219 C 290.765625 145.574219 289.027344 148.507812 286.859375 149.25 C 284.6875 149.992188 282.90625 148.265625 282.878906 145.386719 C 282.851562 142.515625 284.589844 139.578125 286.761719 138.835938 C 288.929688 138.09375 290.714844 139.824219 290.742188 142.699219 Z M 290.742188 142.699219 " fill-opacity="1" fill-rule="nonzero"/><path fill="#0016ee" d="M 285.871094 150.777344 C 283.378906 150.777344 281.550781 148.515625 281.523438 145.402344 C 281.492188 141.933594 283.597656 138.488281 286.324219 137.558594 C 289.296875 136.539062 292.0625 138.984375 292.09375 142.6875 C 292.125 146.152344 290.019531 149.601562 287.292969 150.53125 C 286.820312 150.695312 286.34375 150.777344 285.871094 150.777344 Z M 287.75 140.019531 C 287.574219 140.019531 287.394531 140.054688 287.199219 140.121094 C 285.597656 140.664062 284.210938 143.121094 284.230469 145.378906 C 284.246094 147.25 285.164062 148.398438 286.417969 147.96875 C 288.019531 147.421875 289.402344 144.96875 289.382812 142.710938 C 289.371094 141.125 288.695312 140.019531 287.75 140.019531 Z M 287.75 140.019531 " fill-opacity="1" fill-rule="nonzero"/><path fill="#0016ee" d="M 30.453125 229.292969 L 77.253906 238.117188 L 76.75 240.773438 L 29.949219 231.953125 Z M 30.453125 229.292969 " fill-opacity="1" fill-rule="nonzero"/><path fill="#ff6e27" d="M 281.878906 89.1875 L 191.609375 123.8125 L 176.554688 120.933594 L 266.644531 85.929688 Z M 281.878906 89.1875 " fill-opacity="1" fill-rule="nonzero"/><path fill="#0016ee" d="M 191.609375 125.164062 C 191.527344 125.164062 191.4375 125.160156 191.351562 125.144531 L 176.296875 122.261719 C 175.703125 122.148438 175.261719 121.65625 175.203125 121.054688 C 175.152344 120.457031 175.5 119.890625 176.0625 119.671875 L 266.152344 84.671875 C 266.402344 84.574219 266.667969 84.558594 266.925781 84.609375 L 282.164062 87.867188 C 282.75 87.992188 283.183594 88.488281 283.234375 89.082031 C 283.277344 89.679688 282.925781 90.238281 282.367188 90.453125 L 192.097656 125.078125 C 191.941406 125.136719 191.777344 125.164062 191.609375 125.164062 Z M 181.433594 120.488281 L 191.484375 122.410156 L 277.132812 89.558594 L 266.757812 87.335938 Z M 181.433594 120.488281 " fill-opacity="1" fill-rule="nonzero"/><path fill="#0016ee" d="M 73.59375 173.71875 C 73.058594 173.71875 72.550781 173.398438 72.335938 172.871094 C 72.058594 172.179688 72.390625 171.390625 73.085938 171.109375 L 74.34375 170.601562 C 75.039062 170.320312 75.828125 170.65625 76.105469 171.347656 C 76.386719 172.042969 76.054688 172.832031 75.359375 173.109375 L 74.101562 173.617188 C 73.9375 173.6875 73.761719 173.71875 73.59375 173.71875 Z M 73.59375 173.71875 " fill-opacity="1" fill-rule="nonzero"/><path fill="#0016ee" d="M 79.132812 171.480469 C 78.597656 171.480469 78.089844 171.160156 77.878906 170.632812 C 77.597656 169.941406 77.929688 169.152344 78.625 168.875 L 80.765625 168.007812 C 81.457031 167.726562 82.25 168.0625 82.53125 168.753906 C 82.808594 169.449219 82.476562 170.238281 81.78125 170.515625 L 79.640625 171.382812 C 79.476562 171.449219 79.300781 171.480469 79.132812 171.480469 Z M 85.554688 168.886719 C 85.023438 168.886719 84.511719 168.570312 84.300781 168.039062 C 84.023438 167.347656 84.355469 166.558594 85.046875 166.277344 L 87.191406 165.414062 C 87.882812 165.128906 88.671875 165.464844 88.953125 166.160156 C 89.234375 166.851562 88.902344 167.640625 88.207031 167.921875 L 86.0625 168.785156 C 85.898438 168.855469 85.726562 168.886719 85.554688 168.886719 Z M 85.554688 168.886719 " fill-opacity="1" fill-rule="nonzero"/><path fill="#0016ee" d="M 91.980469 166.292969 C 91.445312 166.292969 90.9375 165.972656 90.726562 165.445312 C 90.445312 164.753906 90.777344 163.964844 91.472656 163.683594 L 92.730469 163.175781 C 93.421875 162.894531 94.214844 163.226562 94.496094 163.921875 C 94.773438 164.613281 94.4375 165.40625 93.746094 165.683594 L 92.488281 166.191406 C 92.324219 166.261719 92.152344 166.292969 91.980469 166.292969 Z M 91.980469 166.292969 " fill-opacity="1" fill-rule="nonzero"/><path fill="#0016ee" d="M 107.207031 169.523438 C 106.660156 169.523438 106.148438 169.191406 105.9375 168.652344 C 105.675781 167.953125 106.023438 167.171875 106.722656 166.90625 L 107.988281 166.421875 C 108.691406 166.152344 109.472656 166.503906 109.742188 167.203125 C 110.003906 167.902344 109.65625 168.683594 108.957031 168.953125 L 107.6875 169.4375 C 107.53125 169.496094 107.367188 169.523438 107.207031 169.523438 Z M 107.207031 169.523438 " fill-opacity="1" fill-rule="nonzero"/><path fill="#0016ee" d="M 94.242188 174.46875 C 93.695312 174.46875 93.179688 174.136719 92.972656 173.597656 C 92.703125 172.902344 93.054688 172.117188 93.757812 171.847656 L 95.917969 171.023438 C 96.613281 170.761719 97.402344 171.109375 97.667969 171.808594 C 97.9375 172.503906 97.585938 173.289062 96.886719 173.554688 L 94.722656 174.382812 C 94.5625 174.441406 94.398438 174.46875 94.242188 174.46875 Z M 100.722656 171.996094 C 100.179688 171.996094 99.664062 171.664062 99.457031 171.125 C 99.1875 170.425781 99.539062 169.644531 100.242188 169.375 L 102.402344 168.554688 C 103.101562 168.285156 103.882812 168.636719 104.152344 169.335938 C 104.417969 170.035156 104.066406 170.816406 103.367188 171.085938 L 101.203125 171.910156 C 101.046875 171.96875 100.882812 171.996094 100.722656 171.996094 Z M 100.722656 171.996094 " fill-opacity="1" fill-rule="nonzero"/><path fill="#0016ee" d="M 88.648438 176.597656 C 88.105469 176.597656 87.589844 176.265625 87.382812 175.726562 C 87.117188 175.027344 87.464844 174.246094 88.164062 173.976562 L 89.433594 173.496094 C 90.128906 173.226562 90.917969 173.578125 91.183594 174.277344 C 91.449219 174.976562 91.097656 175.757812 90.398438 176.027344 L 89.132812 176.507812 C 88.976562 176.570312 88.8125 176.597656 88.648438 176.597656 Z M 88.648438 176.597656 " fill-opacity="1" fill-rule="nonzero"/><path fill="#ff6e27" d="M 298.464844 82.015625 C 298.464844 84.011719 295.183594 85.628906 291.132812 85.628906 C 287.082031 85.628906 283.800781 84.011719 283.800781 82.015625 C 283.800781 80.023438 287.082031 78.40625 291.132812 78.40625 C 295.183594 78.40625 298.464844 80.023438 298.464844 82.015625 Z M 298.464844 82.015625 " fill-opacity="1" fill-rule="nonzero"/><path fill="#0016ee" d="M 291.132812 86.984375 C 286.179688 86.984375 282.449219 84.847656 282.449219 82.019531 C 282.449219 79.1875 286.179688 77.054688 291.132812 77.054688 C 296.085938 77.054688 299.820312 79.1875 299.820312 82.019531 C 299.820312 84.847656 296.085938 86.984375 291.132812 86.984375 Z M 291.132812 79.761719 C 287.421875 79.761719 285.15625 81.222656 285.15625 82.019531 C 285.15625 82.816406 287.421875 84.277344 291.132812 84.277344 C 294.84375 84.277344 297.113281 82.816406 297.113281 82.019531 C 297.113281 81.222656 294.839844 79.761719 291.132812 79.761719 Z M 291.132812 79.761719 " fill-opacity="1" fill-rule="nonzero"/><path fill="#0016ee" d="M 81.820312 175.292969 C 81.285156 175.292969 80.777344 174.972656 80.566406 174.445312 C 80.285156 173.753906 80.617188 172.964844 81.3125 172.683594 L 83.828125 171.667969 C 84.519531 171.386719 85.308594 171.722656 85.589844 172.414062 C 85.867188 173.109375 85.535156 173.898438 84.839844 174.175781 L 82.328125 175.191406 C 82.160156 175.257812 81.988281 175.292969 81.820312 175.292969 Z M 89.355469 172.246094 C 88.824219 172.246094 88.3125 171.925781 88.101562 171.402344 C 87.820312 170.707031 88.15625 169.917969 88.847656 169.640625 L 91.363281 168.625 C 92.050781 168.34375 92.84375 168.679688 93.125 169.375 C 93.40625 170.066406 93.074219 170.855469 92.375 171.136719 L 89.863281 172.148438 C 89.699219 172.214844 89.527344 172.246094 89.355469 172.246094 Z M 96.890625 169.207031 C 96.355469 169.207031 95.847656 168.882812 95.636719 168.359375 C 95.355469 167.667969 95.6875 166.878906 96.382812 166.597656 L 98.898438 165.582031 C 99.589844 165.300781 100.378906 165.636719 100.660156 166.332031 C 100.941406 167.019531 100.605469 167.8125 99.914062 168.09375 L 97.398438 169.105469 C 97.230469 169.171875 97.0625 169.207031 96.890625 169.207031 Z M 96.890625 169.207031 " fill-opacity="1" fill-rule="nonzero"/><path fill="#ff6e27" d="M 97.226562 274.742188 C 97.226562 291.800781 89.160156 306.78125 76.996094 315.328125 C 70.210938 320.097656 54.972656 325.058594 46.324219 325.058594 C 40.382812 325.058594 9.769531 294.777344 9.769531 274.742188 C 9.769531 256.257812 30.199219 230.625 30.199219 230.625 C 30.199219 230.625 46.144531 226.617188 53.496094 226.617188 C 77.648438 226.617188 97.226562 248.164062 97.226562 274.742188 Z M 97.226562 274.742188 " fill-opacity="1" fill-rule="nonzero"/><path fill="#0016ee" d="M 46.320312 326.410156 C 39.414062 326.410156 8.410156 295.265625 8.410156 274.742188 C 8.410156 256 28.292969 230.839844 29.140625 229.78125 L 29.425781 229.421875 L 29.867188 229.308594 C 30.523438 229.144531 46.054688 225.261719 53.492188 225.261719 C 78.351562 225.261719 98.578125 247.457031 98.578125 274.738281 C 98.578125 291.695312 90.800781 307.285156 77.777344 316.4375 C 70.609375 321.476562 55.03125 326.410156 46.320312 326.410156 Z M 30.976562 231.824219 C 28.542969 234.976562 11.121094 258.105469 11.121094 274.742188 C 11.121094 293.824219 41.195312 323.707031 46.320312 323.707031 C 54.445312 323.707031 69.53125 318.921875 76.214844 314.222656 C 88.519531 305.574219 95.867188 290.816406 95.867188 274.742188 C 95.867188 248.953125 76.859375 227.964844 53.492188 227.964844 C 47.066406 227.96875 33.605469 231.183594 30.976562 231.824219 Z M 30.976562 231.824219 " fill-opacity="1" fill-rule="nonzero"/><path fill="#ff6e27" d="M 83.675781 277.449219 C 83.675781 304.023438 64.097656 325.574219 39.949219 325.574219 C 15.796875 325.574219 -3.78125 304.023438 -3.78125 277.449219 C -3.78125 250.871094 15.796875 229.324219 39.949219 229.324219 C 64.101562 229.324219 83.675781 250.871094 83.675781 277.449219 Z M 83.675781 277.449219 " fill-opacity="1" fill-rule="nonzero"/><path fill="#0016ee" d="M 39.949219 326.925781 C 15.089844 326.925781 -5.136719 304.730469 -5.136719 277.449219 C -5.136719 250.164062 15.085938 227.96875 39.949219 227.96875 C 64.808594 227.96875 85.035156 250.164062 85.035156 277.449219 C 85.035156 304.730469 64.808594 326.925781 39.949219 326.925781 Z M 39.949219 230.675781 C 16.582031 230.675781 -2.425781 251.65625 -2.425781 277.449219 C -2.425781 303.238281 16.582031 324.21875 39.949219 324.21875 C 63.316406 324.21875 82.324219 303.238281 82.324219 277.449219 C 82.324219 251.660156 63.316406 230.675781 39.949219 230.675781 Z M 39.949219 230.675781 " fill-opacity="1" fill-rule="nonzero"/><path fill="#0016ee" d="M 39.941406 281.507812 C 37.875 281.507812 36.105469 279.9375 35.902344 277.839844 C 35.757812 276.34375 22.375 127.132812 105.574219 42.613281 C 137.171875 10.515625 186.558594 -8.929688 234.683594 -8.117188 C 236.925781 -8.078125 238.714844 -6.230469 238.679688 -3.988281 C 238.636719 -1.746094 236.863281 0.0234375 234.546875 0.00390625 C 188.699219 -0.777344 141.464844 17.742188 111.371094 48.304688 C 30.855469 130.097656 43.851562 275.597656 43.992188 277.058594 C 44.207031 279.289062 42.574219 281.273438 40.335938 281.488281 C 40.207031 281.5 40.074219 281.507812 39.941406 281.507812 Z M 39.941406 281.507812 " fill-opacity="1" fill-rule="nonzero"/><path fill="#fe00fe" d="M 39.9375 285.566406 C 35.800781 285.566406 32.265625 282.425781 31.859375 278.230469 C 31.507812 274.640625 23.730469 189.417969 56.851562 110.339844 C 58.582031 106.207031 63.339844 104.25 67.488281 105.984375 C 71.625 107.71875 73.578125 112.476562 71.847656 116.613281 C 40.347656 191.820312 47.957031 275.828125 48.039062 276.667969 C 48.464844 281.132812 45.195312 285.097656 40.730469 285.527344 C 40.460938 285.554688 40.199219 285.566406 39.9375 285.566406 Z M 39.9375 285.566406 " fill-opacity="1" fill-rule="nonzero"/><path fill="#0016ee" d="M 39.9375 286.921875 C 35.035156 286.921875 30.980469 283.238281 30.507812 278.359375 C 30.160156 274.757812 22.339844 189.234375 55.601562 109.820312 C 57.085938 106.28125 60.515625 104 64.351562 104 C 65.613281 104 66.84375 104.246094 68.015625 104.738281 C 70.347656 105.714844 72.164062 107.542969 73.128906 109.882812 C 74.085938 112.226562 74.078125 114.800781 73.101562 117.132812 C 41.714844 192.066406 49.308594 275.703125 49.386719 276.539062 C 49.886719 281.738281 46.058594 286.375 40.859375 286.875 C 40.546875 286.90625 40.242188 286.921875 39.9375 286.921875 Z M 64.351562 106.707031 C 61.613281 106.707031 59.160156 108.335938 58.101562 110.863281 C 25.097656 189.65625 32.859375 274.523438 33.207031 278.097656 C 33.5625 281.800781 36.789062 284.558594 40.59375 284.179688 C 44.3125 283.824219 47.046875 280.507812 46.691406 276.796875 C 46.609375 275.953125 38.957031 191.636719 70.597656 116.085938 C 71.296875 114.417969 71.304688 112.582031 70.617188 110.90625 C 69.929688 109.234375 68.632812 107.929688 66.964844 107.230469 C 66.128906 106.882812 65.25 106.707031 64.351562 106.707031 Z M 64.351562 106.707031 " fill-opacity="1" fill-rule="nonzero"/><path fill="#defe47" d="M 65.441406 277.449219 C 65.441406 278.367188 65.398438 279.285156 65.316406 280.199219 C 65.234375 281.113281 65.113281 282.019531 64.949219 282.921875 C 64.789062 283.824219 64.585938 284.710938 64.34375 285.589844 C 64.101562 286.472656 63.820312 287.335938 63.5 288.183594 C 63.179688 289.03125 62.824219 289.863281 62.429688 290.671875 C 62.035156 291.484375 61.609375 292.269531 61.144531 293.035156 C 60.679688 293.796875 60.183594 294.535156 59.652344 295.246094 C 59.125 295.957031 58.5625 296.636719 57.972656 297.285156 C 57.382812 297.933594 56.765625 298.550781 56.121094 299.132812 C 55.476562 299.714844 54.804688 300.261719 54.109375 300.773438 C 53.417969 301.285156 52.703125 301.753906 51.964844 302.1875 C 51.230469 302.621094 50.476562 303.015625 49.703125 303.367188 C 48.933594 303.71875 48.148438 304.027344 47.347656 304.292969 C 46.550781 304.558594 45.742188 304.78125 44.921875 304.960938 C 44.101562 305.140625 43.277344 305.277344 42.445312 305.367188 C 41.617188 305.457031 40.785156 305.5 39.949219 305.5 C 39.113281 305.5 38.28125 305.457031 37.449219 305.367188 C 36.617188 305.277344 35.792969 305.140625 34.976562 304.960938 C 34.15625 304.78125 33.347656 304.558594 32.546875 304.292969 C 31.75 304.027344 30.964844 303.71875 30.195312 303.367188 C 29.421875 303.015625 28.667969 302.621094 27.933594 302.1875 C 27.195312 301.753906 26.480469 301.285156 25.785156 300.773438 C 25.09375 300.261719 24.421875 299.714844 23.777344 299.132812 C 23.132812 298.550781 22.515625 297.933594 21.921875 297.285156 C 21.332031 296.636719 20.773438 295.957031 20.242188 295.246094 C 19.714844 294.535156 19.21875 293.796875 18.753906 293.035156 C 18.289062 292.269531 17.859375 291.484375 17.46875 290.671875 C 17.074219 289.863281 16.71875 289.03125 16.398438 288.183594 C 16.078125 287.335938 15.796875 286.472656 15.554688 285.589844 C 15.3125 284.710938 15.109375 283.824219 14.945312 282.921875 C 14.785156 282.019531 14.660156 281.113281 14.578125 280.199219 C 14.496094 279.285156 14.457031 278.367188 14.457031 277.449219 C 14.457031 276.53125 14.496094 275.613281 14.578125 274.699219 C 14.660156 273.785156 14.785156 272.875 14.945312 271.976562 C 15.109375 271.074219 15.3125 270.183594 15.554688 269.304688 C 15.796875 268.425781 16.078125 267.5625 16.398438 266.714844 C 16.71875 265.863281 17.074219 265.035156 17.46875 264.222656 C 17.859375 263.414062 18.289062 262.628906 18.753906 261.863281 C 19.21875 261.097656 19.714844 260.363281 20.242188 259.652344 C 20.773438 258.941406 21.332031 258.261719 21.921875 257.613281 C 22.515625 256.960938 23.132812 256.347656 23.777344 255.761719 C 24.421875 255.179688 25.09375 254.632812 25.785156 254.125 C 26.480469 253.613281 27.195312 253.140625 27.933594 252.707031 C 28.667969 252.273438 29.421875 251.882812 30.195312 251.53125 C 30.964844 251.179688 31.75 250.871094 32.546875 250.605469 C 33.347656 250.335938 34.15625 250.113281 34.976562 249.933594 C 35.792969 249.753906 36.617188 249.621094 37.449219 249.53125 C 38.28125 249.441406 39.113281 249.394531 39.949219 249.394531 C 40.785156 249.394531 41.617188 249.441406 42.445312 249.53125 C 43.277344 249.621094 44.101562 249.753906 44.921875 249.933594 C 45.742188 250.113281 46.550781 250.335938 47.347656 250.605469 C 48.148438 250.871094 48.933594 251.179688 49.703125 251.53125 C 50.476562 251.882812 51.230469 252.273438 51.964844 252.707031 C 52.703125 253.140625 53.417969 253.613281 54.109375 254.125 C 54.804688 254.632812 55.476562 255.179688 56.121094 255.761719 C 56.765625 256.347656 57.382812 256.960938 57.972656 257.613281 C 58.5625 258.261719 59.125 258.941406 59.652344 259.652344 C 60.183594 260.363281 60.679688 261.097656 61.144531 261.863281 C 61.609375 262.628906 62.035156 263.414062 62.429688 264.222656 C 62.824219 265.035156 63.179688 265.863281 63.5 266.714844 C 63.820312 267.5625 64.101562 268.425781 64.34375 269.304688 C 64.585938 270.183594 64.789062 271.074219 64.949219 271.976562 C 65.113281 272.875 65.234375 273.785156 65.316406 274.699219 C 65.398438 275.613281 65.441406 276.53125 65.441406 277.449219 Z M 65.441406 277.449219 " fill-opacity="1" fill-rule="nonzero"/><path fill="#0016ee" d="M 39.949219 306.855469 C 25.144531 306.855469 13.101562 293.664062 13.101562 277.449219 C 13.101562 261.230469 25.144531 248.039062 39.949219 248.039062 C 54.753906 248.039062 66.792969 261.230469 66.792969 277.449219 C 66.792969 293.664062 54.753906 306.855469 39.949219 306.855469 Z M 39.949219 250.746094 C 26.640625 250.746094 15.8125 262.726562 15.8125 277.449219 C 15.8125 292.171875 26.640625 304.148438 39.949219 304.148438 C 53.257812 304.148438 64.085938 292.171875 64.085938 277.449219 C 64.082031 262.726562 53.257812 250.746094 39.949219 250.746094 Z M 39.949219 250.746094 " fill-opacity="1" fill-rule="nonzero"/><path fill="#0016ee" d="M 324.9375 76.167969 L 325.902344 78.699219 L 105.019531 162.871094 L 104.054688 160.339844 Z M 324.9375 76.167969 " fill-opacity="1" fill-rule="nonzero"/><path fill="#ff6e27" d="M 162.667969 130.953125 C 163.085938 131.035156 163.429688 131.449219 163.441406 131.871094 L 163.683594 144.144531 C 163.691406 144.566406 163.371094 145.035156 162.976562 145.1875 L 115.25 163.210938 C 114.851562 163.359375 114.1875 163.417969 113.769531 163.339844 L 102.078125 161.109375 C 101.660156 161.03125 101.261719 160.621094 101.261719 160.195312 L 101.261719 148.203125 C 101.261719 147.777344 101.644531 147.304688 102.039062 147.152344 L 149.402344 128.761719 C 149.796875 128.609375 150.476562 128.550781 150.894531 128.632812 Z M 162.667969 130.953125 " fill-opacity="1" fill-rule="nonzero"/><path fill="#0016ee" d="M 113.402344 164.453125 C 112.75 164.453125 112.132812 164.402344 111.613281 164.304688 L 104.015625 162.808594 C 101.910156 162.402344 100.492188 160.40625 100.492188 158.261719 L 100.492188 150.140625 C 100.492188 148.105469 101.746094 145.929688 103.648438 145.191406 L 147.25 128.207031 C 148.828125 127.589844 151.410156 127.34375 153.128906 127.683594 L 161.058594 129.253906 C 163.148438 129.664062 164.804688 131.65625 164.847656 133.785156 L 165.007812 142.179688 C 165.046875 144.234375 163.570312 146.414062 161.644531 147.140625 L 117.542969 163.792969 C 116.445312 164.207031 114.894531 164.453125 113.402344 164.453125 Z M 151.265625 130.230469 C 150.125 130.230469 148.890625 130.425781 148.113281 130.726562 L 104.429688 147.714844 C 103.5625 148.050781 102.804688 149.207031 102.804688 150.136719 L 102.804688 158.257812 C 102.804688 159.105469 103.5 159.988281 104.332031 160.144531 L 112.140625 161.640625 C 113.425781 161.886719 115.488281 161.671875 116.59375 161.257812 L 160.6875 144.601562 C 161.546875 144.28125 162.308594 143.148438 162.289062 142.230469 L 162.121094 133.835938 C 162.105469 132.988281 161.335938 132.070312 160.503906 131.90625 L 152.542969 130.335938 C 152.171875 130.261719 151.730469 130.230469 151.265625 130.230469 Z M 151.265625 130.230469 " fill-opacity="1" fill-rule="nonzero"/><path fill="#0016ee" d="M 114.25 151.351562 L 101.726562 148.878906 L 102.253906 146.222656 L 114.003906 148.542969 L 161.5 130.390625 L 162.46875 132.917969 Z M 114.25 151.351562 " fill-opacity="1" fill-rule="nonzero"/><path fill="#0016ee" d="M 115.464844 149.894531 L 115.863281 163.429688 L 113.15625 163.511719 L 112.753906 149.976562 Z M 115.464844 149.894531 " fill-opacity="1" fill-rule="nonzero"/><path fill="#ffffff" d="M 161.972656 226.816406 C 161.867188 225.515625 161.183594 224.28125 159.847656 223.617188 C 157.257812 222.3125 153.925781 223.808594 151.382812 224.550781 C 148.972656 225.261719 146.617188 226.152344 144.367188 227.265625 C 142.234375 228.324219 140.046875 229.503906 138.429688 231.289062 C 136.625 233.273438 135.796875 235.832031 135.382812 238.4375 C 134.753906 242.425781 134.703125 246.511719 134.949219 250.535156 C 135.144531 253.753906 134.75 259.476562 138.921875 260.347656 C 142.976562 261.195312 143.855469 257.179688 144.398438 254.222656 C 145.136719 250.246094 145.628906 246.226562 146.230469 242.230469 C 146.449219 240.773438 146.738281 239.289062 147.886719 238.265625 C 149.082031 237.195312 150.742188 236.605469 152.109375 235.792969 C 154.84375 234.171875 157.621094 232.589844 160.199219 230.730469 C 161.472656 229.816406 162.089844 228.273438 161.972656 226.816406 Z M 161.972656 226.816406 " fill-opacity="1" fill-rule="nonzero"/><path fill="#0016ee" d="M 139.96875 261.816406 C 139.550781 261.816406 139.101562 261.765625 138.644531 261.671875 C 133.953125 260.691406 133.765625 255.179688 133.652344 251.890625 C 133.636719 251.433594 133.621094 251.007812 133.601562 250.617188 C 133.316406 245.984375 133.460938 241.929688 134.046875 238.226562 C 134.578125 234.863281 135.683594 232.292969 137.429688 230.378906 C 139.238281 228.394531 141.648438 227.105469 143.769531 226.058594 C 146 224.949219 148.433594 224.007812 151.003906 223.253906 C 151.40625 223.136719 151.828125 223 152.265625 222.855469 C 154.839844 222.023438 158.152344 221.246094 160.457031 222.40625 C 162.132812 223.246094 163.171875 224.816406 163.324219 226.714844 C 163.484375 228.71875 162.59375 230.679688 160.996094 231.832031 C 158.738281 233.460938 156.316406 234.890625 153.976562 236.273438 L 152.804688 236.960938 C 152.3125 237.253906 151.785156 237.519531 151.253906 237.785156 C 150.328125 238.25 149.449219 238.691406 148.792969 239.277344 C 148 239.988281 147.773438 241.125 147.574219 242.4375 C 147.390625 243.691406 147.207031 244.945312 147.03125 246.199219 C 146.636719 248.964844 146.242188 251.730469 145.738281 254.472656 C 145.292969 256.851562 144.375 261.816406 139.96875 261.816406 Z M 157.5 224.453125 C 156.113281 224.453125 154.511719 224.972656 153.101562 225.429688 C 152.636719 225.582031 152.191406 225.726562 151.765625 225.851562 C 149.351562 226.558594 147.058594 227.445312 144.972656 228.480469 C 142.988281 229.460938 140.925781 230.558594 139.4375 232.199219 C 138.058594 233.710938 137.171875 235.820312 136.722656 238.648438 C 136.167969 242.15625 136.03125 246.015625 136.304688 250.453125 C 136.328125 250.867188 136.347656 251.316406 136.359375 251.796875 C 136.484375 255.449219 136.785156 258.519531 139.199219 259.023438 C 141.59375 259.515625 142.390625 257.652344 143.070312 253.976562 C 143.570312 251.265625 143.960938 248.539062 144.347656 245.8125 C 144.523438 244.550781 144.703125 243.289062 144.894531 242.027344 C 145.148438 240.332031 145.519531 238.5625 146.988281 237.253906 C 147.910156 236.429688 148.996094 235.886719 150.039062 235.359375 C 150.515625 235.121094 150.984375 234.886719 151.425781 234.628906 L 152.59375 233.9375 C 154.886719 232.585938 157.253906 231.191406 159.410156 229.632812 C 160.230469 229.042969 160.707031 227.980469 160.621094 226.925781 C 160.578125 226.375 160.34375 225.375 159.242188 224.824219 C 158.75 224.574219 158.175781 224.453125 157.5 224.453125 Z M 157.5 224.453125 " fill-opacity="1" fill-rule="nonzero"/><path fill="#ffffff" d="M 319.40625 276.554688 C 319.578125 277.851562 320.328125 279.042969 321.691406 279.640625 C 324.347656 280.800781 327.59375 279.128906 330.097656 278.25 C 332.464844 277.410156 334.769531 276.390625 336.953125 275.160156 C 339.027344 273.988281 341.148438 272.691406 342.667969 270.824219 C 344.367188 268.75 345.0625 266.148438 345.332031 263.523438 C 345.753906 259.507812 345.589844 255.429688 345.128906 251.425781 C 344.765625 248.226562 344.859375 242.488281 340.648438 241.84375 C 336.554688 241.214844 335.890625 245.273438 335.5 248.25 C 334.972656 252.257812 334.695312 256.296875 334.304688 260.316406 C 334.160156 261.785156 333.953125 263.285156 332.859375 264.371094 C 331.71875 265.503906 330.097656 266.179688 328.773438 267.0625 C 326.128906 268.824219 323.433594 270.558594 320.964844 272.554688 C 319.746094 273.539062 319.214844 275.109375 319.40625 276.554688 Z M 319.40625 276.554688 " fill-opacity="1" fill-rule="nonzero"/><path fill="#0016ee" d="M 323.707031 281.386719 C 322.785156 281.386719 321.925781 281.214844 321.152344 280.878906 C 319.4375 280.132812 318.316406 278.621094 318.0625 276.734375 C 317.800781 274.738281 318.585938 272.734375 320.117188 271.503906 C 322.304688 269.738281 324.667969 268.167969 326.957031 266.648438 L 328.023438 265.9375 C 328.496094 265.621094 329.011719 265.328125 329.53125 265.03125 C 330.433594 264.515625 331.28125 264.03125 331.90625 263.410156 C 332.664062 262.65625 332.832031 261.503906 332.957031 260.1875 C 333.082031 258.9375 333.191406 257.683594 333.300781 256.433594 C 333.542969 253.644531 333.796875 250.851562 334.160156 248.074219 C 334.503906 245.421875 335.226562 239.625 340.855469 240.503906 C 345.589844 241.230469 346.074219 246.71875 346.359375 250 C 346.394531 250.453125 346.433594 250.878906 346.476562 251.269531 C 347.007812 255.882812 347.070312 259.9375 346.679688 263.664062 C 346.332031 267.050781 345.359375 269.671875 343.71875 271.675781 C 342.03125 273.75 339.683594 275.167969 337.621094 276.332031 C 335.441406 277.5625 333.058594 278.632812 330.546875 279.523438 C 330.148438 279.660156 329.730469 279.820312 329.304688 279.988281 C 327.597656 280.644531 325.664062 281.386719 323.707031 281.386719 Z M 339.839844 243.136719 C 337.917969 243.136719 337.289062 245.078125 336.84375 248.429688 C 336.484375 251.167969 336.246094 253.921875 336 256.675781 C 335.890625 257.9375 335.777344 259.195312 335.65625 260.453125 C 335.488281 262.164062 335.207031 263.945312 333.816406 265.332031 C 332.933594 266.203125 331.890625 266.800781 330.875 267.382812 C 330.414062 267.648438 329.953125 267.90625 329.53125 268.191406 L 328.457031 268.90625 C 326.21875 270.390625 323.910156 271.925781 321.820312 273.609375 C 321.019531 274.25 320.609375 275.3125 320.75 276.378906 C 320.824219 276.921875 321.109375 277.90625 322.238281 278.398438 C 322.671875 278.589844 323.152344 278.679688 323.707031 278.679688 C 325.160156 278.679688 326.84375 278.03125 328.332031 277.460938 C 328.785156 277.285156 329.226562 277.121094 329.644531 276.96875 C 332.007812 276.136719 334.246094 275.128906 336.292969 273.980469 C 338.222656 272.886719 340.222656 271.675781 341.617188 269.96875 C 342.917969 268.378906 343.6875 266.226562 343.984375 263.382812 C 344.355469 259.855469 344.289062 255.988281 343.785156 251.578125 C 343.734375 251.167969 343.695312 250.714844 343.65625 250.238281 C 343.339844 246.597656 342.875 243.554688 340.445312 243.183594 C 340.230469 243.148438 340.027344 243.136719 339.839844 243.136719 Z M 339.839844 243.136719 " fill-opacity="1" fill-rule="nonzero"/><path fill="#fe00fe" d="M 95.011719 215.101562 C 92.136719 215.101562 89.039062 213.777344 87.308594 212.347656 C 86.15625 211.394531 86 209.6875 86.949219 208.535156 C 87.90625 207.386719 89.617188 207.230469 90.765625 208.179688 C 91.753906 208.996094 93.867188 209.824219 95.332031 209.671875 C 96.378906 209.574219 96.597656 209.472656 97.242188 206.8125 C 97.574219 205.441406 97.949219 203.890625 98.882812 202.480469 C 102.050781 197.691406 105.9375 198.664062 108.511719 199.308594 C 110.074219 199.699219 111.105469 199.925781 112.179688 199.597656 C 113.125 199.101562 113.324219 198.347656 113.535156 196.0625 C 113.726562 193.953125 113.992188 191.0625 116.699219 189.375 C 119.867188 187.59375 122.691406 189.058594 124.746094 190.128906 C 127.15625 191.378906 127.566406 191.367188 128.277344 190.761719 C 128.917969 190.269531 128.832031 187.691406 128.785156 186.304688 C 128.675781 183.101562 128.546875 179.132812 131.742188 177.152344 C 134.425781 175.035156 137.597656 176.347656 139.921875 177.308594 C 141.347656 177.898438 142.808594 178.5 143.664062 178.253906 C 144.726562 176.972656 144.929688 172.464844 145.007812 170.710938 C 145.027344 170.148438 145.054688 169.640625 145.082031 169.214844 C 145.191406 167.726562 146.492188 166.632812 147.980469 166.707031 C 149.476562 166.816406 150.597656 168.109375 150.492188 169.601562 C 150.464844 169.984375 150.445312 170.445312 150.421875 170.953125 C 150.257812 174.601562 150.011719 180.117188 146.910156 182.628906 C 146.789062 182.726562 146.664062 182.808594 146.527344 182.886719 C 143.449219 184.625 140.210938 183.285156 137.855469 182.3125 C 136.964844 181.945312 135.488281 181.320312 135.039062 181.441406 C 134.902344 181.554688 134.792969 181.648438 134.632812 181.734375 C 134.070312 182.054688 134.15625 184.800781 134.199219 186.125 C 134.304688 189.289062 134.425781 192.878906 131.675781 194.972656 C 128.136719 197.988281 124.453125 196.078125 122.246094 194.929688 C 120.828125 194.195312 119.933594 193.765625 119.460938 194.03125 C 119.171875 194.214844 119.058594 195.152344 118.929688 196.554688 C 118.710938 198.984375 118.371094 202.660156 114.382812 204.550781 C 114.296875 204.589844 114.210938 204.625 114.121094 204.65625 C 111.40625 205.613281 108.976562 205.003906 107.199219 204.558594 C 104.878906 203.976562 104.457031 203.871094 103.402344 205.46875 C 102.996094 206.085938 102.757812 207.054688 102.511719 208.085938 C 101.921875 210.515625 100.941406 214.585938 95.84375 215.0625 C 95.566406 215.085938 95.289062 215.101562 95.011719 215.101562 Z M 95.011719 215.101562 " fill-opacity="1" fill-rule="nonzero"/><path fill="#fe00fe" d="M 316.390625 131.539062 C 312.25 131.539062 310.765625 128.605469 309.871094 126.570312 C 309.515625 125.765625 309.035156 124.890625 308.699219 124.835938 C 308.558594 124.847656 307.722656 125.78125 307.234375 126.285156 C 305.785156 127.777344 303.363281 130.34375 299.394531 129.386719 C 299.300781 129.363281 299.210938 129.367188 299.121094 129.335938 C 296.644531 128.457031 295.28125 126.671875 294.289062 125.355469 C 293.035156 123.691406 292.933594 123.566406 291.546875 124.003906 C 290.980469 124.183594 290.308594 124.703125 289.59375 125.25 C 287.898438 126.550781 284.742188 128.96875 280.800781 126.359375 C 278.445312 124.804688 276.765625 121.78125 276.316406 119.59375 C 276.019531 118.128906 276.96875 116.699219 278.433594 116.402344 C 279.898438 116.097656 281.328125 117.050781 281.628906 118.515625 C 281.839844 119.554688 282.808594 121.199219 283.789062 121.847656 C 284.410156 122.253906 284.519531 122.320312 286.296875 120.960938 C 287.300781 120.191406 288.441406 119.316406 289.914062 118.855469 C 294.949219 117.253906 297.242188 120.292969 298.613281 122.109375 C 299.425781 123.183594 299.976562 123.875 300.796875 124.214844 C 301.492188 124.332031 301.96875 124.042969 303.347656 122.628906 C 304.691406 121.242188 306.542969 119.355469 309.480469 119.707031 C 312.820312 120.269531 314.03125 123.03125 314.832031 124.855469 C 315.796875 127.0625 316.03125 127.046875 316.585938 127.039062 C 317.246094 126.917969 318.480469 125.28125 319.140625 124.402344 C 320.792969 122.210938 323.046875 119.230469 326.503906 119.648438 C 329.691406 119.699219 331.242188 122.539062 332.28125 124.4375 C 332.828125 125.429688 333.488281 126.636719 334.074219 126.960938 C 334.960938 126.714844 336.566406 125.273438 338.871094 122.667969 C 339.199219 122.300781 339.496094 121.960938 339.753906 121.6875 C 340.773438 120.59375 342.488281 120.535156 343.585938 121.554688 C 344.679688 122.570312 344.742188 124.285156 343.71875 125.378906 C 343.492188 125.621094 343.226562 125.925781 342.933594 126.257812 C 340.769531 128.707031 337.496094 132.40625 333.835938 132.414062 C 333.664062 132.429688 333.53125 132.402344 333.378906 132.375 C 330.15625 131.832031 328.636719 129.058594 327.53125 127.035156 C 327.15625 126.355469 326.535156 125.222656 326.207031 125.011719 C 326.027344 125.019531 326.054688 125.0625 325.867188 125.027344 C 325.363281 125.152344 324.132812 126.328125 323.472656 127.207031 C 321.832031 129.378906 319.761719 131.542969 316.582031 131.542969 C 316.523438 131.539062 316.453125 131.539062 316.390625 131.539062 Z M 316.390625 131.539062 " fill-opacity="1" fill-rule="nonzero"/><path fill="#fe00fe" d="M 182.695312 178.738281 C 181.945312 178.738281 181.132812 178.609375 180.238281 178.3125 C 177.292969 177.339844 174.636719 174.609375 173.539062 172.414062 C 172.871094 171.082031 173.410156 169.453125 174.746094 168.785156 C 176.082031 168.109375 177.710938 168.65625 178.382812 169.992188 C 178.953125 171.128906 180.554688 172.71875 181.9375 173.175781 C 182.929688 173.503906 183.167969 173.496094 184.816406 171.335938 C 185.671875 170.21875 186.636719 168.953125 188.054688 168.039062 C 192.878906 164.941406 196.035156 167.386719 198.125 169.003906 C 199.390625 169.988281 200.242188 170.605469 201.351562 170.738281 C 202.398438 170.660156 202.886719 170.054688 203.992188 168.0625 C 205.015625 166.214844 206.417969 163.683594 209.566406 163.230469 C 213.191406 162.871094 215.167969 165.34375 216.617188 167.144531 C 218.308594 169.246094 218.691406 169.386719 219.570312 169.128906 C 220.347656 168.9375 221.304688 166.554688 221.820312 165.273438 C 223.003906 162.3125 224.480469 158.640625 228.195312 158.113281 C 231.492188 157.257812 233.863281 159.71875 235.601562 161.53125 C 236.664062 162.636719 237.757812 163.777344 238.628906 163.886719 C 240.109375 163.148438 242.097656 159.121094 242.871094 157.558594 C 243.121094 157.054688 243.339844 156.601562 243.542969 156.226562 C 244.242188 154.90625 245.875 154.398438 247.203125 155.097656 C 248.527344 155.792969 249.03125 157.429688 248.332031 158.753906 C 248.15625 159.089844 247.957031 159.5 247.730469 159.957031 C 246.117188 163.21875 243.683594 168.148438 239.835938 169.199219 C 239.6875 169.238281 239.539062 169.265625 239.386719 169.28125 C 235.867188 169.648438 233.457031 167.113281 231.695312 165.28125 C 231.035156 164.59375 229.929688 163.445312 229.480469 163.359375 C 229.308594 163.414062 229.175781 163.449219 228.996094 163.46875 C 228.355469 163.53125 227.335938 166.070312 226.847656 167.289062 C 225.675781 170.21875 224.339844 173.542969 220.984375 174.355469 C 216.539062 175.683594 213.945312 172.464844 212.394531 170.539062 C 211.425781 169.335938 210.726562 168.570312 210.222656 168.605469 C 209.890625 168.65625 209.410156 169.460938 208.730469 170.6875 C 207.550781 172.816406 205.765625 176.03125 201.363281 176.15625 C 201.269531 176.160156 201.175781 176.15625 201.082031 176.148438 C 198.222656 175.929688 196.25 174.398438 194.804688 173.285156 C 192.925781 171.828125 192.59375 171.566406 190.988281 172.59375 C 190.371094 172.992188 189.765625 173.78125 189.128906 174.621094 C 187.898438 176.234375 185.988281 178.738281 182.695312 178.738281 Z M 182.695312 178.738281 " fill-opacity="1" fill-rule="nonzero"/><path fill="#fe00fe" d="M 180.414062 165.398438 C 179.667969 165.398438 178.851562 165.269531 177.957031 164.972656 C 175.007812 163.996094 172.359375 161.265625 171.257812 159.074219 C 170.589844 157.738281 171.132812 156.109375 172.46875 155.441406 C 173.800781 154.773438 175.433594 155.316406 176.105469 156.652344 C 176.671875 157.789062 178.273438 159.375 179.660156 159.832031 C 180.648438 160.160156 180.886719 160.15625 182.542969 157.992188 C 183.390625 156.875 184.355469 155.609375 185.777344 154.703125 C 190.597656 151.605469 193.753906 154.046875 195.84375 155.664062 C 197.113281 156.644531 197.964844 157.269531 199.070312 157.394531 C 200.125 157.316406 200.605469 156.714844 201.714844 154.722656 C 202.734375 152.875 204.136719 150.34375 207.285156 149.890625 C 210.910156 149.539062 212.890625 152 214.339844 153.804688 C 216.023438 155.902344 216.402344 156.054688 217.292969 155.789062 C 218.070312 155.597656 219.058594 153.125 219.53125 151.9375 C 220.726562 148.972656 222.199219 145.300781 225.914062 144.773438 C 229.214844 143.921875 231.578125 146.378906 233.320312 148.191406 C 234.378906 149.296875 235.476562 150.4375 236.34375 150.546875 C 237.820312 149.804688 239.808594 145.785156 240.582031 144.226562 C 240.832031 143.71875 241.058594 143.261719 241.261719 142.882812 C 241.957031 141.566406 243.597656 141.058594 244.921875 141.757812 C 246.246094 142.457031 246.746094 144.09375 246.050781 145.414062 C 245.871094 145.757812 245.667969 146.167969 245.441406 146.625 C 243.828125 149.882812 241.390625 154.808594 237.550781 155.855469 C 237.40625 155.898438 237.253906 155.925781 237.097656 155.9375 C 233.582031 156.289062 231.171875 153.773438 229.414062 151.941406 C 228.75 151.253906 227.648438 150.105469 227.199219 150.023438 C 227.023438 150.074219 226.894531 150.113281 226.710938 150.128906 C 226.074219 150.191406 225.050781 152.734375 224.566406 153.953125 C 223.394531 156.882812 222.058594 160.199219 218.707031 161.015625 C 214.25 162.347656 211.660156 159.121094 210.113281 157.195312 C 209.117188 155.960938 208.46875 155.199219 207.9375 155.261719 C 207.605469 155.3125 207.128906 156.121094 206.449219 157.347656 C 205.269531 159.472656 203.488281 162.691406 199.085938 162.816406 C 198.988281 162.816406 198.894531 162.816406 198.800781 162.808594 C 195.941406 162.59375 193.964844 161.0625 192.523438 159.945312 C 190.648438 158.492188 190.3125 158.226562 188.707031 159.253906 C 188.085938 159.65625 187.484375 160.441406 186.847656 161.277344 C 185.617188 162.894531 183.707031 165.398438 180.414062 165.398438 Z M 180.414062 165.398438 " fill-opacity="1" fill-rule="nonzero"/><path fill="#fe00fe" d="M 151.558594 190.59375 L 165.835938 172.632812 L 174.253906 193.976562 Z M 151.558594 190.59375 " fill-opacity="1" fill-rule="nonzero"/><path fill="#fe00fe" d="M 267.34375 151.953125 L 249.367188 137.691406 L 270.734375 129.277344 Z M 267.34375 151.953125 " fill-opacity="1" fill-rule="nonzero"/></svg>