<svg xmlns="http://www.w3.org/2000/svg" xmlns:xlink="http://www.w3.org/1999/xlink" width="300" zoomAndPan="magnify" viewBox="0 0 224.87999 374.999991" height="500" preserveAspectRatio="xMidYMid meet" version="1.0"><defs><clipPath id="d52e8d5aae"><path d="M 133 106 L 224.761719 106 L 224.761719 347 L 133 347 Z M 133 106 " clip-rule="nonzero"/></clipPath><clipPath id="74f2b3cfd6"><path d="M 131 104 L 224.761719 104 L 224.761719 349 L 131 349 Z M 131 104 " clip-rule="nonzero"/></clipPath><clipPath id="4ed325b1be"><path d="M 169 106 L 224.761719 106 L 224.761719 142 L 169 142 Z M 169 106 " clip-rule="nonzero"/></clipPath><clipPath id="55dd51abbc"><path d="M 108 116 L 224.761719 116 L 224.761719 355 L 108 355 Z M 108 116 " clip-rule="nonzero"/></clipPath><clipPath id="e68bca891f"><path d="M 106 114 L 224.761719 114 L 224.761719 357 L 106 357 Z M 106 114 " clip-rule="nonzero"/></clipPath><clipPath id="c6aee2f5b6"><path d="M 97 125 L 224.761719 125 L 224.761719 366 L 97 366 Z M 97 125 " clip-rule="nonzero"/></clipPath><clipPath id="6bdcfccde9"><path d="M 95 123 L 224.761719 123 L 224.761719 368 L 95 368 Z M 95 123 " clip-rule="nonzero"/></clipPath><clipPath id="0d71e1f9b2"><path d="M 132 125 L 224.761719 125 L 224.761719 161 L 132 161 Z M 132 125 " clip-rule="nonzero"/></clipPath><clipPath id="8ba8b787d1"><path d="M 71 135 L 224.761719 135 L 224.761719 374 L 71 374 Z M 71 135 " clip-rule="nonzero"/></clipPath><clipPath id="3fe5a300e5"><path d="M 69.855469 133 L 224.761719 133 L 224.761719 374.898438 L 69.855469 374.898438 Z M 69.855469 133 " clip-rule="nonzero"/></clipPath><clipPath id="dac66c0083"><path d="M 214 296 L 224.761719 296 L 224.761719 358 L 214 358 Z M 214 296 " clip-rule="nonzero"/></clipPath><clipPath id="d1f57fdf35"><path d="M 213 294 L 224.761719 294 L 224.761719 360 L 213 360 Z M 213 294 " clip-rule="nonzero"/></clipPath><clipPath id="7e00143fb4"><path d="M 135 147 L 224.761719 147 L 224.761719 178 L 135 178 Z M 135 147 " clip-rule="nonzero"/></clipPath><clipPath id="f9682bae83"><path d="M 134 145 L 224.761719 145 L 224.761719 180 L 134 180 Z M 134 145 " clip-rule="nonzero"/></clipPath><clipPath id="71e2834c33"><path d="M 125 205 L 224.761719 205 L 224.761719 302 L 125 302 Z M 125 205 " clip-rule="nonzero"/></clipPath><clipPath id="c5f51110af"><path d="M 123 209 L 224.761719 209 L 224.761719 298 L 123 298 Z M 123 209 " clip-rule="nonzero"/></clipPath><clipPath id="a3b462d9a4"><path d="M 212 178 L 224.761719 178 L 224.761719 198 L 212 198 Z M 212 178 " clip-rule="nonzero"/></clipPath><clipPath id="0b4cbeaee7"><path d="M 210 176 L 224.761719 176 L 224.761719 200 L 210 200 Z M 210 176 " clip-rule="nonzero"/></clipPath></defs><path fill="#0016ee" d="M 143.832031 275.585938 C 143.578125 275.585938 143.320312 275.535156 143.074219 275.417969 C 126.859375 267.6875 117.523438 248.390625 110.019531 232.890625 L 108.046875 228.835938 C 88.878906 189.773438 83.546875 137.316406 94.132812 91.941406 C 95.9375 83.597656 112.910156 9.933594 151.941406 2.515625 C 164.960938 0.121094 175.390625 4.65625 180.617188 14.96875 C 187.230469 28.023438 183.550781 46.554688 172.242188 57.164062 C 161.898438 66.78125 149.214844 70.925781 136.945312 74.9375 C 119.476562 80.640625 102.980469 86.035156 94.886719 106.625 C 94.867188 106.675781 94.84375 106.722656 94.820312 106.765625 C 88.363281 147.890625 94.3125 192.894531 111.195312 227.296875 L 113.175781 231.367188 C 120.4375 246.375 129.476562 265.050781 144.585938 272.257812 C 145.460938 272.675781 145.828125 273.714844 145.410156 274.589844 C 145.113281 275.222656 144.484375 275.585938 143.832031 275.585938 Z M 158.621094 5.378906 C 156.707031 5.378906 154.691406 5.570312 152.589844 5.957031 C 115.789062 12.953125 99.3125 84.5625 97.558594 92.707031 C 97.367188 93.503906 97.1875 94.308594 97.011719 95.113281 C 106.640625 81.15625 121.449219 76.316406 135.855469 71.605469 C 147.765625 67.714844 160.078125 63.695312 169.851562 54.605469 C 180.082031 45.011719 183.4375 28.292969 177.492188 16.550781 C 173.78125 9.230469 167.195312 5.378906 158.621094 5.378906 Z M 158.621094 5.378906 " fill-opacity="1" fill-rule="nonzero"/><path fill="#0016ee" d="M 94.296875 109.453125 C 93.515625 107.332031 90.515625 100.527344 93.128906 98.917969 C 95.308594 97.582031 95.777344 100.144531 95.449219 101.539062 C 95.066406 103.179688 93.863281 105.585938 92.179688 106.234375 C 92.898438 106.640625 93.617188 107.050781 94.335938 107.460938 C 93.578125 105.660156 93.253906 103.285156 93.683594 101.382812 C 93.878906 100.519531 93.609375 101.65625 93.324219 101.394531 C 93.652344 101.695312 93.75 102.421875 93.800781 102.828125 C 93.875 103.542969 93.898438 104.871094 93.039062 105.0625 C 93.777344 105.628906 94.515625 106.195312 95.257812 106.753906 C 95.148438 106.300781 95.191406 105.855469 95.394531 105.425781 C 96.082031 103.265625 92.699219 102.351562 92.011719 104.496094 C 91.769531 105.257812 91.683594 105.953125 91.753906 106.753906 C 91.859375 107.917969 92.789062 108.703125 93.972656 108.445312 C 98.285156 107.484375 98.5625 99.550781 94.496094 98.0625 C 88.882812 96.015625 89.816406 105.679688 90.957031 108.394531 C 91.292969 109.199219 92.140625 109.992188 93.113281 109.617188 C 97.992188 107.730469 102.867188 96.5 95.042969 95.351562 C 86.0625 94.039062 89.222656 105.792969 90.914062 110.386719 C 91.6875 112.480469 95.074219 111.574219 94.296875 109.453125 Z M 94.296875 109.453125 " fill-opacity="1" fill-rule="nonzero"/><g clip-path="url(#d52e8d5aae)"><path fill="#fe00fe" d="M 371.636719 225.308594 C 371.636719 159.695312 318.378906 106.496094 252.683594 106.496094 C 235.523438 106.496094 219.21875 110.15625 204.480469 116.695312 L 204.496094 116.652344 C 196.527344 119.839844 177.609375 127.402344 177.273438 127.625 C 177.273438 127.625 133.738281 186.265625 133.738281 225.308594 C 133.738281 253.167969 143.34375 278.796875 159.429688 299.054688 C 181.21875 326.507812 269.863281 346.441406 269.863281 346.441406 L 280.460938 342.128906 L 292.015625 337.433594 C 295.730469 336.136719 299.351562 334.660156 302.890625 333.015625 L 303.546875 332.75 L 303.511719 332.734375 C 343.777344 313.699219 371.636719 272.757812 371.636719 225.308594 Z M 371.636719 225.308594 " fill-opacity="1" fill-rule="nonzero"/></g><g clip-path="url(#74f2b3cfd6)"><path fill="#0016ee" d="M 269.867188 348.191406 C 269.734375 348.191406 269.609375 348.175781 269.480469 348.144531 C 265.835938 347.328125 179.980469 327.761719 158.054688 300.144531 C 141.003906 278.664062 131.988281 252.785156 131.988281 225.308594 C 131.988281 186.136719 174.074219 128.996094 175.867188 126.582031 C 175.984375 126.417969 176.132812 126.28125 176.304688 126.164062 C 176.585938 125.980469 176.753906 125.867188 201.230469 116.074219 L 203.847656 115.027344 C 203.933594 114.988281 204.027344 114.964844 204.113281 114.941406 C 219.5 108.175781 235.839844 104.746094 252.683594 104.746094 C 319.242188 104.746094 373.390625 158.832031 373.390625 225.308594 C 373.390625 271.566406 346.382812 314.261719 304.554688 334.175781 C 304.449219 334.253906 304.332031 334.316406 304.207031 334.371094 L 303.554688 334.636719 C 300.054688 336.265625 296.339844 337.777344 292.589844 339.085938 L 270.523438 348.0625 C 270.3125 348.148438 270.089844 348.191406 269.867188 348.191406 Z M 178.414062 129.035156 C 174.765625 134.042969 135.492188 188.875 135.492188 225.308594 C 135.492188 251.988281 144.246094 277.113281 160.800781 297.96875 C 181.09375 323.535156 262.332031 342.894531 269.71875 344.613281 L 291.355469 335.816406 C 295.074219 334.511719 298.679688 333.046875 302.152344 331.429688 L 302.582031 331.25 C 302.640625 331.21875 302.699219 331.183594 302.761719 331.152344 C 343.539062 311.871094 369.886719 270.328125 369.886719 225.308594 C 369.886719 160.761719 317.308594 108.25 252.683594 108.25 C 236.203125 108.25 220.226562 111.628906 205.191406 118.296875 C 205.0625 118.355469 204.929688 118.394531 204.796875 118.421875 L 202.535156 119.328125 C 195.371094 122.191406 180.945312 127.964844 178.414062 129.035156 Z M 178.414062 129.035156 " fill-opacity="1" fill-rule="nonzero"/></g><g clip-path="url(#4ed325b1be)"><path fill="#0016ee" d="M 273.90625 138.644531 C 278.269531 135.089844 283.40625 129.214844 279.507812 124.578125 C 278.632812 123.539062 277.753906 122.457031 277.523438 121.082031 C 277.425781 120.488281 277.359375 119.671875 277.757812 119.167969 C 278.398438 118.355469 279.898438 119.117188 280.417969 118.171875 C 280.875 117.328125 280.179688 116.144531 279.597656 115.5625 C 278.742188 114.691406 277.40625 112.769531 278.960938 112.011719 C 280.238281 111.386719 281.28125 111.550781 281.628906 110.042969 C 272.867188 107.984375 262.078125 106.496094 252.683594 106.496094 C 235.523438 106.496094 219.21875 110.15625 204.496094 116.652344 C 196.527344 119.839844 177.605469 127.402344 177.269531 127.625 C 177.269531 127.625 173.972656 132.074219 169.210938 139.304688 C 181.960938 134.535156 196.855469 133.503906 208.332031 135.226562 C 212.765625 135.890625 219.480469 137.566406 222.355469 141.386719 C 231.828125 137.972656 242.03125 136.078125 252.683594 136.078125 C 260.003906 136.078125 267.101562 136.988281 273.90625 138.644531 Z M 273.90625 138.644531 " fill-opacity="1" fill-rule="nonzero"/></g><g clip-path="url(#55dd51abbc)"><path fill="#ff6e27" d="M 227.269531 116.660156 C 161.582031 116.660156 108.324219 169.859375 108.324219 235.46875 C 108.324219 301.082031 161.582031 354.277344 227.269531 354.277344 C 292.960938 354.277344 346.21875 301.082031 346.21875 235.46875 C 346.21875 169.855469 292.960938 116.660156 227.269531 116.660156 Z M 227.269531 116.660156 " fill-opacity="1" fill-rule="nonzero"/></g><g clip-path="url(#e68bca891f)"><path fill="#0016ee" d="M 227.269531 356.027344 C 160.714844 356.027344 106.570312 301.945312 106.570312 235.46875 C 106.570312 168.988281 160.714844 114.90625 227.269531 114.90625 C 293.828125 114.90625 347.972656 168.988281 347.972656 235.46875 C 347.972656 301.945312 293.828125 356.027344 227.269531 356.027344 Z M 227.269531 118.410156 C 162.648438 118.410156 110.078125 170.921875 110.078125 235.464844 C 110.078125 300.011719 162.652344 352.527344 227.269531 352.527344 C 291.890625 352.527344 344.46875 300.011719 344.46875 235.464844 C 344.46875 170.921875 291.890625 118.410156 227.269531 118.410156 Z M 227.269531 118.410156 " fill-opacity="1" fill-rule="nonzero"/></g><g clip-path="url(#c6aee2f5b6)"><path fill="#fe00fe" d="M 334.945312 244.179688 C 334.945312 178.566406 281.691406 125.371094 216 125.371094 C 198.835938 125.371094 182.53125 129.03125 167.789062 135.570312 L 167.804688 135.523438 C 159.84375 138.714844 140.914062 146.277344 140.582031 146.503906 C 140.582031 146.503906 97.054688 205.140625 97.054688 244.183594 C 97.054688 272.042969 106.660156 297.671875 122.742188 317.933594 C 144.53125 345.382812 233.175781 365.3125 233.175781 365.3125 L 243.773438 361.007812 L 255.328125 356.308594 C 259.039062 355.015625 262.667969 353.535156 266.203125 351.886719 L 266.859375 351.625 L 266.824219 351.609375 C 307.085938 332.566406 334.945312 291.625 334.945312 244.179688 Z M 334.945312 244.179688 " fill-opacity="1" fill-rule="nonzero"/></g><g clip-path="url(#6bdcfccde9)"><path fill="#0016ee" d="M 233.175781 367.0625 C 233.046875 367.0625 232.917969 367.050781 232.792969 367.019531 C 229.144531 366.203125 143.289062 346.636719 121.367188 319.019531 C 104.3125 297.535156 95.300781 271.65625 95.300781 244.179688 C 95.300781 205.011719 137.378906 147.871094 139.171875 145.460938 C 139.289062 145.296875 139.4375 145.164062 139.601562 145.050781 C 139.894531 144.851562 140.042969 144.753906 163.160156 135.5 L 167.152344 133.898438 C 167.246094 133.863281 167.347656 133.832031 167.445312 133.808594 C 182.816406 127.050781 199.152344 123.617188 216 123.617188 C 282.554688 123.617188 336.699219 177.703125 336.699219 244.179688 C 336.699219 290.433594 309.691406 333.128906 267.867188 353.054688 C 267.757812 353.128906 267.636719 353.195312 267.511719 353.246094 L 266.855469 353.511719 C 263.355469 355.144531 259.644531 356.65625 255.90625 357.960938 L 233.835938 366.933594 C 233.625 367.019531 233.402344 367.0625 233.175781 367.0625 Z M 141.71875 147.90625 C 138.078125 152.917969 98.808594 207.75 98.808594 244.183594 C 98.808594 270.855469 107.558594 295.984375 124.113281 316.847656 C 144.402344 342.40625 225.644531 361.769531 233.027344 363.484375 L 254.667969 354.6875 C 258.378906 353.390625 261.980469 351.925781 265.457031 350.300781 L 265.898438 350.125 C 265.957031 350.089844 266.011719 350.058594 266.074219 350.027344 C 306.847656 330.746094 333.191406 289.195312 333.191406 244.183594 C 333.191406 179.636719 280.621094 127.121094 216 127.121094 C 199.515625 127.121094 183.53125 130.503906 168.503906 137.171875 C 168.367188 137.230469 168.226562 137.277344 168.085938 137.300781 L 164.460938 138.75 C 157.210938 141.652344 144.117188 146.894531 141.71875 147.90625 Z M 141.71875 147.90625 " fill-opacity="1" fill-rule="nonzero"/></g><g clip-path="url(#0d71e1f9b2)"><path fill="#0016ee" d="M 237.222656 157.519531 C 241.578125 153.960938 246.71875 148.089844 242.8125 143.449219 C 241.945312 142.414062 241.066406 141.324219 240.835938 139.953125 C 240.738281 139.359375 240.671875 138.539062 241.070312 138.039062 C 241.714844 137.226562 243.210938 137.992188 243.726562 137.046875 C 244.1875 136.203125 243.492188 135.019531 242.910156 134.433594 C 242.050781 133.566406 240.722656 131.644531 242.273438 130.882812 C 243.554688 130.253906 244.59375 130.421875 244.941406 128.910156 C 236.175781 126.863281 225.390625 125.371094 216 125.371094 C 198.835938 125.371094 182.53125 129.03125 167.804688 135.523438 C 159.84375 138.714844 140.917969 146.277344 140.582031 146.503906 C 140.582031 146.503906 137.289062 150.945312 132.523438 158.171875 C 145.269531 153.410156 160.167969 152.378906 171.640625 154.105469 C 176.078125 154.765625 182.796875 156.441406 185.667969 160.261719 C 195.140625 156.847656 205.34375 154.949219 216 154.949219 C 223.316406 154.949219 230.417969 155.859375 237.222656 157.519531 Z M 237.222656 157.519531 " fill-opacity="1" fill-rule="nonzero"/></g><g clip-path="url(#8ba8b787d1)"><path fill="#ff6e27" d="M 190.582031 135.53125 C 124.894531 135.53125 71.636719 188.726562 71.636719 254.34375 C 71.636719 319.953125 124.894531 373.152344 190.582031 373.152344 C 256.273438 373.152344 309.53125 319.953125 309.53125 254.34375 C 309.53125 188.726562 256.273438 135.53125 190.582031 135.53125 Z M 190.582031 135.53125 " fill-opacity="1" fill-rule="nonzero"/></g><g clip-path="url(#3fe5a300e5)"><path fill="#0016ee" d="M 190.582031 374.898438 C 124.027344 374.898438 69.882812 320.820312 69.882812 254.34375 C 69.882812 187.863281 124.027344 133.78125 190.582031 133.78125 C 257.136719 133.78125 311.28125 187.863281 311.28125 254.34375 C 311.28125 320.820312 257.136719 374.898438 190.582031 374.898438 Z M 190.582031 137.28125 C 125.960938 137.28125 73.390625 189.796875 73.390625 254.34375 C 73.390625 318.886719 125.960938 371.398438 190.582031 371.398438 C 255.203125 371.398438 307.777344 318.886719 307.777344 254.34375 C 307.777344 189.796875 255.203125 137.28125 190.582031 137.28125 Z M 190.582031 137.28125 " fill-opacity="1" fill-rule="nonzero"/></g><path fill="#defe47" d="M 130.8125 183.175781 C 129.640625 178.082031 128.363281 173.011719 127.0625 167.945312 C 108.183594 181.847656 93.988281 201.757812 87.367188 224.835938 C 91.046875 229.839844 94.90625 234.707031 98.699219 239.632812 C 102.300781 217.101562 114.050781 197.25 130.8125 183.175781 Z M 130.8125 183.175781 " fill-opacity="1" fill-rule="nonzero"/><path fill="#0016ee" d="M 98.695312 241.378906 C 98.160156 241.378906 97.644531 241.132812 97.308594 240.695312 L 94.179688 236.65625 C 91.40625 233.082031 88.636719 229.511719 85.953125 225.871094 C 85.636719 225.429688 85.535156 224.871094 85.683594 224.351562 C 92.277344 201.367188 106.605469 180.835938 126.023438 166.539062 C 126.492188 166.191406 127.101562 166.101562 127.652344 166.296875 C 128.199219 166.496094 128.617188 166.949219 128.761719 167.511719 C 130.066406 172.59375 131.347656 177.675781 132.523438 182.78125 C 132.671875 183.421875 132.449219 184.089844 131.941406 184.515625 C 115.070312 198.6875 103.875 218.359375 100.429688 239.90625 C 100.316406 240.597656 99.808594 241.15625 99.128906 241.324219 C 98.984375 241.363281 98.839844 241.378906 98.695312 241.378906 Z M 89.289062 224.492188 C 91.792969 227.867188 94.371094 231.191406 96.949219 234.511719 L 97.675781 235.453125 C 101.855469 214.953125 112.816406 196.316406 128.867188 182.53125 C 127.964844 178.65625 127 174.792969 126.019531 170.929688 C 108.507812 184.507812 95.53125 203.410156 89.289062 224.492188 Z M 89.289062 224.492188 " fill-opacity="1" fill-rule="nonzero"/><path fill="#defe47" d="M 118.191406 312.617188 C 105.28125 296.667969 97.523438 276.40625 97.523438 254.34375 C 97.523438 252.089844 97.628906 249.863281 97.789062 247.652344 C 93.800781 242.289062 89.667969 237.042969 85.621094 231.730469 C 84.046875 239.023438 83.199219 246.585938 83.199219 254.34375 C 83.199219 278.796875 91.472656 301.335938 105.332031 319.386719 C 109.644531 317.175781 113.925781 314.914062 118.191406 312.617188 Z M 118.191406 312.617188 " fill-opacity="1" fill-rule="nonzero"/><path fill="#0016ee" d="M 105.332031 321.132812 C 104.800781 321.132812 104.28125 320.894531 103.941406 320.449219 C 89.222656 301.28125 81.445312 278.421875 81.445312 254.34375 C 81.445312 246.664062 82.273438 238.933594 83.910156 231.363281 C 84.054688 230.695312 84.574219 230.171875 85.242188 230.023438 C 85.90625 229.875 86.601562 230.128906 87.015625 230.671875 C 88.5 232.621094 89.996094 234.558594 91.492188 236.5 C 94.082031 239.851562 96.667969 243.207031 99.195312 246.609375 C 99.445312 246.945312 99.570312 247.359375 99.539062 247.777344 C 99.359375 250.207031 99.273438 252.351562 99.273438 254.34375 C 99.273438 275.054688 106.476562 295.359375 119.550781 311.515625 C 119.878906 311.925781 120.011719 312.449219 119.910156 312.964844 C 119.804688 313.472656 119.480469 313.910156 119.019531 314.160156 C 114.746094 316.460938 110.453125 318.726562 106.128906 320.945312 C 105.875 321.074219 105.601562 321.132812 105.332031 321.132812 Z M 86.589844 235.875 C 85.5 241.988281 84.949219 248.183594 84.949219 254.34375 C 84.949219 277.160156 92.167969 298.839844 105.839844 317.15625 C 109.082031 315.484375 112.308594 313.785156 115.519531 312.0625 C 102.769531 295.5625 95.773438 275.152344 95.773438 254.34375 C 95.773438 252.449219 95.847656 250.421875 95.996094 248.171875 C 93.605469 244.964844 91.160156 241.800781 88.71875 238.636719 C 88.007812 237.714844 87.300781 236.800781 86.589844 235.875 Z M 86.589844 235.875 " fill-opacity="1" fill-rule="nonzero"/><path fill="#defe47" d="M 182.785156 346.921875 C 159.582031 344.996094 138.785156 334.515625 123.53125 318.679688 C 119.417969 321.300781 115.25 323.832031 110.957031 326.15625 C 129.015625 346.089844 154.433594 359.246094 182.90625 361.265625 C 182.777344 356.488281 182.769531 351.710938 182.785156 346.921875 Z M 182.785156 346.921875 " fill-opacity="1" fill-rule="nonzero"/><path fill="#0016ee" d="M 182.90625 363.015625 C 182.867188 363.015625 182.824219 363.015625 182.785156 363.011719 C 154.664062 361.019531 128.695312 348.347656 109.65625 327.332031 C 109.300781 326.933594 109.140625 326.390625 109.230469 325.863281 C 109.324219 325.332031 109.652344 324.875 110.121094 324.617188 C 113.878906 322.582031 117.839844 320.226562 122.59375 317.203125 C 123.289062 316.757812 124.222656 316.867188 124.796875 317.464844 C 140.242188 333.503906 160.890625 343.347656 182.925781 345.179688 C 183.839844 345.253906 184.539062 346.015625 184.535156 346.925781 C 184.519531 351.695312 184.527344 356.457031 184.65625 361.214844 C 184.671875 361.710938 184.472656 362.1875 184.117188 362.53125 C 183.789062 362.84375 183.355469 363.015625 182.90625 363.015625 Z M 113.761719 326.609375 C 131.597656 345.507812 155.371094 357.074219 181.109375 359.363281 C 181.035156 355.753906 181.019531 352.136719 181.027344 348.519531 C 159.21875 346.328125 138.8125 336.578125 123.273438 320.917969 C 119.773438 323.125 116.683594 324.972656 113.761719 326.609375 Z M 113.761719 326.609375 " fill-opacity="1" fill-rule="nonzero"/><path fill="#defe47" d="M 209.433594 345.304688 C 203.984375 346.425781 198.371094 347.105469 192.621094 347.226562 C 193.003906 351.996094 193.234375 356.753906 193.242188 361.523438 C 199.988281 361.355469 206.570312 360.535156 212.953125 359.183594 C 211.507812 354.628906 210.207031 350.039062 209.433594 345.304688 Z M 209.433594 345.304688 " fill-opacity="1" fill-rule="nonzero"/><path fill="#0016ee" d="M 193.246094 363.273438 C 192.789062 363.273438 192.351562 363.097656 192.023438 362.777344 C 191.683594 362.449219 191.492188 361.996094 191.492188 361.523438 C 191.480469 357.042969 191.277344 352.410156 190.875 347.367188 C 190.835938 346.882812 191 346.410156 191.320312 346.054688 C 191.648438 345.695312 192.101562 345.484375 192.582031 345.476562 C 198.015625 345.359375 203.5625 344.726562 209.082031 343.59375 C 209.550781 343.488281 210.035156 343.59375 210.425781 343.863281 C 210.820312 344.132812 211.089844 344.554688 211.164062 345.023438 C 211.972656 349.976562 213.367188 354.695312 214.625 358.652344 C 214.773438 359.125 214.714844 359.636719 214.464844 360.066406 C 214.21875 360.492188 213.800781 360.792969 213.316406 360.894531 C 206.660156 362.308594 199.921875 363.109375 193.289062 363.273438 C 193.269531 363.273438 193.257812 363.273438 193.246094 363.273438 Z M 194.507812 348.921875 C 194.78125 352.695312 194.933594 356.253906 194.984375 359.714844 C 200.195312 359.492188 205.46875 358.871094 210.699219 357.855469 C 209.726562 354.683594 208.734375 351.125 208.019531 347.367188 C 203.503906 348.210938 198.972656 348.734375 194.507812 348.921875 Z M 194.507812 348.921875 " fill-opacity="1" fill-rule="nonzero"/><g clip-path="url(#dac66c0083)"><path fill="#defe47" d="M 273.503906 296.410156 C 261.679688 319.550781 240.4375 337.117188 214.855469 344.027344 C 215.644531 348.753906 216.949219 353.332031 218.394531 357.878906 C 247.9375 349.957031 272.480469 329.730469 286.175781 303.070312 C 282.082031 300.644531 277.859375 298.417969 273.503906 296.410156 Z M 273.503906 296.410156 " fill-opacity="1" fill-rule="nonzero"/></g><g clip-path="url(#d1f57fdf35)"><path fill="#0016ee" d="M 218.394531 359.632812 C 217.648438 359.632812 216.960938 359.152344 216.726562 358.410156 C 215.429688 354.335938 213.988281 349.472656 213.128906 344.3125 C 212.984375 343.425781 213.53125 342.570312 214.398438 342.335938 C 239.226562 335.628906 260.199219 318.601562 271.945312 295.613281 C 272.371094 294.773438 273.382812 294.425781 274.242188 294.820312 C 278.582031 296.824219 282.902344 299.09375 287.070312 301.566406 C 287.867188 302.039062 288.160156 303.046875 287.738281 303.871094 C 273.644531 331.304688 248.53125 351.609375 218.851562 359.570312 C 218.695312 359.613281 218.546875 359.632812 218.394531 359.632812 Z M 216.863281 345.285156 C 217.578125 349.011719 218.582031 352.578125 219.558594 355.742188 C 247.050781 347.890625 270.335938 329.058594 283.847656 303.738281 C 280.714844 301.933594 277.511719 300.25 274.277344 298.710938 C 262.203125 321.335938 241.421875 338.195312 216.863281 345.285156 Z M 216.863281 345.285156 " fill-opacity="1" fill-rule="nonzero"/></g><g clip-path="url(#7e00143fb4)"><path fill="#defe47" d="M 140.03125 176.40625 C 154.601562 166.941406 171.9375 161.382812 190.574219 161.375 C 209.804688 161.375 228.132812 167.1875 243.589844 177.933594 C 248.761719 176.457031 253.699219 173.859375 258.578125 171.300781 C 239.4375 155.601562 215.664062 147.066406 190.574219 147.070312 C 170.546875 147.070312 151.832031 152.644531 135.773438 162.222656 C 135.84375 162.363281 135.945312 162.460938 135.992188 162.621094 C 137.449219 167.191406 138.804688 171.78125 140.03125 176.40625 Z M 140.03125 176.40625 " fill-opacity="1" fill-rule="nonzero"/></g><g clip-path="url(#f9682bae83)"><path fill="#0016ee" d="M 243.589844 179.683594 C 243.238281 179.683594 242.886719 179.578125 242.589844 179.367188 C 227.300781 168.742188 209.316406 163.125 190.574219 163.125 C 172.976562 163.132812 155.828125 168.234375 140.988281 177.875 C 140.519531 178.183594 139.925781 178.246094 139.402344 178.042969 C 138.878906 177.839844 138.480469 177.402344 138.335938 176.855469 C 137.175781 172.480469 135.863281 167.996094 134.320312 163.148438 C 134.347656 163.273438 134.265625 163.121094 134.210938 163.019531 C 133.792969 162.199219 134.082031 161.195312 134.875 160.71875 C 151.765625 150.648438 171.027344 145.320312 190.574219 145.320312 C 216.152344 145.320312 240.042969 153.835938 259.6875 169.949219 C 260.144531 170.324219 260.382812 170.898438 260.320312 171.480469 C 260.261719 172.066406 259.914062 172.585938 259.390625 172.851562 C 254.378906 175.480469 249.359375 178.109375 244.074219 179.617188 C 243.914062 179.660156 243.753906 179.683594 243.589844 179.683594 Z M 190.574219 159.625 C 209.753906 159.625 228.167969 165.289062 243.898438 176.015625 C 247.796875 174.808594 251.636719 172.933594 255.386719 170.992188 C 236.785156 156.480469 214.4375 148.820312 190.589844 148.820312 C 172.148438 148.820312 153.984375 153.714844 137.945312 162.980469 C 139.121094 166.699219 140.164062 170.222656 141.105469 173.660156 C 156.039062 164.476562 173.089844 159.632812 190.574219 159.625 Z M 190.574219 159.625 " fill-opacity="1" fill-rule="nonzero"/></g><g clip-path="url(#71e2834c33)"><path fill="#0016ee" d="M 146.722656 301.855469 C 137.6875 301.855469 131.214844 299.207031 128.003906 294.191406 C 123.433594 287.039062 126.042969 276.085938 135.34375 263.355469 C 144.320312 251.074219 158.535156 238.402344 175.378906 227.65625 C 197.550781 213.527344 220.597656 205.09375 237.019531 205.09375 C 246.0625 205.09375 252.535156 207.746094 255.742188 212.769531 C 260.3125 219.914062 257.707031 230.867188 248.402344 243.597656 C 239.429688 255.878906 225.214844 268.550781 208.367188 279.289062 C 186.199219 293.421875 163.15625 301.855469 146.722656 301.855469 Z M 237.019531 208.59375 C 221.472656 208.59375 198.574219 217.027344 177.261719 230.613281 C 160.777344 241.121094 146.894531 253.484375 138.175781 265.417969 C 129.902344 276.738281 127.273438 286.539062 130.960938 292.304688 C 134.15625 297.304688 141.296875 298.351562 146.722656 298.351562 C 162.28125 298.351562 185.175781 289.917969 206.484375 276.335938 C 222.96875 265.828125 236.851562 253.464844 245.574219 241.53125 C 253.84375 230.210938 256.472656 220.410156 252.785156 214.652344 C 249.585938 209.640625 242.449219 208.59375 237.019531 208.59375 Z M 237.019531 208.59375 " fill-opacity="1" fill-rule="nonzero"/></g><path fill="#0016ee" d="M 194.644531 329.089844 C 177.769531 329.089844 163.097656 296.472656 161.238281 254.839844 C 159.355469 212.449219 171.332031 178.640625 188.511719 177.875 L 189.101562 177.859375 C 205.980469 177.859375 220.652344 210.476562 222.503906 252.117188 C 224.386719 294.507812 212.410156 328.308594 195.234375 329.074219 Z M 189.101562 181.363281 L 188.667969 181.367188 C 173.960938 182.023438 163.007812 215.597656 164.742188 254.679688 C 166.488281 293.777344 179.898438 325.589844 194.644531 325.589844 L 195.074219 325.582031 C 209.785156 324.925781 220.738281 291.355469 219 252.273438 C 217.261719 213.171875 203.847656 181.363281 189.101562 181.363281 Z M 189.101562 181.363281 " fill-opacity="1" fill-rule="nonzero"/><g clip-path="url(#c5f51110af)"><path fill="#0016ee" d="M 236.40625 297.867188 C 220.207031 297.867188 198.824219 291.589844 177.738281 280.648438 C 160.007812 271.445312 144.722656 260.082031 134.691406 248.644531 C 124.292969 236.785156 120.726562 226.113281 124.640625 218.582031 C 127.875 212.371094 135.726562 209.082031 147.34375 209.082031 C 163.542969 209.082031 184.925781 215.355469 206.011719 226.296875 C 243.703125 245.867188 267.023438 273.132812 259.097656 288.371094 C 255.867188 294.585938 248.019531 297.867188 236.40625 297.867188 Z M 147.347656 212.582031 C 137.265625 212.582031 130.308594 215.289062 127.75 220.195312 C 124.59375 226.265625 128.085938 235.792969 137.328125 246.339844 C 147.078125 257.457031 162 268.539062 179.355469 277.542969 C 199.65625 288.078125 220.984375 294.367188 236.410156 294.367188 C 246.480469 294.367188 253.441406 291.667969 255.996094 286.757812 C 262.777344 273.710938 239.144531 247.445312 204.398438 229.402344 C 184.097656 218.871094 162.769531 212.582031 147.347656 212.582031 Z M 147.347656 212.582031 " fill-opacity="1" fill-rule="nonzero"/></g><path fill="#ff6e27" d="M 190.882812 239.789062 C 183.316406 239.789062 177.183594 245.914062 177.183594 253.476562 C 177.183594 261.03125 183.316406 267.15625 190.882812 267.15625 C 198.445312 267.15625 204.582031 261.03125 204.582031 253.476562 C 204.582031 245.914062 198.445312 239.789062 190.882812 239.789062 Z M 190.882812 239.789062 " fill-opacity="1" fill-rule="nonzero"/><path fill="#0016ee" d="M 190.882812 268.90625 C 182.363281 268.90625 175.429688 261.984375 175.429688 253.476562 C 175.429688 244.964844 182.363281 238.039062 190.882812 238.039062 C 199.402344 238.039062 206.335938 244.964844 206.335938 253.476562 C 206.332031 261.984375 199.402344 268.90625 190.882812 268.90625 Z M 190.882812 241.539062 C 184.296875 241.539062 178.9375 246.894531 178.9375 253.476562 C 178.9375 260.054688 184.296875 265.40625 190.882812 265.40625 C 197.46875 265.40625 202.828125 260.054688 202.828125 253.476562 C 202.828125 246.894531 197.46875 241.539062 190.882812 241.539062 Z M 190.882812 241.539062 " fill-opacity="1" fill-rule="nonzero"/><path fill="#0016ee" d="M 190.882812 246.015625 C 186.761719 246.015625 183.421875 249.359375 183.421875 253.476562 C 183.421875 257.585938 186.761719 260.925781 190.882812 260.925781 C 195.011719 260.925781 198.351562 257.585938 198.351562 253.476562 C 198.351562 249.355469 195.011719 246.015625 190.882812 246.015625 Z M 190.882812 246.015625 " fill-opacity="1" fill-rule="nonzero"/><path fill="#defe47" d="M 194.585938 179.621094 C 194.585938 182.933594 191.902344 185.609375 188.589844 185.609375 C 185.277344 185.609375 182.59375 182.929688 182.59375 179.621094 C 182.59375 176.308594 185.277344 173.625 188.589844 173.625 C 191.902344 173.625 194.585938 176.308594 194.585938 179.621094 Z M 194.585938 179.621094 " fill-opacity="1" fill-rule="nonzero"/><path fill="#0016ee" d="M 188.589844 187.363281 C 184.316406 187.363281 180.839844 183.886719 180.839844 179.621094 C 180.839844 175.351562 184.316406 171.875 188.589844 171.875 C 192.859375 171.875 196.339844 175.351562 196.339844 179.621094 C 196.339844 183.886719 192.859375 187.363281 188.589844 187.363281 Z M 188.589844 175.375 C 186.246094 175.375 184.34375 177.28125 184.34375 179.621094 C 184.34375 181.960938 186.246094 183.859375 188.589844 183.859375 C 190.929688 183.859375 192.832031 181.960938 192.832031 179.621094 C 192.832031 177.28125 190.929688 175.375 188.589844 175.375 Z M 188.589844 175.375 " fill-opacity="1" fill-rule="nonzero"/><path fill="#defe47" d="M 134.632812 294.957031 C 134.632812 298.269531 131.945312 300.949219 128.632812 300.949219 C 125.320312 300.949219 122.636719 298.269531 122.636719 294.957031 C 122.636719 291.644531 125.320312 288.964844 128.632812 288.964844 C 131.945312 288.964844 134.632812 291.644531 134.632812 294.957031 Z M 134.632812 294.957031 " fill-opacity="1" fill-rule="nonzero"/><path fill="#0016ee" d="M 128.632812 302.699219 C 124.363281 302.699219 120.882812 299.226562 120.882812 294.953125 C 120.882812 290.6875 124.363281 287.214844 128.632812 287.214844 C 132.910156 287.214844 136.386719 290.6875 136.386719 294.953125 C 136.386719 299.226562 132.910156 302.699219 128.632812 302.699219 Z M 128.632812 290.714844 C 126.292969 290.714844 124.390625 292.617188 124.390625 294.957031 C 124.390625 297.296875 126.292969 299.199219 128.632812 299.199219 C 130.976562 299.199219 132.882812 297.292969 132.882812 294.957031 C 132.882812 292.617188 130.976562 290.714844 128.632812 290.714844 Z M 128.632812 290.714844 " fill-opacity="1" fill-rule="nonzero"/><path fill="#ffffff" d="M 171.960938 329.566406 C 169.269531 330.988281 165.09375 330.804688 162.613281 330.5625 C 157.078125 330.011719 150.671875 326.75 147.761719 321.917969 C 146.734375 320.207031 146.015625 318.089844 146.292969 316.082031 C 146.492188 314.65625 148.128906 312.570312 149.675781 312.351562 C 152.785156 311.90625 154.539062 314.953125 156.550781 316.707031 C 158.871094 318.722656 161.835938 319.914062 164.828125 320.570312 C 168.167969 321.300781 175.277344 320.894531 174.457031 326.234375 C 174.210938 327.828125 173.253906 328.886719 171.960938 329.566406 Z M 171.960938 329.566406 " fill-opacity="1" fill-rule="nonzero"/><path fill="#0016ee" d="M 165.796875 332.480469 C 164.550781 332.480469 163.382812 332.394531 162.441406 332.308594 C 155.882812 331.65625 149.230469 327.753906 146.257812 322.820312 C 144.863281 320.492188 144.253906 318.015625 144.558594 315.84375 C 144.855469 313.703125 147.050781 310.957031 149.429688 310.617188 C 152.644531 310.148438 154.765625 312.351562 156.390625 314.078125 C 156.828125 314.542969 157.257812 315 157.703125 315.386719 C 159.566406 317.007812 162.09375 318.179688 165.207031 318.859375 C 165.804688 318.992188 166.53125 319.082031 167.3125 319.175781 C 170.078125 319.523438 173.519531 319.957031 175.265625 322.265625 C 176.136719 323.414062 176.449219 324.835938 176.191406 326.5 C 175.875 328.511719 174.699219 330.105469 172.777344 331.117188 C 171.0625 332.019531 168.710938 332.480469 165.796875 332.480469 Z M 150.28125 314.058594 C 150.167969 314.058594 150.046875 314.066406 149.925781 314.082031 C 149.289062 314.171875 148.136719 315.53125 148.027344 316.324219 C 147.769531 318.1875 148.691406 320.0625 149.261719 321.015625 C 151.980469 325.527344 158.121094 328.359375 162.785156 328.824219 C 163.625 328.90625 164.671875 328.980469 165.792969 328.980469 C 168.101562 328.980469 169.949219 328.648438 171.140625 328.019531 C 172.078125 327.523438 172.585938 326.871094 172.722656 325.960938 C 172.867188 325.035156 172.644531 324.609375 172.464844 324.371094 C 171.609375 323.242188 168.871094 322.902344 166.875 322.652344 C 165.976562 322.539062 165.140625 322.429688 164.453125 322.277344 C 160.757812 321.46875 157.710938 320.035156 155.398438 318.027344 C 154.867188 317.566406 154.355469 317.027344 153.835938 316.476562 C 152.667969 315.234375 151.558594 314.058594 150.28125 314.058594 Z M 150.28125 314.058594 " fill-opacity="1" fill-rule="nonzero"/><g clip-path="url(#a3b462d9a4)"><path fill="#ffffff" d="M 215.246094 179.433594 C 217.976562 178.105469 222.148438 178.425781 224.621094 178.75 C 230.136719 179.484375 236.433594 182.957031 239.175781 187.886719 C 240.144531 189.625 240.792969 191.765625 240.449219 193.765625 C 240.207031 195.183594 238.496094 197.214844 236.945312 197.378906 C 233.820312 197.722656 232.171875 194.621094 230.21875 192.796875 C 227.964844 190.707031 225.039062 189.421875 222.074219 188.660156 C 218.761719 187.824219 211.636719 187.992188 212.636719 182.683594 C 212.9375 181.097656 213.929688 180.074219 215.246094 179.433594 Z M 215.246094 179.433594 " fill-opacity="1" fill-rule="nonzero"/></g><g clip-path="url(#0b4cbeaee7)"><path fill="#0016ee" d="M 236.472656 199.15625 C 233.574219 199.15625 231.757812 197.09375 230.292969 195.433594 C 229.871094 194.953125 229.457031 194.480469 229.023438 194.078125 C 227.21875 192.402344 224.730469 191.152344 221.636719 190.359375 C 221.050781 190.207031 220.324219 190.097656 219.546875 189.972656 C 216.792969 189.535156 213.367188 188.992188 211.699219 186.625 C 210.871094 185.445312 210.605469 184.011719 210.917969 182.363281 C 211.296875 180.363281 212.527344 178.808594 214.480469 177.859375 C 216.839844 176.710938 220.351562 176.429688 224.851562 177.015625 C 231.386719 177.886719 237.90625 182.003906 240.707031 187.035156 C 242.027344 189.410156 242.550781 191.902344 242.179688 194.066406 C 241.8125 196.195312 239.53125 198.867188 237.128906 199.121094 C 236.910156 199.144531 236.6875 199.15625 236.472656 199.15625 Z M 220.621094 180.210938 C 218.644531 180.210938 217.09375 180.480469 216.011719 181.007812 C 215.054688 181.46875 214.53125 182.105469 214.359375 183.007812 C 214.183594 183.9375 214.394531 184.363281 214.5625 184.609375 C 215.378906 185.765625 218.101562 186.199219 220.09375 186.515625 C 220.988281 186.65625 221.820312 186.792969 222.5 186.964844 C 226.175781 187.902344 229.171875 189.433594 231.414062 191.515625 C 231.925781 191.996094 232.417969 192.554688 232.917969 193.117188 C 234.3125 194.695312 235.246094 195.65625 236.472656 195.65625 L 236.753906 195.640625 C 237.394531 195.570312 238.585938 194.257812 238.722656 193.472656 C 239.042969 191.613281 238.183594 189.710938 237.648438 188.738281 C 235.082031 184.140625 229.039062 181.105469 224.390625 180.488281 C 223.023438 180.304688 221.753906 180.210938 220.621094 180.210938 Z M 220.621094 180.210938 " fill-opacity="1" fill-rule="nonzero"/></g></svg>