<svg xmlns="http://www.w3.org/2000/svg" xmlns:xlink="http://www.w3.org/1999/xlink" width="500" zoomAndPan="magnify" viewBox="0 0 375 74.999997" height="100" preserveAspectRatio="xMidYMid meet" version="1.0"><defs><clipPath id="87f2de9ca9"><path d="M 0 15.617188 L 375 15.617188 L 375 69 L 0 69 Z M 0 15.617188 " clip-rule="nonzero"/></clipPath><clipPath id="fe0c13c25f"><path d="M 20.25 15.617188 L 354.75 15.617188 C 365.933594 15.617188 375 24.683594 375 35.867188 L 375 48.640625 C 375 59.824219 365.933594 68.890625 354.75 68.890625 L 20.25 68.890625 C 9.066406 68.890625 0 59.824219 0 48.640625 L 0 35.867188 C 0 24.683594 9.066406 15.617188 20.25 15.617188 " clip-rule="nonzero"/></clipPath><clipPath id="76861be8e0"><path d="M 0 6.109375 L 361.671875 6.109375 L 361.671875 61.707031 L 0 61.707031 Z M 0 6.109375 " clip-rule="nonzero"/></clipPath><clipPath id="2f14fcee30"><path d="M 20.25 6.109375 L 341.339844 6.109375 C 352.523438 6.109375 361.589844 15.175781 361.589844 26.359375 L 361.589844 41.386719 C 361.589844 52.570312 352.523438 61.636719 341.339844 61.636719 L 20.25 61.636719 C 9.066406 61.636719 0 52.570312 0 41.386719 L 0 26.359375 C 0 15.175781 9.066406 6.109375 20.25 6.109375 " clip-rule="nonzero"/></clipPath><clipPath id="c2506a427d"><path d="M 0.0078125 6.109375 L 361.5 6.109375 L 361.5 61.609375 L 0.0078125 61.609375 Z M 0.0078125 6.109375 " clip-rule="nonzero"/></clipPath><clipPath id="48140bc228"><path d="M 20.253906 6.109375 L 341.246094 6.109375 C 352.429688 6.109375 361.492188 15.171875 361.492188 26.347656 L 361.492188 41.367188 C 361.492188 52.546875 352.429688 61.609375 341.246094 61.609375 L 20.253906 61.609375 C 9.070312 61.609375 0.0078125 52.546875 0.0078125 41.367188 L 0.0078125 26.347656 C 0.0078125 15.171875 9.070312 6.109375 20.253906 6.109375 " clip-rule="nonzero"/></clipPath></defs><g clip-path="url(#87f2de9ca9)"><g clip-path="url(#fe0c13c25f)"><path fill="#37319d" d="M 0 15.617188 L 375.164062 15.617188 L 375.164062 69.058594 L 0 69.058594 Z M 0 15.617188 " fill-opacity="1" fill-rule="nonzero"/></g></g><g clip-path="url(#76861be8e0)"><g clip-path="url(#2f14fcee30)"><path fill="#00b3fe" d="M 0 6.109375 L 361.671875 6.109375 L 361.671875 61.707031 L 0 61.707031 Z M 0 6.109375 " fill-opacity="1" fill-rule="nonzero"/></g></g><g clip-path="url(#c2506a427d)"><g clip-path="url(#48140bc228)"><path stroke-linecap="butt" transform="matrix(0.74983, 0, 0, 0.749683, 0.00843857, 6.108767)" fill="none" stroke-linejoin="miter" d="M 27.000083 0.000811354 L 455.086798 0.000811354 C 470.001641 0.000811354 482.087716 12.089249 482.087716 26.996585 L 482.087716 47.031085 C 482.087716 61.943632 470.001641 74.032069 455.086798 74.032069 L 27.000083 74.032069 C 12.085241 74.032069 -0.000834951 61.943632 -0.000834951 47.031085 L -0.000834951 26.996585 C -0.000834951 12.089249 12.085241 0.000811354 27.000083 0.000811354 " stroke="#37319d" stroke-width="4" stroke-opacity="1" stroke-miterlimit="4"/></g></g></svg>