<svg xmlns="http://www.w3.org/2000/svg" xmlns:xlink="http://www.w3.org/1999/xlink" width="1366" zoomAndPan="magnify" viewBox="0 0 1024.5 576" height="768" preserveAspectRatio="xMidYMid meet" version="1.0"><defs><clipPath id="e957444e2f"><path d="M 205.816406 198.085938 L 819 198.085938 L 819 391.953125 L 205.816406 391.953125 Z M 205.816406 198.085938 " clip-rule="nonzero"/></clipPath><clipPath id="be317d11db"><path d="M 226.066406 198.085938 L 798.433594 198.085938 C 803.804688 198.085938 808.957031 200.21875 812.753906 204.015625 C 816.550781 207.8125 818.683594 212.964844 818.683594 218.335938 L 818.683594 371.644531 C 818.683594 377.015625 816.550781 382.164062 812.753906 385.960938 C 808.957031 389.757812 803.804688 391.894531 798.433594 391.894531 L 226.066406 391.894531 C 220.695312 391.894531 215.542969 389.757812 211.746094 385.960938 C 207.949219 382.164062 205.816406 377.015625 205.816406 371.644531 L 205.816406 218.335938 C 205.816406 212.964844 207.949219 207.8125 211.746094 204.015625 C 215.542969 200.21875 220.695312 198.085938 226.066406 198.085938 " clip-rule="nonzero"/></clipPath><clipPath id="0df7eec91e"><path d="M 205.816406 184.386719 L 797 184.386719 L 797 378.253906 L 205.816406 378.253906 Z M 205.816406 184.386719 " clip-rule="nonzero"/></clipPath><clipPath id="7628479be9"><path d="M 226.066406 184.386719 L 776.515625 184.386719 C 781.886719 184.386719 787.039062 186.519531 790.835938 190.320312 C 794.632812 194.117188 796.769531 199.265625 796.769531 204.636719 L 796.769531 357.945312 C 796.769531 363.316406 794.632812 368.464844 790.835938 372.265625 C 787.039062 376.0625 781.886719 378.195312 776.515625 378.195312 L 226.066406 378.195312 C 220.695312 378.195312 215.542969 376.0625 211.746094 372.265625 C 207.949219 368.464844 205.816406 363.316406 205.816406 357.945312 L 205.816406 204.636719 C 205.816406 199.265625 207.949219 194.117188 211.746094 190.320312 C 215.542969 186.519531 220.695312 184.386719 226.066406 184.386719 " clip-rule="nonzero"/></clipPath><clipPath id="5f5b57917d"><path d="M 205.820312 184.386719 L 796.816406 184.386719 L 796.816406 377.886719 L 205.820312 377.886719 Z M 205.820312 184.386719 " clip-rule="nonzero"/></clipPath><clipPath id="f4e790d1a5"><path d="M 226.070312 184.386719 L 776.558594 184.386719 C 781.929688 184.386719 787.082031 186.519531 790.878906 190.308594 C 794.675781 194.101562 796.808594 199.242188 796.808594 204.605469 L 796.808594 357.667969 C 796.808594 363.03125 794.675781 368.175781 790.878906 371.964844 C 787.082031 375.757812 781.929688 377.886719 776.558594 377.886719 L 226.070312 377.886719 C 220.699219 377.886719 215.546875 375.757812 211.75 371.964844 C 207.953125 368.175781 205.820312 363.03125 205.820312 357.667969 L 205.820312 204.605469 C 205.820312 199.242188 207.953125 194.101562 211.75 190.308594 C 215.546875 186.519531 220.699219 184.386719 226.070312 184.386719 " clip-rule="nonzero"/></clipPath></defs><g clip-path="url(#e957444e2f)"><g clip-path="url(#be317d11db)"><path fill="#37319d" d="M 205.816406 198.085938 L 818.515625 198.085938 L 818.515625 391.953125 L 205.816406 391.953125 Z M 205.816406 198.085938 " fill-opacity="1" fill-rule="nonzero"/></g></g><g clip-path="url(#0df7eec91e)"><g clip-path="url(#7628479be9)"><path fill="#defe47" d="M 205.816406 184.386719 L 796.679688 184.386719 L 796.679688 378.253906 L 205.816406 378.253906 Z M 205.816406 184.386719 " fill-opacity="1" fill-rule="nonzero"/></g></g><g clip-path="url(#5f5b57917d)"><g clip-path="url(#f4e790d1a5)"><path stroke-linecap="butt" transform="matrix(0.750059, 0, 0, 0.748821, 205.818768, 184.387792)" fill="none" stroke-linejoin="miter" d="M 26.999924 -0.00143369 L 760.926239 -0.00143369 C 768.08713 -0.00143369 774.956379 2.846795 780.018478 7.906834 C 785.080578 12.97209 787.924103 19.83705 787.924103 26.999353 L 787.924103 231.404074 C 787.924103 238.566377 785.080578 245.436554 780.018478 250.496593 C 774.956379 255.561849 768.08713 258.404861 760.926239 258.404861 L 26.999924 258.404861 C 19.839032 258.404861 12.969784 255.561849 7.907684 250.496593 C 2.845584 245.436554 0.00205941 238.566377 0.00205941 231.404074 L 0.00205941 26.999353 C 0.00205941 19.83705 2.845584 12.97209 7.907684 7.906834 C 12.969784 2.846795 19.839032 -0.00143369 26.999924 -0.00143369 " stroke="#37319d" stroke-width="6" stroke-opacity="1" stroke-miterlimit="4"/></g></g></svg>