<svg xmlns="http://www.w3.org/2000/svg" xmlns:xlink="http://www.w3.org/1999/xlink" width="500" zoomAndPan="magnify" viewBox="0 0 375 74.999997" height="100" preserveAspectRatio="xMidYMid meet" version="1.0"><defs><clipPath id="cc49eaebb9"><path d="M 0 8.140625 L 375 8.140625 L 375 71.558594 L 0 71.558594 Z M 0 8.140625 " clip-rule="nonzero"/></clipPath><clipPath id="8d711dbb70"><path d="M 20.25 8.140625 L 354.75 8.140625 C 360.121094 8.140625 365.269531 10.273438 369.070312 14.070312 C 372.867188 17.871094 375 23.019531 375 28.390625 L 375 51.074219 C 375 56.445312 372.867188 61.597656 369.070312 65.394531 C 365.269531 69.191406 360.121094 71.324219 354.75 71.324219 L 20.25 71.324219 C 14.878906 71.324219 9.730469 69.191406 5.929688 65.394531 C 2.132812 61.597656 0 56.445312 0 51.074219 L 0 28.390625 C 0 23.019531 2.132812 17.871094 5.929688 14.070312 C 9.730469 10.273438 14.878906 8.140625 20.25 8.140625 " clip-rule="nonzero"/></clipPath><clipPath id="33672cc3de"><path d="M 0 3.675781 L 368 3.675781 L 368 67 L 0 67 Z M 0 3.675781 " clip-rule="nonzero"/></clipPath><clipPath id="de9cdf8274"><path d="M 20.25 3.675781 L 347.605469 3.675781 C 352.976562 3.675781 358.125 5.808594 361.921875 9.605469 C 365.722656 13.402344 367.855469 18.554688 367.855469 23.925781 L 367.855469 46.609375 C 367.855469 51.980469 365.722656 57.128906 361.921875 60.929688 C 358.125 64.726562 352.976562 66.859375 347.605469 66.859375 L 20.25 66.859375 C 14.878906 66.859375 9.730469 64.726562 5.929688 60.929688 C 2.132812 57.128906 0 51.980469 0 46.609375 L 0 23.925781 C 0 18.554688 2.132812 13.402344 5.929688 9.605469 C 9.730469 5.808594 14.878906 3.675781 20.25 3.675781 " clip-rule="nonzero"/></clipPath><clipPath id="749ae98e62"><path d="M 0.0234375 3.675781 L 367.5 3.675781 L 367.5 66.675781 L 0.0234375 66.675781 Z M 0.0234375 3.675781 " clip-rule="nonzero"/></clipPath><clipPath id="34cf322fca"><path d="M 20.25 3.675781 L 347.246094 3.675781 C 352.613281 3.675781 357.757812 5.800781 361.550781 9.589844 C 365.34375 13.375 367.476562 18.511719 367.476562 23.867188 L 367.476562 46.484375 C 367.476562 51.839844 365.34375 56.972656 361.550781 60.761719 C 357.757812 64.546875 352.613281 66.675781 347.246094 66.675781 L 20.25 66.675781 C 14.886719 66.675781 9.742188 64.546875 5.949219 60.761719 C 2.15625 56.972656 0.0234375 51.839844 0.0234375 46.484375 L 0.0234375 23.867188 C 0.0234375 18.511719 2.15625 13.375 5.949219 9.589844 C 9.742188 5.800781 14.886719 3.675781 20.25 3.675781 " clip-rule="nonzero"/></clipPath></defs><g clip-path="url(#cc49eaebb9)"><g clip-path="url(#8d711dbb70)"><path fill="#ff6e27" d="M 0 8.140625 L 374.910156 8.140625 L 374.910156 71.128906 L 0 71.128906 Z M 0 8.140625 " fill-opacity="1" fill-rule="nonzero"/></g></g><g clip-path="url(#33672cc3de)"><g clip-path="url(#de9cdf8274)"><path fill="#00b3fe" d="M 0 3.675781 L 368.007812 3.675781 L 368.007812 66.664062 L 0 66.664062 Z M 0 3.675781 " fill-opacity="1" fill-rule="nonzero"/></g></g><g clip-path="url(#749ae98e62)"><g clip-path="url(#34cf322fca)"><path stroke-linecap="butt" transform="matrix(0.749283, 0, 0, 0.747913, 0.0241141, 3.67484)" fill="none" stroke-linejoin="miter" d="M 26.993646 0.00125839 L 463.40553 0.00125839 C 470.568626 0.00125839 477.434563 2.842498 482.496693 7.908678 C 487.558822 12.969635 490.405293 19.837704 490.405293 26.998253 L 490.405293 57.238647 C 490.405293 64.399197 487.558822 71.262042 482.496693 76.328223 C 477.434563 81.38918 470.568626 84.235642 463.40553 84.235642 L 26.993646 84.235642 C 19.835764 84.235642 12.969827 81.38918 7.907697 76.328223 C 2.845567 71.262042 -0.000903004 64.399197 -0.000903004 57.238647 L -0.000903004 26.998253 C -0.000903004 19.837704 2.845567 12.969635 7.907697 7.908678 C 12.969827 2.842498 19.835764 0.00125839 26.993646 0.00125839 " stroke="#37319d" stroke-width="2" stroke-opacity="1" stroke-miterlimit="4"/></g></g></svg>