<svg xmlns="http://www.w3.org/2000/svg" xmlns:xlink="http://www.w3.org/1999/xlink" width="1056" zoomAndPan="magnify" viewBox="0 0 792 611.999999" height="816" preserveAspectRatio="xMidYMid meet" version="1.0"><defs><clipPath id="c19611259b"><path d="M 90 258.085938 L 702 258.085938 L 702 361 L 90 361 Z M 90 258.085938 " clip-rule="nonzero"/></clipPath><clipPath id="966ef45616"><path d="M 110.25 258.085938 L 681.75 258.085938 C 692.933594 258.085938 702 267.152344 702 278.335938 L 702 340.953125 C 702 352.136719 692.933594 361.203125 681.75 361.203125 L 110.25 361.203125 C 99.066406 361.203125 90 352.136719 90 340.953125 L 90 278.335938 C 90 267.152344 99.066406 258.085938 110.25 258.085938 " clip-rule="nonzero"/></clipPath><clipPath id="aa398b1aef"><path d="M 90 250.796875 L 690.589844 250.796875 L 690.589844 354 L 90 354 Z M 90 250.796875 " clip-rule="nonzero"/></clipPath><clipPath id="6c862c4dfd"><path d="M 110.25 250.796875 L 670.089844 250.796875 C 681.273438 250.796875 690.339844 259.863281 690.339844 271.046875 L 690.339844 333.664062 C 690.339844 344.847656 681.273438 353.914062 670.089844 353.914062 L 110.25 353.914062 C 99.066406 353.914062 90 344.847656 90 333.664062 L 90 271.046875 C 90 259.863281 99.066406 250.796875 110.25 250.796875 " clip-rule="nonzero"/></clipPath><clipPath id="280f200080"><path d="M 90.007812 250.796875 L 690 250.796875 L 690 353.546875 L 90.007812 353.546875 Z M 90.007812 250.796875 " clip-rule="nonzero"/></clipPath><clipPath id="ced154e48b"><path d="M 110.246094 250.796875 L 669.753906 250.796875 C 680.933594 250.796875 689.992188 259.832031 689.992188 270.976562 L 689.992188 333.371094 C 689.992188 344.511719 680.933594 353.546875 669.753906 353.546875 L 110.246094 353.546875 C 99.066406 353.546875 90.007812 344.511719 90.007812 333.371094 L 90.007812 270.976562 C 90.007812 259.832031 99.066406 250.796875 110.246094 250.796875 " clip-rule="nonzero"/></clipPath></defs><g clip-path="url(#c19611259b)"><g clip-path="url(#966ef45616)"><path fill="#ff6e27" d="M 90 258.085938 L 701.855469 258.085938 L 701.855469 360.882812 L 90 360.882812 Z M 90 258.085938 " fill-opacity="1" fill-rule="nonzero"/></g></g><g clip-path="url(#aa398b1aef)"><g clip-path="url(#6c862c4dfd)"><path fill="#00b3fe" d="M 90 250.796875 L 690.589844 250.796875 L 690.589844 353.59375 L 90 353.59375 Z M 90 250.796875 " fill-opacity="1" fill-rule="nonzero"/></g></g><g clip-path="url(#280f200080)"><g clip-path="url(#ced154e48b)"><path stroke-linecap="butt" transform="matrix(0.74959, 0, 0, 0.747358, 90.006266, 250.797343)" fill="none" stroke-linejoin="miter" d="M 27.001197 -0.000625859 L 773.419608 -0.000625859 C 788.33401 -0.000625859 800.418741 12.088842 800.418741 27.000754 L 800.418741 110.487599 C 800.418741 125.394284 788.33401 137.483752 773.419608 137.483752 L 27.001197 137.483752 C 12.086794 137.483752 0.00206373 125.394284 0.00206373 110.487599 L 0.00206373 27.000754 C 0.00206373 12.088842 12.086794 -0.000625859 27.001197 -0.000625859 " stroke="#37319d" stroke-width="4" stroke-opacity="1" stroke-miterlimit="4"/></g></g></svg>