<svg xmlns="http://www.w3.org/2000/svg" xmlns:xlink="http://www.w3.org/1999/xlink" width="500" zoomAndPan="magnify" viewBox="0 0 375 374.999991" height="500" preserveAspectRatio="xMidYMid meet" version="1.0"><defs><clipPath id="58c4fa87d8"><path d="M 181 168 L 218 168 L 218 214 L 181 214 Z M 181 168 " clip-rule="nonzero"/></clipPath><clipPath id="685264044c"><path d="M 167.046875 157.378906 L 217.875 167.09375 L 208.160156 217.925781 L 157.328125 208.207031 Z M 167.046875 157.378906 " clip-rule="nonzero"/></clipPath><clipPath id="8a9d664293"><path d="M 167.046875 157.378906 L 217.875 167.09375 L 208.160156 217.925781 L 157.328125 208.207031 Z M 167.046875 157.378906 " clip-rule="nonzero"/></clipPath><clipPath id="1b362bbd89"><path d="M 163 166 L 217 166 L 217 192 L 163 192 Z M 163 166 " clip-rule="nonzero"/></clipPath><clipPath id="9ad1c64f6f"><path d="M 167.046875 157.378906 L 217.875 167.09375 L 208.160156 217.925781 L 157.328125 208.207031 Z M 167.046875 157.378906 " clip-rule="nonzero"/></clipPath><clipPath id="0737d67dce"><path d="M 167.046875 157.378906 L 217.875 167.09375 L 208.160156 217.925781 L 157.328125 208.207031 Z M 167.046875 157.378906 " clip-rule="nonzero"/></clipPath></defs><g clip-path="url(#58c4fa87d8)"><g clip-path="url(#685264044c)"><g clip-path="url(#8a9d664293)"><path fill="#fe00fe" d="M 181.710938 192.890625 L 187.21875 213.921875 L 217.605469 168.5 Z M 181.710938 192.890625 " fill-opacity="1" fill-rule="nonzero"/></g></g></g><g clip-path="url(#1b362bbd89)"><g clip-path="url(#9ad1c64f6f)"><g clip-path="url(#0737d67dce)"><path fill="#fe00fe" d="M 180.558594 191.195312 L 216.46875 166.824219 L 163.042969 178.316406 Z M 180.558594 191.195312 " fill-opacity="1" fill-rule="nonzero"/></g></g></g></svg>