<svg xmlns="http://www.w3.org/2000/svg" xmlns:xlink="http://www.w3.org/1999/xlink" width="500" zoomAndPan="magnify" viewBox="0 0 375 74.999997" height="100" preserveAspectRatio="xMidYMid meet" version="1.0"><defs><clipPath id="db585ade4b"><path d="M 0 4.464844 L 375 4.464844 L 375 67.886719 L 0 67.886719 Z M 0 4.464844 " clip-rule="nonzero"/></clipPath><clipPath id="bbc2ff92d5"><path d="M 20.25 4.464844 L 354.75 4.464844 C 360.121094 4.464844 365.269531 6.597656 369.070312 10.398438 C 372.867188 14.195312 375 19.34375 375 24.714844 L 375 47.398438 C 375 52.769531 372.867188 57.921875 369.070312 61.71875 C 365.269531 65.515625 360.121094 67.648438 354.75 67.648438 L 20.25 67.648438 C 14.878906 67.648438 9.730469 65.515625 5.929688 61.71875 C 2.132812 57.921875 0 52.769531 0 47.398438 L 0 24.714844 C 0 19.34375 2.132812 14.195312 5.929688 10.398438 C 9.730469 6.597656 14.878906 4.464844 20.25 4.464844 " clip-rule="nonzero"/></clipPath><clipPath id="bb05e59b5b"><path d="M 0 0 L 368 0 L 368 63 L 0 63 Z M 0 0 " clip-rule="nonzero"/></clipPath><clipPath id="7bb4e71a1d"><path d="M 20.25 0 L 347.605469 0 C 352.976562 0 358.125 2.132812 361.921875 5.929688 C 365.722656 9.730469 367.855469 14.878906 367.855469 20.25 L 367.855469 42.933594 C 367.855469 48.304688 365.722656 53.457031 361.921875 57.253906 C 358.125 61.050781 352.976562 63.183594 347.605469 63.183594 L 20.25 63.183594 C 14.878906 63.183594 9.730469 61.050781 5.929688 57.253906 C 2.132812 53.457031 0 48.304688 0 42.933594 L 0 20.25 C 0 14.878906 2.132812 9.730469 5.929688 5.929688 C 9.730469 2.132812 14.878906 0 20.25 0 " clip-rule="nonzero"/></clipPath><clipPath id="30f470c9c8"><path d="M 0.0234375 0 L 367.5 0 L 367.5 63 L 0.0234375 63 Z M 0.0234375 0 " clip-rule="nonzero"/></clipPath><clipPath id="a06f44bc95"><path d="M 20.25 0 L 347.246094 0 C 352.613281 0 357.757812 2.128906 361.550781 5.914062 C 365.34375 9.699219 367.476562 14.835938 367.476562 20.191406 L 367.476562 42.808594 C 367.476562 48.164062 365.34375 53.300781 361.550781 57.085938 C 357.757812 60.871094 352.613281 63 347.246094 63 L 20.25 63 C 14.886719 63 9.742188 60.871094 5.949219 57.085938 C 2.15625 53.300781 0.0234375 48.164062 0.0234375 42.808594 L 0.0234375 20.191406 C 0.0234375 14.835938 2.15625 9.699219 5.949219 5.914062 C 9.742188 2.128906 14.886719 0 20.25 0 " clip-rule="nonzero"/></clipPath></defs><g clip-path="url(#db585ade4b)"><g clip-path="url(#bbc2ff92d5)"><path fill="#37319d" d="M 0 4.464844 L 374.910156 4.464844 L 374.910156 67.453125 L 0 67.453125 Z M 0 4.464844 " fill-opacity="1" fill-rule="nonzero"/></g></g><g clip-path="url(#bb05e59b5b)"><g clip-path="url(#7bb4e71a1d)"><path fill="#defe47" d="M 0 0 L 368.007812 0 L 368.007812 62.988281 L 0 62.988281 Z M 0 0 " fill-opacity="1" fill-rule="nonzero"/></g></g><g clip-path="url(#30f470c9c8)"><g clip-path="url(#a06f44bc95)"><path stroke-linecap="butt" transform="matrix(0.749283, 0, 0, 0.747913, 0.0241141, -0.000001)" fill="none" stroke-linejoin="miter" d="M 26.993646 0.00000133705 L 463.40553 0.00000133705 C 470.568626 0.00000133705 477.434563 2.846463 482.496693 7.907421 C 487.558822 12.968378 490.405293 19.836447 490.405293 26.996996 L 490.405293 57.23739 C 490.405293 64.397939 487.558822 71.266008 482.496693 76.326965 C 477.434563 81.387923 470.568626 84.234385 463.40553 84.234385 L 26.993646 84.234385 C 19.835764 84.234385 12.969827 81.387923 7.907697 76.326965 C 2.845567 71.266008 -0.000903004 64.397939 -0.000903004 57.23739 L -0.000903004 26.996996 C -0.000903004 19.836447 2.845567 12.968378 7.907697 7.907421 C 12.969827 2.846463 19.835764 0.00000133705 26.993646 0.00000133705 " stroke="#37319d" stroke-width="2" stroke-opacity="1" stroke-miterlimit="4"/></g></g></svg>