<svg xmlns="http://www.w3.org/2000/svg" xmlns:xlink="http://www.w3.org/1999/xlink" width="1366" zoomAndPan="magnify" viewBox="0 0 1024.5 576" height="768" preserveAspectRatio="xMidYMid meet" version="1.0"><defs><clipPath id="2a1b13f1c2"><path d="M 40.054688 214.203125 L 984.582031 214.203125 L 984.582031 373.554688 L 40.054688 373.554688 Z M 40.054688 214.203125 " clip-rule="nonzero"/></clipPath><clipPath id="ef256f2622"><path d="M 60.304688 214.203125 L 964.195312 214.203125 C 969.566406 214.203125 974.714844 216.335938 978.515625 220.132812 C 982.3125 223.929688 984.445312 229.082031 984.445312 234.453125 L 984.445312 353.074219 C 984.445312 358.445312 982.3125 363.597656 978.515625 367.394531 C 974.714844 371.191406 969.566406 373.324219 964.195312 373.324219 L 60.304688 373.324219 C 54.933594 373.324219 49.785156 371.191406 45.984375 367.394531 C 42.1875 363.597656 40.054688 358.445312 40.054688 353.074219 L 40.054688 234.453125 C 40.054688 229.082031 42.1875 223.929688 45.984375 220.132812 C 49.785156 216.335938 54.933594 214.203125 60.304688 214.203125 " clip-rule="nonzero"/></clipPath><clipPath id="18c7aaf813"><path d="M 40.054688 202.957031 L 966.472656 202.957031 L 966.472656 362.308594 L 40.054688 362.308594 Z M 40.054688 202.957031 " clip-rule="nonzero"/></clipPath><clipPath id="236d5a4511"><path d="M 60.304688 202.957031 L 946.199219 202.957031 C 951.570312 202.957031 956.722656 205.089844 960.519531 208.886719 C 964.316406 212.683594 966.449219 217.835938 966.449219 223.207031 L 966.449219 341.828125 C 966.449219 347.199219 964.316406 352.351562 960.519531 356.148438 C 956.722656 359.945312 951.570312 362.078125 946.199219 362.078125 L 60.304688 362.078125 C 54.933594 362.078125 49.785156 359.945312 45.984375 356.148438 C 42.1875 352.351562 40.054688 347.199219 40.054688 341.828125 L 40.054688 223.207031 C 40.054688 217.835938 42.1875 212.683594 45.984375 208.886719 C 49.785156 205.089844 54.933594 202.957031 60.304688 202.957031 " clip-rule="nonzero"/></clipPath><clipPath id="0950239462"><path d="M 40.066406 202.957031 L 966.304688 202.957031 L 966.304688 361.957031 L 40.066406 361.957031 Z M 40.066406 202.957031 " clip-rule="nonzero"/></clipPath><clipPath id="caa1d2c7d2"><path d="M 60.3125 202.957031 L 946.046875 202.957031 C 951.414062 202.957031 956.566406 205.089844 960.363281 208.882812 C 964.160156 212.675781 966.292969 217.824219 966.292969 223.191406 L 966.292969 341.722656 C 966.292969 347.089844 964.160156 352.234375 960.363281 356.03125 C 956.566406 359.824219 951.414062 361.957031 946.046875 361.957031 L 60.3125 361.957031 C 54.945312 361.957031 49.792969 359.824219 45.996094 356.03125 C 42.199219 352.234375 40.066406 347.089844 40.066406 341.722656 L 40.066406 223.191406 C 40.066406 217.824219 42.199219 212.675781 45.996094 208.882812 C 49.792969 205.089844 54.945312 202.957031 60.3125 202.957031 " clip-rule="nonzero"/></clipPath></defs><g clip-path="url(#2a1b13f1c2)"><g clip-path="url(#ef256f2622)"><path fill="#37319d" d="M 40.054688 214.203125 L 984.582031 214.203125 L 984.582031 373.554688 L 40.054688 373.554688 Z M 40.054688 214.203125 " fill-opacity="1" fill-rule="nonzero"/></g></g><g clip-path="url(#18c7aaf813)"><g clip-path="url(#236d5a4511)"><path fill="#defe47" d="M 40.054688 202.957031 L 966.472656 202.957031 L 966.472656 362.308594 L 40.054688 362.308594 Z M 40.054688 202.957031 " fill-opacity="1" fill-rule="nonzero"/></g></g><g clip-path="url(#0950239462)"><g clip-path="url(#caa1d2c7d2)"><path stroke-linecap="butt" transform="matrix(0.749886, 0, 0, 0.749448, 40.06794, 202.956112)" fill="none" stroke-linejoin="miter" d="M 26.996849 0.00122682 L 1208.155488 0.00122682 C 1215.312826 0.00122682 1222.183662 2.847073 1227.246931 7.908093 C 1232.3102 12.969112 1235.154383 19.838756 1235.154383 27.000281 L 1235.154383 185.158445 C 1235.154383 192.31997 1232.3102 199.184401 1227.246931 204.250633 C 1222.183662 209.311653 1215.312826 212.157499 1208.155488 212.157499 L 26.996849 212.157499 C 19.839511 212.157499 12.968676 209.311653 7.905406 204.250633 C 2.842137 199.184401 -0.00204512 192.31997 -0.00204512 185.158445 L -0.00204512 27.000281 C -0.00204512 19.838756 2.842137 12.969112 7.905406 7.908093 C 12.968676 2.847073 19.839511 0.00122682 26.996849 0.00122682 " stroke="#37319d" stroke-width="6" stroke-opacity="1" stroke-miterlimit="4"/></g></g></svg>